<svg width="120" height="120" viewBox="0 0 120 120" fill="none" xmlns="http://www.w3.org/2000/svg"><g clip-path="url(#clip0_807_32869)"><path d="M15.8789 40.076L23.2689 17.4843C25.8389 9.63968 33.1389 4.37357 41.4589 4.37357H78.5489C86.8589 4.37357 94.1689 9.63968 96.7389 17.4843L104.129 40.076L99.2089 41.6628L91.8189 19.0711C89.9489 13.3488 84.6189 9.51075 78.5489 9.51075H41.4589C35.3989 9.51075 30.0589 13.3587 28.1889 19.0711L20.7989 41.6628L15.8789 40.076Z" fill="#FDE9CC"></path><path d="M78.5496 5.18679C86.5096 5.18679 93.4996 10.2248 95.9596 17.7322L103.1 39.5504L99.7396 40.6314L92.5996 18.8132C90.6196 12.7537 84.9696 8.68762 78.5496 8.68762H41.4596C35.0396 8.68762 29.3896 12.7537 27.4096 18.8132L20.2696 40.6314L16.9096 39.5504L24.0496 17.7322C26.5096 10.2248 33.4996 5.18679 41.4596 5.18679H78.5496ZM78.5496 3.56033H41.4596C32.7896 3.56033 25.1696 9.05456 22.4896 17.2364L14.8496 40.6017L21.3296 42.6843L28.9696 19.319C30.7296 13.9339 35.7496 10.314 41.4596 10.314H78.5496C84.2596 10.314 89.2796 13.9339 91.0396 19.319L98.6796 42.6843L105.16 40.6017L97.5196 17.2364C94.8396 9.05456 87.2196 3.56033 78.5496 3.56033Z" fill="black"></path><path d="M113.561 56.3008L101.881 117.382H18.1209L6.44094 56.3008H113.561ZM115.541 54.6744H4.46094L16.7709 119.008H103.241L115.551 54.6744H115.541Z" fill="black"></path><path d="M18.0805 52.8595C14.7605 52.8595 12.0605 50.1818 12.0605 46.8893V42.0397C12.0605 38.7471 14.7605 36.0694 18.0805 36.0694C21.4005 36.0694 24.1005 38.7471 24.1005 42.0397V46.8893C24.1005 50.1818 21.4005 52.8595 18.0805 52.8595Z" fill="#FBD576"></path><path d="M18.0802 36.8826C20.9502 36.8826 23.2802 39.1934 23.2802 42.0397V46.8893C23.2802 49.7355 20.9502 52.0463 18.0802 52.0463C15.2102 52.0463 12.8802 49.7355 12.8802 46.8893V42.0397C12.8802 39.1934 15.2102 36.8826 18.0802 36.8826ZM18.0802 35.2562C14.3202 35.2562 11.2402 38.3108 11.2402 42.0397V46.8893C11.2402 50.6182 14.3202 53.6727 18.0802 53.6727C21.8402 53.6727 24.9202 50.6182 24.9202 46.8893V42.0397C24.9202 38.3108 21.8402 35.2562 18.0802 35.2562Z" fill="black"></path><path d="M101.92 52.8595C98.6004 52.8595 95.9004 50.1818 95.9004 46.8893V42.0397C95.9004 38.7471 98.6004 36.0694 101.92 36.0694C105.24 36.0694 107.94 38.7471 107.94 42.0397V46.8893C107.94 50.1818 105.24 52.8595 101.92 52.8595Z" fill="#FBD576"></path><path d="M101.92 36.8826C104.79 36.8826 107.12 39.1934 107.12 42.0397V46.8893C107.12 49.7355 104.79 52.0463 101.92 52.0463C99.0501 52.0463 96.7201 49.7355 96.7201 46.8893V42.0397C96.7201 39.1934 99.0501 36.8826 101.92 36.8826ZM101.92 35.2562C98.1601 35.2562 95.0801 38.3108 95.0801 42.0397V46.8893C95.0801 50.6182 98.1601 53.6727 101.92 53.6727C105.68 53.6727 108.76 50.6182 108.76 46.8893V42.0397C108.76 38.3108 105.68 35.2562 101.92 35.2562Z" fill="black"></path><path d="M101.92 42.2182C101.6 42.2182 101.34 41.9603 101.34 41.643C101.34 41.3256 101.6 41.0678 101.92 41.0678C102.24 41.0678 102.5 41.3256 102.5 41.643C102.5 41.9603 102.24 42.2182 101.92 42.2182Z" fill="white"></path><path d="M101.92 40.2446C101.15 40.2446 100.52 40.8694 100.52 41.6331C100.52 42.3967 101.15 43.0215 101.92 43.0215C102.69 43.0215 103.32 42.3967 103.32 41.6331C103.32 40.8694 102.69 40.2446 101.92 40.2446Z" fill="black"></path><path d="M18.08 42.2182C17.76 42.2182 17.5 41.9603 17.5 41.643C17.5 41.3256 17.76 41.0678 18.08 41.0678C18.4 41.0678 18.66 41.3256 18.66 41.643C18.66 41.9603 18.4 42.2182 18.08 42.2182Z" fill="white"></path><path d="M18.0797 40.2446C17.3097 40.2446 16.6797 40.8694 16.6797 41.6331C16.6797 42.3967 17.3097 43.0215 18.0797 43.0215C18.8497 43.0215 19.4797 42.3967 19.4797 41.6331C19.4797 40.8694 18.8497 40.2446 18.0797 40.2446Z" fill="black"></path><path d="M6.09031 56.0331C3.18031 56.0331 0.820312 53.6926 0.820312 50.8066C0.820312 47.9207 3.18031 45.5802 6.09031 45.5802H113.91C116.82 45.5802 119.18 47.9207 119.18 50.8066C119.18 53.6926 116.82 56.0331 113.91 56.0331H6.09031Z" fill="#1C7097"></path><path d="M113.91 46.3934C116.36 46.3934 118.36 48.3769 118.36 50.8066C118.36 53.2364 116.36 55.2198 113.91 55.2198H6.09C3.64 55.2198 1.64 53.2364 1.64 50.8066C1.64 48.3769 3.64 46.3934 6.09 46.3934H113.91ZM113.91 44.767H6.09C2.74 44.767 0 47.4843 0 50.8066C0 54.1289 2.74 56.8463 6.09 56.8463H113.91C117.26 56.8463 120 54.1289 120 50.8066C120 47.4843 117.26 44.767 113.91 44.767Z" fill="black"></path><path d="M70.5104 0.813232H49.4904C46.5412 0.813232 44.1504 3.18427 44.1504 6.1091V7.76528C44.1504 10.6901 46.5412 13.0612 49.4904 13.0612H70.5104C73.4596 13.0612 75.8504 10.6901 75.8504 7.76528V6.1091C75.8504 3.18427 73.4596 0.813232 70.5104 0.813232Z" fill="#CD4C3A"></path><path d="M70.5101 1.62646C73.0001 1.62646 75.0301 3.63967 75.0301 6.10909V7.76528C75.0301 10.2347 73.0001 12.2479 70.5101 12.2479H49.4901C47.0001 12.2479 44.9701 10.2347 44.9701 7.76528V6.10909C44.9701 3.63967 47.0001 1.62646 49.4901 1.62646H70.5101ZM70.5101 0H49.4901C46.1001 0 43.3301 2.74711 43.3301 6.10909V7.76528C43.3301 11.1273 46.1001 13.8744 49.4901 13.8744H70.5101C73.9001 13.8744 76.6701 11.1273 76.6701 7.76528V6.10909C76.6701 2.74711 73.9001 0 70.5101 0Z" fill="black"></path><path d="M31.1395 119.217L32.7695 119.008L24.5595 55.4281L22.9395 55.6364L31.1395 119.217Z" fill="black"></path><path d="M45.2291 119.107L46.8591 119.008L42.7591 55.4281L41.1191 55.5273L45.2291 119.107Z" fill="black"></path><path d="M59.3186 119.008H60.9586L60.9486 55.4281H59.3086L59.3186 119.008Z" fill="black"></path><path d="M73.4199 118.909L75.0499 119.008L79.1499 55.4281L77.5099 55.319L73.4199 118.909Z" fill="black"></path><path d="M87.5195 118.8L89.1495 119.008L97.3395 55.4281L95.7195 55.2198L87.5195 118.8Z" fill="black"></path><path d="M9.05078 72.6942H110.781V71.0777H9.05078V72.6942Z" fill="black"></path><path d="M11.5117 88.076H108.272V86.4496H11.5117V88.076Z" fill="black"></path><path d="M13.9609 103.448H105.761V101.822H13.9609V103.448Z" fill="black"></path><path d="M59.9999 108.327C57.2899 108.327 54.7599 106.8 52.8799 104.013C52.7399 103.815 52.5199 103.686 52.2699 103.686C52.2199 103.686 52.1699 103.686 52.1199 103.706C51.3399 103.864 50.5599 103.934 49.8099 103.934C47.2199 103.934 45.0099 102.982 43.5799 101.256C42.0199 99.3719 41.4799 96.6942 42.0699 93.719C42.1299 93.4314 42.0099 93.1339 41.7599 92.9752C38.9599 91.1207 37.4199 88.6116 37.4199 85.924C37.4199 83.2364 38.9599 80.7273 41.7699 78.8727C42.0199 78.7041 42.1399 78.4165 42.0799 78.1289C41.4899 75.1537 42.0199 72.476 43.5799 70.5917C45.0099 68.8661 47.2199 67.9141 49.8099 67.9141C50.5599 67.9141 51.3399 67.9934 52.1299 68.1521C52.1699 68.1521 52.2199 68.162 52.2699 68.162C52.5199 68.162 52.7499 68.043 52.8799 67.8347C54.7499 65.0578 57.2799 63.5306 59.9899 63.5306C62.6999 63.5306 65.2299 65.0578 67.1099 67.8347C67.2499 68.033 67.4799 68.162 67.7199 68.162C67.7699 68.162 67.8299 68.162 67.8799 68.1421C68.6499 67.9934 69.4399 67.9141 70.1799 67.9141C72.7699 67.9141 74.9799 68.8661 76.4099 70.5917C77.9699 72.476 78.5099 75.1537 77.9099 78.1289C77.8499 78.4165 77.9699 78.714 78.2199 78.8727C81.0199 80.7372 82.5699 83.2364 82.5699 85.9339C82.5699 88.6314 81.0299 91.1306 78.2299 92.995C77.9799 93.1636 77.8599 93.4512 77.9199 93.7388C78.5099 96.714 77.9699 99.3917 76.4099 101.276C74.9799 103.002 72.7599 103.954 70.1799 103.954C69.4299 103.954 68.6499 103.874 67.8599 103.716C67.8199 103.716 67.7699 103.706 67.7199 103.706C67.4699 103.706 67.2399 103.825 67.1099 104.023C65.2299 106.8 62.6999 108.337 59.9899 108.337L59.9999 108.327Z" fill="#FBD576"></path><path d="M59.9996 64.3438C62.4296 64.3438 64.7196 65.7421 66.4396 68.2909C66.7296 68.7173 67.2196 68.9752 67.7296 68.9752C67.8296 68.9752 67.9296 68.9653 68.0296 68.9454C68.7696 68.7967 69.4996 68.7273 70.1896 68.7273C72.5296 68.7273 74.5196 69.5703 75.7896 71.1074C77.1896 72.8033 77.6696 75.243 77.1196 77.9702C76.9896 78.5752 77.2596 79.2 77.7796 79.5471C80.3496 81.2529 81.7596 83.514 81.7596 85.9339C81.7596 88.3537 80.3496 90.6149 77.7796 92.3207C77.2596 92.6678 76.9996 93.2925 77.1196 93.8975C77.6596 96.6248 77.1896 99.0645 75.7796 100.76C74.5096 102.298 72.5196 103.14 70.1796 103.14C69.4796 103.14 68.7596 103.071 68.0196 102.922C67.9196 102.902 67.8196 102.893 67.7196 102.893C67.2096 102.893 66.7196 103.14 66.4296 103.577C64.7096 106.126 62.4196 107.524 59.9896 107.524C57.5596 107.524 55.2696 106.116 53.5496 103.577C53.2596 103.15 52.7696 102.893 52.2596 102.893C52.1596 102.893 52.0596 102.902 51.9596 102.922C51.2196 103.071 50.4896 103.14 49.7996 103.14C47.4596 103.14 45.4696 102.298 44.1996 100.76C42.7896 99.0645 42.3196 96.6248 42.8596 93.8975C42.9796 93.2925 42.7196 92.6678 42.1996 92.3207C39.6296 90.6149 38.2196 88.3537 38.2196 85.9438C38.2196 83.5339 39.6296 81.2628 42.1996 79.5669C42.7196 79.2198 42.9796 78.595 42.8596 77.9901C42.3196 75.2628 42.7896 72.8231 44.1896 71.1273C45.4596 69.5901 47.4496 68.7471 49.7896 68.7471C50.4896 68.7471 51.2096 68.8165 51.9496 68.9653C52.0496 68.9851 52.1496 68.995 52.2496 68.995C52.7596 68.995 53.2496 68.7471 53.5396 68.3107C55.2596 65.762 57.5396 64.3636 59.9696 64.3636M59.9996 62.7173C57.0196 62.7173 54.2596 64.3537 52.2396 67.3388C51.4296 67.1802 50.6096 67.1008 49.8096 67.1008C46.9696 67.1008 44.5296 68.162 42.9396 70.076C41.2296 72.1388 40.6296 75.0347 41.2596 78.238C38.2496 80.2413 36.5996 82.9785 36.5996 85.9339C36.5996 88.8892 38.2496 91.6165 41.2596 93.6297C40.6396 96.8231 41.2296 99.719 42.9496 101.782C44.5396 103.696 46.9796 104.757 49.8196 104.757C50.6096 104.757 51.4196 104.678 52.2496 104.519C54.2796 107.504 57.0396 109.14 60.0196 109.14C62.9996 109.14 65.7596 107.504 67.7896 104.519C68.5996 104.678 69.4196 104.757 70.2096 104.757C73.0396 104.757 75.4796 103.706 77.0696 101.782C78.7796 99.719 79.3796 96.8231 78.7596 93.6297C81.7596 91.6165 83.4196 88.8793 83.4196 85.924C83.4196 82.9686 81.7596 80.2314 78.7596 78.2182C79.3796 75.0248 78.7896 72.1289 77.0796 70.0661C75.4896 68.1521 73.0496 67.0909 70.2096 67.0909C69.4196 67.0909 68.6096 67.1703 67.7796 67.3289C65.7496 64.3537 62.9896 62.7074 60.0096 62.7074L59.9996 62.7173Z" fill="black"></path><path d="M74.7404 89.1669C73.8804 88.0959 72.7404 87.4215 71.3504 87.1537C70.8504 87.0546 70.3604 87.3818 70.2604 87.8876C70.1604 88.3835 70.4904 88.8694 71.0004 88.9686C71.1004 88.9884 71.2004 89.0083 71.2904 89.038C70.2004 90.3174 66.5304 93.957 60.0304 93.957C53.5304 93.957 49.8504 90.3273 48.7704 89.038C48.8704 89.0083 48.9704 88.9884 49.0604 88.9686C49.5604 88.8694 49.9004 88.3835 49.8004 87.8876C49.7004 87.3917 49.2104 87.0546 48.7104 87.1537C47.3204 87.4215 46.1804 88.0959 45.3204 89.1669C45.0004 89.5636 45.0704 90.1488 45.4704 90.4661C45.6404 90.605 45.8504 90.6645 46.0504 90.6645C46.3204 90.6645 46.5904 90.5455 46.7804 90.3174C46.8904 90.1884 47.0004 90.0694 47.1204 89.9504C48.1204 91.2099 52.2704 95.8017 60.0304 95.8017C67.7904 95.8017 71.9504 91.2099 72.9404 89.9504C73.0604 90.0595 73.1704 90.1884 73.2804 90.3174C73.4604 90.5455 73.7404 90.6645 74.0104 90.6645C74.2104 90.6645 74.4204 90.595 74.5904 90.4661C74.9904 90.1488 75.0604 89.5636 74.7404 89.1669Z" fill="black"></path><path fill-rule="evenodd" clip-rule="evenodd" d="M65.3688 84.3669C66.5588 84.3669 67.5187 82.6909 67.5187 80.6578C67.5187 78.6248 66.5488 76.9488 65.3688 76.9488C64.1888 76.9488 63.2188 78.6049 63.2188 80.6578C63.2188 82.7107 64.1888 84.3669 65.3688 84.3669Z" fill="black"></path><path fill-rule="evenodd" clip-rule="evenodd" d="M54.6187 84.3669C55.8087 84.3669 56.7687 82.6909 56.7687 80.6578C56.7687 78.6248 55.7987 76.9488 54.6187 76.9488C53.4387 76.9488 52.4688 78.6049 52.4688 80.6578C52.4688 82.7107 53.4387 84.3669 54.6187 84.3669Z" fill="black"></path></g><defs><clipPath id="clip0_807_32869"><rect width="120" height="120" fill="white"></rect></clipPath></defs></svg>