<svg xmlns="http://www.w3.org/2000/svg" viewBox="0 0 120 120" fill="none" class="w-24 md:w-[120px]"><path d="M28.0789 114.18C21.9089 114.18 16.8789 109.16 16.8789 102.98V58.48C16.8789 46.9 21.8189 35.81 30.4189 28.06L31.8989 26.73V9.87001C31.8989 7.64001 33.7189 5.82001 35.9489 5.82001H86.7689C88.9989 5.82001 90.8189 7.64001 90.8189 9.87001V26.76L91.1089 27.01C100.469 34.81 105.839 46.27 105.839 58.45V102.99C105.839 109.16 100.819 114.19 94.6389 114.19H28.0789V114.18Z" fill="#FDE9CC"></path><path d="M86.7708 6.64C87.6308 6.64 88.4408 6.98 89.0508 7.59C89.6608 8.2 90.0008 9.01 90.0008 9.87V26.38V27.15L90.5908 27.64C99.7608 35.28 105.021 46.51 105.021 58.45V102.99C105.021 108.71 100.361 113.37 94.6408 113.37H28.0808C22.3608 113.37 17.7008 108.71 17.7008 102.99V58.49C17.7008 47.14 22.5408 36.28 30.9708 28.68L32.1808 27.59L32.7208 27.1V9.87C32.7208 8.09 34.1708 6.64 35.9508 6.64H86.7708ZM86.7708 5H35.9508C33.2608 5 31.0808 7.18 31.0808 9.87V26.38L29.8708 27.47C21.0808 35.39 16.0508 46.66 16.0508 58.5V103C16.0508 109.64 21.4308 115.02 28.0708 115.02H94.6308C101.271 115.02 106.651 109.64 106.651 103V58.46C106.651 46.07 101.151 34.32 91.6308 26.39V9.87C91.6308 7.18 89.4508 5 86.7608 5H86.7708Z" fill="black"></path><path d="M27.3703 110.5C31.1258 110.5 34.1703 107.456 34.1703 103.7C34.1703 99.9445 31.1258 96.9 27.3703 96.9C23.6148 96.9 20.5703 99.9445 20.5703 103.7C20.5703 107.456 23.6148 110.5 27.3703 110.5Z" fill="#CD4C3A" stroke="black" stroke-width="1.64" stroke-miterlimit="10"></path><path d="M34.1711 98.76C37.9266 98.76 40.9711 95.7155 40.9711 91.96C40.9711 88.2045 37.9266 85.16 34.1711 85.16C30.4156 85.16 27.3711 88.2045 27.3711 91.96C27.3711 95.7155 30.4156 98.76 34.1711 98.76Z" fill="#2C6D4E" stroke="black" stroke-width="1.64" stroke-miterlimit="10"></path><path d="M40.9719 86.86C44.7274 86.86 47.7719 83.8155 47.7719 80.06C47.7719 76.3045 44.7274 73.26 40.9719 73.26C37.2163 73.26 34.1719 76.3045 34.1719 80.06C34.1719 83.8155 37.2163 86.86 40.9719 86.86Z" fill="#FBD576" stroke="black" stroke-width="1.64" stroke-miterlimit="10"></path><path d="M47.7609 74.96C51.5165 74.96 54.5609 71.9155 54.5609 68.16C54.5609 64.4045 51.5165 61.36 47.7609 61.36C44.0054 61.36 40.9609 64.4045 40.9609 68.16C40.9609 71.9155 44.0054 74.96 47.7609 74.96Z" fill="#2C6D4E" stroke="black" stroke-width="1.64" stroke-miterlimit="10"></path><path d="M61.3586 74.96C65.1141 74.96 68.1586 71.9155 68.1586 68.16C68.1586 64.4045 65.1141 61.36 61.3586 61.36C57.6031 61.36 54.5586 64.4045 54.5586 68.16C54.5586 71.9155 57.6031 74.96 61.3586 74.96Z" fill="#1C7097" stroke="black" stroke-width="1.64" stroke-miterlimit="10"></path><path d="M74.9602 74.96C78.7157 74.96 81.7602 71.9155 81.7602 68.16C81.7602 64.4045 78.7157 61.36 74.9602 61.36C71.2046 61.36 68.1602 64.4045 68.1602 68.16C68.1602 71.9155 71.2046 74.96 74.9602 74.96Z" fill="#30897C" stroke="black" stroke-width="1.64" stroke-miterlimit="10"></path><path d="M54.5617 86.86C58.3173 86.86 61.3617 83.8155 61.3617 80.06C61.3617 76.3045 58.3173 73.26 54.5617 73.26C50.8062 73.26 47.7617 76.3045 47.7617 80.06C47.7617 83.8155 50.8062 86.86 54.5617 86.86Z" fill="#1C7097" stroke="black" stroke-width="1.64" stroke-miterlimit="10"></path><path d="M68.1594 86.86C71.9149 86.86 74.9594 83.8155 74.9594 80.06C74.9594 76.3045 71.9149 73.26 68.1594 73.26C64.4038 73.26 61.3594 76.3045 61.3594 80.06C61.3594 83.8155 64.4038 86.86 68.1594 86.86Z" fill="#FBD576" stroke="black" stroke-width="1.64" stroke-miterlimit="10"></path><path d="M81.7609 86.86C85.5165 86.86 88.5609 83.8155 88.5609 80.06C88.5609 76.3045 85.5165 73.26 81.7609 73.26C78.0054 73.26 74.9609 76.3045 74.9609 80.06C74.9609 83.8155 78.0054 86.86 81.7609 86.86Z" fill="#CD4C3A" stroke="black" stroke-width="1.64" stroke-miterlimit="10"></path><path d="M47.7609 98.76C51.5165 98.76 54.5609 95.7155 54.5609 91.96C54.5609 88.2045 51.5165 85.16 47.7609 85.16C44.0054 85.16 40.9609 88.2045 40.9609 91.96C40.9609 95.7155 44.0054 98.76 47.7609 98.76Z" fill="#30897C" stroke="black" stroke-width="1.64" stroke-miterlimit="10"></path><path d="M61.3586 98.76C65.1141 98.76 68.1586 95.7155 68.1586 91.96C68.1586 88.2045 65.1141 85.16 61.3586 85.16C57.6031 85.16 54.5586 88.2045 54.5586 91.96C54.5586 95.7155 57.6031 98.76 61.3586 98.76Z" fill="#2C6D4E" stroke="black" stroke-width="1.64" stroke-miterlimit="10"></path><path d="M74.9602 98.76C78.7157 98.76 81.7602 95.7155 81.7602 91.96C81.7602 88.2045 78.7157 85.16 74.9602 85.16C71.2046 85.16 68.1602 88.2045 68.1602 91.96C68.1602 95.7155 71.2046 98.76 74.9602 98.76Z" fill="#FBD576" stroke="black" stroke-width="1.64" stroke-miterlimit="10"></path><path d="M88.5617 98.76C92.3173 98.76 95.3617 95.7155 95.3617 91.96C95.3617 88.2045 92.3173 85.16 88.5617 85.16C84.8062 85.16 81.7617 88.2045 81.7617 91.96C81.7617 95.7155 84.8062 98.76 88.5617 98.76Z" fill="#30897C" stroke="black" stroke-width="1.64" stroke-miterlimit="10"></path><path d="M40.9719 110.5C44.7274 110.5 47.7719 107.456 47.7719 103.7C47.7719 99.9445 44.7274 96.9 40.9719 96.9C37.2163 96.9 34.1719 99.9445 34.1719 103.7C34.1719 107.456 37.2163 110.5 40.9719 110.5Z" fill="#FBD576" stroke="black" stroke-width="1.64" stroke-miterlimit="10"></path><path d="M54.5617 110.5C58.3173 110.5 61.3617 107.456 61.3617 103.7C61.3617 99.9445 58.3173 96.9 54.5617 96.9C50.8062 96.9 47.7617 99.9445 47.7617 103.7C47.7617 107.456 50.8062 110.5 54.5617 110.5Z" fill="#CD4C3A" stroke="black" stroke-width="1.64" stroke-miterlimit="10"></path><path d="M68.1594 110.5C71.9149 110.5 74.9594 107.456 74.9594 103.7C74.9594 99.9445 71.9149 96.9 68.1594 96.9C64.4038 96.9 61.3594 99.9445 61.3594 103.7C61.3594 107.456 64.4038 110.5 68.1594 110.5Z" fill="#1C7097" stroke="black" stroke-width="1.64" stroke-miterlimit="10"></path><path d="M81.7609 110.5C85.5165 110.5 88.5609 107.456 88.5609 103.7C88.5609 99.9445 85.5165 96.9 81.7609 96.9C78.0054 96.9 74.9609 99.9445 74.9609 103.7C74.9609 107.456 78.0054 110.5 81.7609 110.5Z" fill="#CD4C3A" stroke="black" stroke-width="1.64" stroke-miterlimit="10"></path><path d="M95.3508 110.5C99.1063 110.5 102.151 107.456 102.151 103.7C102.151 99.9445 99.1063 96.9 95.3508 96.9C91.5952 96.9 88.5508 99.9445 88.5508 103.7C88.5508 107.456 91.5952 110.5 95.3508 110.5Z" fill="#2C6D4E" stroke="black" stroke-width="1.64" stroke-miterlimit="10"></path><path opacity="0.5" d="M27.8386 29.44C20.3186 37.2 16.0586 47.6 16.0586 58.48V59.72L71.3286 114.99H94.6386C99.7086 114.99 104.039 111.84 105.799 107.4L27.8386 29.44Z" fill="white"></path><path d="M61.3692 93.67C58.2292 93.67 55.2992 91.88 53.1192 88.62C52.9292 88.34 52.6192 88.17 52.2792 88.17C52.2092 88.17 52.1392 88.17 52.0692 88.19C51.1592 88.37 50.2492 88.46 49.3792 88.46C46.3792 88.46 43.8192 87.35 42.1592 85.34C40.3492 83.13 39.7292 80 40.4192 76.53C40.4992 76.13 40.3292 75.72 39.9892 75.49C36.7392 73.32 34.9492 70.39 34.9492 67.25C34.9492 64.11 36.7392 61.18 39.9992 59.01C40.3392 58.78 40.5092 58.38 40.4292 57.98C39.7392 54.5 40.3592 51.37 42.1692 49.16C43.8192 47.15 46.3892 46.04 49.3892 46.04C50.2692 46.04 51.1792 46.13 52.0992 46.32C52.1592 46.33 52.2292 46.34 52.2992 46.34C52.6392 46.34 52.9492 46.17 53.1392 45.89C55.3092 42.64 58.2392 40.85 61.3792 40.85C64.5192 40.85 67.4492 42.64 69.6292 45.89C69.8192 46.17 70.1292 46.34 70.4692 46.34C70.5392 46.34 70.5992 46.34 70.6692 46.32C71.5792 46.14 72.4892 46.05 73.3692 46.05C76.3692 46.05 78.9292 47.16 80.5892 49.17C82.3992 51.37 83.0192 54.5 82.3292 57.98C82.2492 58.38 82.4192 58.79 82.7592 59.01C86.0192 61.19 87.8092 64.12 87.8092 67.26C87.8092 70.4 86.0192 73.33 82.7692 75.51C82.4292 75.74 82.2592 76.14 82.3392 76.55C83.0292 80.04 82.4092 83.17 80.5992 85.36C78.9392 87.37 76.3792 88.48 73.3792 88.48C72.4992 88.48 71.5892 88.39 70.6792 88.2C70.6192 88.19 70.5492 88.18 70.4892 88.18C70.1492 88.18 69.8392 88.35 69.6492 88.62C67.4692 91.87 64.5392 93.67 61.3992 93.67H61.3692Z" fill="#FBD576"></path><path d="M61.3589 41.66C64.2189 41.66 66.9089 43.32 68.9289 46.34C69.2789 46.85 69.8489 47.15 70.4489 47.15C70.5689 47.15 70.6889 47.14 70.7989 47.12C71.6689 46.95 72.5189 46.86 73.3389 46.86C76.0889 46.86 78.4289 47.86 79.9189 49.68C81.5689 51.69 82.1289 54.58 81.4889 57.81C81.3389 58.53 81.6489 59.27 82.2589 59.68C85.2789 61.7 86.9389 64.39 86.9389 67.25C86.9389 70.11 85.2789 72.8 82.2589 74.82C81.6489 75.23 81.3389 75.97 81.4889 76.69C82.1289 79.93 81.5689 82.82 79.9189 84.82C78.4189 86.64 76.0789 87.64 73.3389 87.64C72.5189 87.64 71.6689 87.55 70.7989 87.38C70.6789 87.36 70.5589 87.35 70.4489 87.35C69.8489 87.35 69.2689 87.64 68.9289 88.16C66.9089 91.18 64.2189 92.84 61.3589 92.84C58.4989 92.84 55.8089 91.17 53.7889 88.16C53.4489 87.65 52.8689 87.35 52.2689 87.35C52.1489 87.35 52.0289 87.36 51.9189 87.38C51.0489 87.55 50.1889 87.64 49.3689 87.64C46.6189 87.64 44.2789 86.64 42.7889 84.82C41.1389 82.81 40.5789 79.92 41.2189 76.69C41.3589 75.97 41.0589 75.23 40.4489 74.82C37.4289 72.8 35.7689 70.11 35.7689 67.26C35.7689 64.41 37.4289 61.71 40.4489 59.7C41.0589 59.29 41.3689 58.55 41.2189 57.83C40.5789 54.59 41.1289 51.7 42.7889 49.69C44.2789 47.87 46.6289 46.87 49.3689 46.87C50.1889 46.87 51.0489 46.96 51.9189 47.13C52.0389 47.15 52.1589 47.16 52.2689 47.16C52.8689 47.16 53.4489 46.86 53.7889 46.35C55.8089 43.33 58.4989 41.67 61.3489 41.67M61.3589 40.03C57.9389 40.03 54.7689 41.95 52.4389 45.44C52.4089 45.49 52.3489 45.52 52.2789 45.52C52.2589 45.52 52.2389 45.52 52.2189 45.52C51.2689 45.33 50.3089 45.23 49.3789 45.23C46.1289 45.23 43.3389 46.44 41.5289 48.65C39.5589 51.05 38.8789 54.42 39.6189 58.15C39.6289 58.22 39.5989 58.3 39.5389 58.35C36.0589 60.68 34.1289 63.85 34.1289 67.27C34.1289 70.69 36.0489 73.86 39.5389 76.19C39.5989 76.23 39.6289 76.31 39.6189 76.38C38.8789 80.1 39.5589 83.47 41.5289 85.87C43.3389 88.08 46.1289 89.29 49.3789 89.29C50.3089 89.29 51.2689 89.19 52.2389 89C52.2389 89 52.2589 89 52.2789 89C52.3389 89 52.3989 89.03 52.4389 89.08C54.7789 92.57 57.9489 94.49 61.3689 94.49C64.7889 94.49 67.9589 92.57 70.2989 89.08C70.3489 89 70.4289 89 70.4589 89C70.4789 89 70.4989 89 70.5189 89C71.4689 89.19 72.4289 89.29 73.3589 89.29C76.6089 89.29 79.3889 88.08 81.2089 85.87C83.1789 83.48 83.8589 80.11 83.1189 76.38C83.0989 76.3 83.1389 76.22 83.1989 76.18C86.6789 73.85 88.5989 70.68 88.5989 67.25C88.5989 63.82 86.6789 60.66 83.1889 58.32C83.1289 58.28 83.0989 58.2 83.1089 58.13C83.8489 54.4 83.1689 51.03 81.1989 48.63C79.3889 46.42 76.5989 45.21 73.3489 45.21C72.4189 45.21 71.4589 45.31 70.4889 45.5C70.4889 45.5 70.4689 45.5 70.4489 45.5C70.3889 45.5 70.3289 45.47 70.2889 45.41C67.9489 41.93 64.7789 40.01 61.3589 40.01V40.03Z" fill="black"></path><path d="M78.6905 71.1C77.6805 69.83 76.3405 69.03 74.7005 68.71C74.1105 68.6 73.5305 68.98 73.4105 69.58C73.3005 70.17 73.6805 70.75 74.2805 70.87C74.4005 70.89 74.5105 70.92 74.6205 70.95C73.3405 72.47 69.0205 76.78 61.3805 76.78C53.7405 76.78 49.4105 72.47 48.1405 70.95C48.2505 70.92 48.3705 70.89 48.4905 70.87C49.0805 70.76 49.4705 70.18 49.3605 69.58C49.2505 68.99 48.6705 68.6 48.0705 68.71C46.4405 69.03 45.1005 69.83 44.0805 71.1C43.7005 71.57 43.7805 72.26 44.2505 72.64C44.4505 72.8 44.6905 72.88 44.9305 72.88C45.2505 72.88 45.5705 72.74 45.7905 72.47C45.9205 72.31 46.0505 72.17 46.1905 72.04C47.3605 73.54 52.2505 78.98 61.3805 78.98C70.5105 78.98 75.3905 73.54 76.5705 72.04C76.7105 72.17 76.8405 72.32 76.9705 72.47C77.1905 72.74 77.5105 72.88 77.8305 72.88C78.0705 72.88 78.3105 72.8 78.5105 72.64C78.9805 72.26 79.0605 71.57 78.6805 71.1H78.6905Z" fill="black"></path><path fill-rule="evenodd" clip-rule="evenodd" d="M67.6784 65.41C69.0684 65.41 70.2084 63.43 70.2084 61.01C70.2084 58.59 69.0684 56.61 67.6784 56.61C66.2884 56.61 65.1484 58.57 65.1484 61.01C65.1484 63.45 66.2884 65.41 67.6784 65.41Z" fill="black"></path><path fill-rule="evenodd" clip-rule="evenodd" d="M55.0378 65.41C56.4278 65.41 57.5678 63.43 57.5678 61.01C57.5678 58.59 56.4278 56.61 55.0378 56.61C53.6478 56.61 52.5078 58.57 52.5078 61.01C52.5078 63.45 53.6478 65.41 55.0378 65.41Z" fill="black"></path><path d="M89.9986 13.28V26.38V27.15L90.5886 27.64C99.7586 35.28 105.019 46.51 105.019 58.45V102.99C105.019 108.71 100.359 113.37 94.6386 113.37H28.0786C22.3586 113.37 17.6986 108.71 17.6986 102.99V58.49C17.6986 47.14 22.5386 36.28 30.9686 28.68L32.1786 27.59L32.7186 27.1V13.27H89.9886M91.6386 11.64H31.0886V26.37L29.8786 27.46C21.0886 35.38 16.0586 46.65 16.0586 58.49V102.99C16.0586 109.63 21.4386 115.01 28.0786 115.01H94.6386C101.279 115.01 106.659 109.63 106.659 102.99V58.45C106.659 46.06 101.159 34.31 91.6386 26.38V11.65V11.64Z" fill="black"></path><path d="M32.7303 5.82001H90.0003C92.0203 5.82001 93.6603 7.46001 93.6603 9.48001V22.73C93.6603 24.75 92.0203 26.39 90.0003 26.39H32.7303C30.7103 26.39 29.0703 24.75 29.0703 22.73V9.48001C29.0703 7.46001 30.7103 5.82001 32.7303 5.82001Z" fill="#CD4C3A"></path><path d="M90 6.64C91.57 6.64 92.84 7.92 92.84 9.48V22.73C92.84 24.3 91.56 25.57 90 25.57H32.73C31.16 25.57 29.89 24.29 29.89 22.73V9.48C29.89 7.91 31.17 6.64 32.73 6.64H90ZM90 5H32.73C30.25 5 28.25 7.01 28.25 9.48V22.73C28.25 25.21 30.26 27.21 32.73 27.21H90C92.48 27.21 94.48 25.2 94.48 22.73V9.48C94.48 7 92.47 5 90 5Z" fill="black"></path><path d="M29.4394 26.39C28.1494 26.39 27.1094 25.34 27.1094 24.06C27.1094 22.78 28.1594 21.73 29.4394 21.73H93.2894C94.5794 21.73 95.6194 22.78 95.6194 24.06C95.6194 25.34 94.5694 26.39 93.2894 26.39H29.4394Z" fill="#CD4C3A"></path><path d="M93.2891 22.54C94.1291 22.54 94.8091 23.22 94.8091 24.06C94.8091 24.9 94.1291 25.58 93.2891 25.58H29.4391C28.5991 25.58 27.9191 24.9 27.9191 24.06C27.9191 23.22 28.5991 22.54 29.4391 22.54H93.2891ZM93.2891 20.91H29.4391C27.6991 20.91 26.2891 22.32 26.2891 24.06C26.2891 25.8 27.6991 27.21 29.4391 27.21H93.2891C95.0291 27.21 96.4391 25.8 96.4391 24.06C96.4391 22.32 95.0291 20.91 93.2891 20.91Z" fill="black"></path><path d="M29.4394 16.78C28.1494 16.78 27.1094 15.73 27.1094 14.45C27.1094 13.17 28.1594 12.12 29.4394 12.12H93.2894C94.5794 12.12 95.6194 13.17 95.6194 14.45C95.6194 15.73 94.5694 16.78 93.2894 16.78H29.4394Z" fill="#CD4C3A"></path><path d="M93.2891 12.93C94.1291 12.93 94.8091 13.61 94.8091 14.45C94.8091 15.29 94.1291 15.97 93.2891 15.97H29.4391C28.5991 15.97 27.9191 15.29 27.9191 14.45C27.9191 13.61 28.5991 12.93 29.4391 12.93H93.2891ZM93.2891 11.29H29.4391C27.6991 11.29 26.2891 12.7 26.2891 14.44C26.2891 16.18 27.6991 17.59 29.4391 17.59H93.2891C95.0291 17.59 96.4391 16.18 96.4391 14.44C96.4391 12.7 95.0291 11.29 93.2891 11.29Z" fill="black"></path></svg>