<svg width="20" height="20" class="CartIcon_cartSvg___7pzj" viewBox="0 0 20 20" fill="none" xmlns="http://www.w3.org/2000/svg"><path d="M2.60995 9.0995C2.55108 8.51082 3.01337 8 3.60499 8H16.395C16.9866 8 17.4489 8.51082 17.39 9.0995L16.6801 16.199C16.5779 17.2214 15.7175 18 14.69 18H5.30997C4.28247 18 3.42214 17.2214 3.3199 16.199L2.60995 9.0995Z" stroke="currentColor" stroke-width="2"></path><path d="M1.5 8L18.5 8" stroke="currentColor" stroke-width="2" stroke-linecap="round"></path><line x1="10" y1="12" x2="10" y2="14" stroke="currentColor" stroke-width="2" stroke-linecap="round"></line><line x1="7" y1="12" x2="7" y2="14" stroke="currentColor" stroke-width="2" stroke-linecap="round"></line><line x1="13" y1="12" x2="13" y2="14" stroke="currentColor" stroke-width="2" stroke-linecap="round"></line><line x1="4.7875" y1="7.39411" x2="8.60184" y2="2.21249" stroke="currentColor" stroke-width="2" stroke-linecap="round"></line><line x1="1" y1="-1" x2="7.43416" y2="-1" transform="matrix(-0.592827 -0.80533 -0.80533 0.592827 15 8.79227)" stroke="currentColor" stroke-width="2" stroke-linecap="round"></line></svg>