<svg xmlns="http://www.w3.org/2000/svg" width="248" height="160" viewBox="0 0 248 160" fill="none"><g clip-path="url(#clip0_3410_2442)"><path d="M36.8061 130.188V122.902C50.2106 121.546 59.2193 118.379 65.1203 113.788C60.5597 110.538 58.0661 106.135 58.0661 101.215C58.0661 95.7036 61.1813 90.2968 66.8276 85.9909C67.3593 85.5865 67.6214 84.9201 67.4941 84.306C66.6404 80.0151 66.9549 75.9413 68.3553 72.4517C68.0108 72.1222 67.6439 71.8076 67.262 71.5006C61.3161 66.7304 51.3938 64.5737 35.5031 66.2212C35.226 66.2437 34.9789 66.2586 34.7093 66.2661C34.567 66.2661 34.4173 66.2811 34.26 66.2886C33.8481 66.3111 33.3839 66.3485 32.8971 66.4459L3.10023 69.0519L1.61001 69.1792V71.3508C1.91704 74.1141 2.01439 76.81 2.01439 79.6257V132.607C2.01439 134.037 1.91704 136.209 1.8122 138.036C1.75978 138.95 1.71485 139.766 1.66992 140.358C1.65494 140.657 1.63247 140.889 1.62499 141.054L1.61001 141.241V141.286V141.301L1.49768 142.964L3.13767 142.776C13.0974 141.653 21.2824 140.934 26.9812 140.5C29.8268 140.283 32.0509 140.133 33.5636 140.043C34.3199 139.998 34.8965 139.961 35.2859 139.946C35.4806 139.938 35.6229 139.931 35.7203 139.923H35.8326H35.8626H35.87L37.6748 139.833L37.3977 138.051C37.0008 135.513 36.8061 132.847 36.8061 130.166V130.188ZM36.8061 88.0503C39.839 88.0053 41.1944 88.7692 41.8684 89.5929C42.7071 90.6263 42.8419 92.154 42.8419 94.131C42.8419 96.1079 42.7221 97.673 41.8983 98.8487C41.2468 99.7773 39.8914 100.788 36.8061 101.275V88.0503Z" fill="#CD4C3A"></path><path d="M103.746 143.248C98.2795 143.728 93.1798 141.039 89.3981 135.67C89.0985 135.251 88.6118 135.033 88.0876 135.078C87.9827 135.086 87.8854 135.108 87.7805 135.138C86.178 135.595 84.5979 135.895 83.0927 136.029C77.8732 136.486 73.41 134.929 70.527 131.649C67.3743 128.062 66.2959 122.67 67.4941 116.477C67.6139 115.84 67.3518 115.219 66.8276 114.912C61.1813 111.594 58.066 106.734 58.066 101.223C58.066 95.7111 61.1813 90.3044 66.8276 85.9985C67.3593 85.5941 67.6214 84.9277 67.4941 84.3136C66.2959 78.3228 67.3743 72.7438 70.527 68.6027C73.41 64.8135 77.8732 62.477 83.0927 62.0202C84.6054 61.8854 86.1855 61.9154 87.788 62.0876C87.8929 62.1026 87.9902 62.1026 88.0951 62.0876C88.6118 62.0427 89.106 61.7432 89.4055 61.2714C93.1873 55.2506 98.2795 51.6636 103.754 51.1918C109.228 50.72 114.312 53.4009 118.102 58.7627C118.401 59.1821 118.888 59.3993 119.412 59.3543C119.517 59.3468 119.614 59.3244 119.719 59.2944C121.322 58.8376 122.902 58.5381 124.407 58.4033C129.626 57.9465 134.09 59.5041 136.973 62.7841C140.125 66.3711 141.204 71.7628 140.006 77.9558C139.886 78.5924 140.148 79.2139 140.672 79.5284C146.326 82.8458 149.441 87.7059 149.441 93.2175C149.441 98.729 146.326 104.136 140.672 108.442C140.14 108.846 139.878 109.513 140.006 110.127C141.196 116.11 140.125 121.689 136.973 125.83C134.09 129.612 129.626 131.948 124.414 132.405C122.909 132.54 121.329 132.51 119.734 132.338C119.629 132.323 119.532 132.323 119.427 132.338C118.91 132.382 118.416 132.682 118.117 133.154C114.335 139.182 109.235 142.762 103.769 143.241L103.746 143.248Z" fill="#FBD576"></path><path d="M205.755 99.8375C211.761 94.0413 213.393 86.6576 213.393 79.0118C213.393 71.3661 211.753 64.1995 205.762 59.3844C199.817 54.6142 189.894 52.4575 174.004 54.105C173.727 54.1274 173.479 54.1424 173.21 54.1499C173.068 54.1499 172.918 54.1649 172.761 54.1724C172.349 54.1948 171.884 54.2323 171.398 54.3296L141.601 56.9356L140.111 57.063V59.2346C140.418 61.9979 140.515 64.6938 140.515 67.5095V79.3938C140.567 79.4312 140.605 79.4836 140.665 79.5211C146.318 82.8385 149.434 87.6985 149.434 93.2101C149.434 98.7217 146.318 104.128 140.665 108.434C140.605 108.479 140.567 108.539 140.515 108.584V120.483C140.515 121.914 140.418 124.085 140.313 125.913C140.26 126.826 140.215 127.642 140.17 128.234C140.155 128.534 140.133 128.766 140.125 128.93L140.111 129.118V129.163V129.178L139.998 130.84L141.638 130.653C151.598 129.529 159.783 128.811 165.482 128.376C168.327 128.159 170.551 128.009 172.064 127.919C172.82 127.875 173.397 127.837 173.786 127.822C173.981 127.815 174.123 127.807 174.221 127.8H174.333L174.363 127.792L176.168 127.702L175.891 125.92C175.501 123.381 175.299 120.715 175.299 118.035V110.748C190.433 109.221 199.974 105.379 205.747 99.8L205.755 99.8375ZM175.299 75.9341C178.332 75.8891 179.687 76.653 180.361 77.4767C181.2 78.5101 181.335 80.0378 181.335 82.0147C181.335 83.9917 181.215 85.5568 180.391 86.7325C179.74 87.6611 178.384 88.6721 175.299 89.1588V75.9341Z" fill="#CD4C3A"></path><path d="M99.5076 149.546C100.009 149.501 100.534 149.434 101.065 149.344L92.5208 141.376C90.9258 140.141 89.4356 138.575 88.0951 136.673C86.3653 137.168 84.6953 137.482 83.1003 137.624C81.7898 137.737 80.5392 137.722 79.3485 137.609L88.9039 146.401C91.5174 148.842 95.1793 149.928 99.5151 149.546H99.5076Z" fill="#7EC7BC"></path><path d="M140.807 145.929C141.324 145.884 141.833 145.809 142.335 145.727C142.499 145.697 142.664 145.667 142.821 145.637C143.166 145.57 143.495 145.487 143.832 145.405C144.004 145.36 144.184 145.315 144.356 145.27C144.761 145.15 145.158 145.015 145.547 144.866C145.817 144.761 146.086 144.648 146.348 144.529C146.483 144.469 146.618 144.409 146.745 144.349C147.726 143.885 148.647 143.323 149.494 142.679L138.897 132.083C138.62 131.806 138.478 131.409 138.5 130.997C138.5 130.997 138.5 130.982 138.5 130.974C138.5 130.907 138.485 130.84 138.493 130.772L138.605 129.14V129.125V129.05L138.665 128.181C138.703 127.59 138.755 126.773 138.8 125.867C138.8 125.86 138.8 125.852 138.8 125.845C135.73 130.443 130.652 133.468 124.377 134.022C123.778 134.075 123.156 134.097 122.535 134.105C121.846 135.565 121.06 136.823 120.378 137.774C120.281 137.909 120.191 138.029 120.109 138.148C120.109 138.156 120.094 138.163 120.094 138.171C120.011 138.283 119.929 138.396 119.846 138.493C119.839 138.508 119.831 138.515 119.817 138.53C119.742 138.628 119.667 138.725 119.599 138.807C119.592 138.815 119.584 138.83 119.577 138.837C119.509 138.92 119.442 139.002 119.382 139.077C119.375 139.092 119.36 139.099 119.352 139.114C119.292 139.182 119.24 139.249 119.195 139.309C119.187 139.317 119.18 139.332 119.173 139.339C119.128 139.391 119.083 139.444 119.045 139.489C119.038 139.496 119.03 139.504 119.023 139.511C118.985 139.549 118.955 139.586 118.925 139.616C118.91 139.631 118.903 139.639 118.895 139.646C118.851 139.691 118.821 139.728 118.821 139.728C118.596 139.961 118.588 140.32 118.798 140.53C118.91 140.635 119.053 140.68 119.202 140.672C119.337 140.657 119.48 140.597 119.584 140.485C119.689 140.372 122.086 137.834 123.748 134.06L125.171 135.385C123.411 139.302 121.045 141.795 121.022 141.818C120.798 142.05 120.79 142.409 121 142.619C121.112 142.724 121.254 142.776 121.404 142.761C121.539 142.746 121.681 142.686 121.786 142.574C121.883 142.469 124.175 140.065 126.002 136.171L127.432 137.504C125.478 141.556 123.254 143.885 123.231 143.907C123.007 144.139 122.992 144.499 123.209 144.708C123.321 144.821 123.471 144.866 123.621 144.851C123.755 144.836 123.898 144.776 124.003 144.663C124.1 144.566 126.264 142.305 128.271 138.276L129.709 139.616C127.567 143.795 125.47 145.966 125.448 145.989C125.223 146.221 125.208 146.58 125.418 146.79C125.53 146.902 125.68 146.947 125.83 146.932C125.965 146.917 126.099 146.858 126.212 146.753C126.302 146.663 128.353 144.544 130.533 140.38L131.978 141.728C129.641 146.041 127.687 148.048 127.664 148.071C127.44 148.303 127.425 148.662 127.627 148.872C127.739 148.984 127.889 149.029 128.039 149.022C128.174 149.007 128.309 148.947 128.413 148.842C128.496 148.76 130.428 146.783 132.787 142.492L134.239 143.847C131.252 148.805 129.904 150.138 129.889 150.152C129.656 150.377 129.626 150.729 129.829 150.954C129.941 151.074 130.098 151.126 130.256 151.119C130.383 151.104 130.51 151.051 130.615 150.954C130.66 150.916 131.416 150.182 133.034 147.771C133.086 147.681 133.146 147.606 133.199 147.517C133.206 147.502 133.221 147.487 133.236 147.464C133.76 146.678 134.352 145.742 135.048 144.604L136.074 145.555C136.179 145.652 136.261 145.764 136.329 145.877C136.366 145.877 136.396 145.877 136.434 145.877C137.931 146.041 139.407 146.064 140.814 145.944L140.807 145.929Z" fill="#7EC7BC"></path><path d="M198.469 122.146C198.424 121.839 198.147 121.644 197.84 121.719C194.35 122.498 190.418 123.082 186.15 123.471C186.068 123.471 185.993 123.501 185.925 123.546L184.106 121.726C188.105 121.337 191.819 120.775 195.136 120.034C195.443 119.967 195.66 119.667 195.616 119.36C195.578 119.053 195.294 118.858 194.986 118.933C191.497 119.712 187.558 120.296 183.297 120.686C183.229 120.686 183.17 120.715 183.117 120.738L181.312 118.933C185.289 118.544 188.988 117.982 192.283 117.248C192.59 117.181 192.807 116.874 192.762 116.574C192.725 116.267 192.44 116.073 192.133 116.147C188.644 116.926 184.712 117.51 180.444 117.9C180.399 117.9 180.354 117.922 180.309 117.937L178.512 116.14C182.466 115.751 186.143 115.189 189.43 114.463C189.737 114.395 189.954 114.096 189.909 113.789C189.872 113.482 189.587 113.287 189.28 113.362C185.791 114.141 181.852 114.725 177.591 115.114C177.561 115.114 177.538 115.129 177.508 115.137L176.804 114.433V118.087C176.804 118.739 176.819 119.383 176.842 120.027C176.917 121.944 177.096 123.816 177.373 125.628L177.591 127.043L179.598 129.05C176.887 129.215 174.243 129.387 171.63 129.589C171.323 129.619 171.076 129.889 171.068 130.196C171.068 130.51 171.315 130.743 171.622 130.72C174.58 130.488 177.568 130.293 180.661 130.114L182.323 131.776C179.665 131.933 177.081 132.113 174.513 132.308C174.206 132.338 173.959 132.607 173.951 132.914C173.951 133.229 174.198 133.461 174.505 133.439C177.418 133.214 180.346 133.019 183.387 132.839L185.049 134.502C182.436 134.659 179.897 134.831 177.396 135.026C177.089 135.056 176.842 135.326 176.834 135.633C176.834 135.947 177.081 136.179 177.388 136.157C180.234 135.94 183.117 135.745 186.12 135.565L187.783 137.228C185.229 137.385 182.758 137.55 180.286 137.744C179.979 137.774 179.732 138.044 179.725 138.351C179.725 138.666 179.972 138.898 180.279 138.875C183.095 138.658 185.918 138.471 188.853 138.299L189.071 138.516C188.898 136.778 188.808 135.011 188.808 133.214V126.422L186.921 124.535C190.943 124.145 194.679 123.576 198.004 122.835C198.311 122.767 198.529 122.46 198.484 122.161L198.469 122.146Z" fill="#7EC7BC"></path><path d="M183.155 140.448C182.848 140.478 182.6 140.747 182.593 141.054C182.593 141.369 182.84 141.601 183.147 141.578C185.229 141.421 187.281 141.279 189.378 141.144C189.325 140.777 189.273 140.403 189.228 140.028C187.191 140.156 185.191 140.298 183.162 140.455L183.155 140.448Z" fill="#7EC7BC"></path><path d="M187.056 110.988C187.019 110.718 186.787 110.546 186.524 110.553H186.509C183.529 111.22 180.294 111.744 176.804 112.141V113.212C180.324 112.83 183.619 112.321 186.577 111.662C186.884 111.594 187.101 111.287 187.056 110.988Z" fill="#7EC7BC"></path><path d="M50.8771 153.26C50.8247 152.893 50.7723 152.519 50.7273 152.145C48.6904 152.272 46.691 152.414 44.6616 152.571C44.3546 152.601 44.1075 152.871 44.1 153.178C44.1 153.492 44.3471 153.725 44.6541 153.702C46.7359 153.545 48.7878 153.403 50.8846 153.268L50.8771 153.26Z" fill="#7EC7BC"></path><path d="M59.3391 133.835C55.8495 134.614 51.918 135.198 47.6495 135.587C47.5672 135.587 47.4923 135.617 47.4249 135.662L45.6052 133.843C49.604 133.453 53.3183 132.892 56.6358 132.15C56.9428 132.083 57.16 131.783 57.115 131.476C57.0776 131.169 56.793 130.975 56.486 131.049C52.9963 131.828 49.0574 132.412 44.7964 132.802C44.729 132.802 44.6691 132.832 44.6167 132.854L42.8119 131.049C46.7883 130.66 50.4877 130.098 53.7826 129.365C54.0897 129.297 54.3068 128.99 54.2619 128.691C54.2245 128.384 53.9399 128.189 53.6329 128.264C50.1432 129.043 46.2117 129.627 41.9433 130.016C41.8983 130.016 41.8534 130.038 41.8085 130.053L40.0112 128.256C43.9652 127.867 47.642 127.305 50.9295 126.579C51.2365 126.511 51.4537 126.212 51.4088 125.905C51.3713 125.598 51.0868 125.403 50.7797 125.478C47.2901 126.257 43.3511 126.841 39.0901 127.23C39.0602 127.23 39.0302 127.245 39.0078 127.253L38.3038 126.549V130.203C38.3038 130.855 38.3188 131.499 38.3413 132.143C38.4162 134.06 38.5959 135.932 38.873 137.744L39.0901 139.16L41.0971 141.166C38.3862 141.331 35.7428 141.503 33.1293 141.706C32.8222 141.736 32.5751 142.005 32.5676 142.312C32.5676 142.627 32.8147 142.859 33.1218 142.836C36.0797 142.604 39.0677 142.41 42.1604 142.23L43.8229 143.892C41.1645 144.05 38.5809 144.229 36.0124 144.424C35.7053 144.454 35.4582 144.723 35.4507 145.031C35.4507 145.345 35.6978 145.577 36.0049 145.555C38.9179 145.33 41.8459 145.135 44.8863 144.956L46.5487 146.618C43.9352 146.775 41.3966 146.948 38.8954 147.142C38.5884 147.172 38.3413 147.442 38.3338 147.749C38.3338 148.063 38.5809 148.296 38.8879 148.273C41.7336 148.056 44.6167 147.861 47.6196 147.681L49.282 149.344C46.7284 149.501 44.2572 149.666 41.786 149.861C41.479 149.891 41.2319 150.16 41.2244 150.467C41.2244 150.782 41.4715 151.014 41.7785 150.991C44.5942 150.774 47.4174 150.587 50.3529 150.415L50.5701 150.632C50.3978 148.895 50.308 147.127 50.308 145.33V138.538L48.4209 136.651C52.4422 136.261 56.179 135.692 59.5039 134.951C59.8109 134.884 60.0281 134.577 59.9831 134.277C59.9382 133.97 59.6611 133.775 59.3541 133.85L59.3391 133.835Z" fill="#7EC7BC"></path><path d="M48.5556 123.104C48.5182 122.834 48.286 122.662 48.0239 122.67H48.009C45.0285 123.336 41.7935 123.86 38.3038 124.257V125.321C41.8234 124.939 45.1184 124.429 48.0764 123.77C48.3834 123.703 48.6006 123.396 48.5556 123.097V123.104Z" fill="#7EC7BC"></path><path d="M120.124 132.382C118.693 135.415 116.626 137.617 116.604 137.639C116.379 137.871 116.372 138.231 116.589 138.441C116.701 138.545 116.844 138.59 116.993 138.583C117.136 138.568 117.27 138.508 117.383 138.396C117.488 138.283 119.764 135.857 121.284 132.472C120.902 132.457 120.513 132.427 120.131 132.39L120.124 132.382Z" fill="#7EC7BC"></path><path fill-rule="evenodd" clip-rule="evenodd" d="M132.113 99.7847C130.368 97.7328 128.054 96.5422 125.246 96.2426C124.22 96.1378 123.231 96.8941 123.029 97.95C122.834 98.9984 123.501 99.9419 124.527 100.047C124.729 100.069 124.924 100.099 125.111 100.137C122.909 102.96 115.466 111.107 102.301 112.261C89.0237 113.421 81.67 106.592 79.4759 104.136C79.6706 104.068 79.8653 104.001 80.0749 103.941C81.1009 103.649 81.7748 102.593 81.5727 101.582C81.3779 100.563 80.3895 99.9794 79.356 100.264C76.5404 101.058 74.2339 102.653 72.4891 105.012C71.8376 105.888 71.9723 107.079 72.7886 107.663C73.1331 107.91 73.5524 108.015 73.9643 107.977C74.5184 107.932 75.0726 107.633 75.4395 107.131C75.6567 106.839 75.8889 106.569 76.1285 106.315C78.1504 108.741 86.56 117.45 102.293 116.072C118.027 114.694 126.444 104.51 128.458 101.732C128.698 101.941 128.93 102.174 129.147 102.428C129.522 102.87 130.068 103.065 130.623 103.012C131.034 102.975 131.454 102.803 131.798 102.496C132.614 101.769 132.749 100.556 132.098 99.7922L132.113 99.7847Z" fill="black"></path><path fill-rule="evenodd" clip-rule="evenodd" d="M113.137 91.5547C115.541 91.345 117.503 87.7281 117.503 83.5345C117.503 79.3409 115.541 76.0684 113.137 76.2781C110.733 76.4878 108.771 80.0673 108.771 84.2983C108.771 88.5293 110.733 91.7644 113.137 91.5547Z" fill="black"></path><path fill-rule="evenodd" clip-rule="evenodd" d="M91.3602 93.4644C93.764 93.2547 95.726 89.6377 95.726 85.4441C95.726 81.2506 93.764 77.9781 91.3602 78.1878C88.9564 78.3974 86.9944 81.977 86.9944 86.208C86.9944 90.439 88.9564 93.674 91.3602 93.4644Z" fill="black"></path><path d="M175.277 74.4362C174.46 74.4511 173.801 75.1176 173.801 75.9339V89.1586C173.801 89.593 173.996 90.0123 174.326 90.2969C174.595 90.529 174.947 90.6563 175.299 90.6563C175.374 90.6563 175.456 90.6563 175.531 90.6413C178.519 90.1696 180.504 89.1736 181.612 87.5935C182.735 85.9985 182.825 84.044 182.825 82.0146C182.825 79.9852 182.728 78.0232 181.515 76.533C180.331 75.0727 178.287 74.3912 175.269 74.4362H175.277Z" fill="black"></path><path d="M36.7837 86.5524C35.9675 86.5674 35.3085 87.2338 35.3085 88.0501V101.275C35.3085 101.709 35.5032 102.129 35.8327 102.413C36.1023 102.645 36.4542 102.773 36.8062 102.773C36.8811 102.773 36.9634 102.773 37.0383 102.758C40.0262 102.286 42.0107 101.29 43.119 99.7097C44.2348 98.1147 44.3322 96.1602 44.3322 94.1308C44.3322 92.1014 44.2348 90.1394 43.0217 88.6492C41.8385 87.1889 39.7941 86.5074 36.7762 86.5524H36.7837Z" fill="black"></path><path d="M229.838 92.2664C229.576 84.2237 227.284 78.2853 222.881 74.1741L222.731 74.0243C222.731 74.0243 222.672 73.9644 222.657 73.9494C222.627 73.9194 222.597 73.8895 222.582 73.8745L222.507 73.7996C222.507 73.7996 222.447 73.7397 222.424 73.7173L221.458 72.7512C221.458 72.7512 221.398 72.6913 221.384 72.6764L220.335 71.628C220.335 71.628 220.275 71.568 220.26 71.5531L219.212 70.5047C219.212 70.5047 219.152 70.4448 219.137 70.4298L218.089 69.3814C218.089 69.3814 218.029 69.3215 218.014 69.3065C217.984 69.2766 217.954 69.2466 217.939 69.2316L217.864 69.1567C217.864 69.1567 217.804 69.0968 217.782 69.0744L216.816 68.1083C216.816 68.1083 216.756 68.0484 216.741 68.0335L215.692 66.9851C215.692 66.9851 215.632 66.9252 215.617 66.9102L214.644 65.9367C214.644 65.9367 214.584 65.8768 214.569 65.8618C214.539 65.8318 214.509 65.8019 214.494 65.7869L214.419 65.712C214.419 65.712 214.359 65.6521 214.337 65.6296L213.446 64.7385C213.446 64.7385 213.386 64.6786 213.371 64.6636C213.341 64.6337 213.311 64.6037 213.296 64.5887L212.322 63.6152C212.322 63.6152 212.262 63.5553 212.247 63.5403L212.098 63.3906C212.098 63.3906 212.038 63.3307 212.015 63.3082L210.974 62.2673C210.974 62.2673 210.915 62.2074 210.892 62.1849L210.001 61.2938C210.001 61.2938 209.941 61.2339 209.926 61.2189C209.896 61.1889 209.866 61.159 209.851 61.144L208.728 60.0207C208.728 60.0207 208.668 59.9608 208.653 59.9458C208.466 59.7437 208.264 59.5489 208.069 59.3617C208.054 59.3468 208.046 59.3393 208.039 59.3318C208.024 59.3168 208.009 59.3093 208.002 59.2943C207.927 59.2269 207.844 59.1745 207.754 59.1296C207.417 58.8151 207.065 58.5155 206.706 58.2235C200.019 52.8542 189.273 51.027 173.884 52.6221C173.629 52.6445 173.397 52.652 173.135 52.667L172.678 52.6895C172.251 52.7119 171.742 52.7494 171.195 52.8542L139.983 55.5875C139.212 55.6549 138.613 56.3064 138.613 57.0777V59.1745C138.613 59.2269 138.613 59.2794 138.62 59.3243V59.4142C138.725 60.3203 138.8 61.2488 138.86 62.1999C138.321 61.7056 137.782 61.2039 137.235 60.7097C137.145 60.6273 137.055 60.5524 136.965 60.4775C136.95 60.4626 136.943 60.4551 136.928 60.4401C136.703 60.2379 136.471 60.0507 136.231 59.8635C136.224 59.8635 136.216 59.8485 136.201 59.841C135.453 59.2719 134.644 58.7701 133.783 58.3508C133.753 58.3358 133.723 58.3208 133.693 58.3133C133.446 58.1935 133.191 58.0812 132.936 57.9764C132.877 57.9539 132.817 57.9314 132.757 57.9015C132.525 57.8116 132.285 57.7218 132.038 57.6394C131.97 57.6169 131.903 57.5944 131.836 57.572C131.581 57.4896 131.319 57.4147 131.049 57.3398C131.004 57.3249 130.959 57.3099 130.907 57.3024C130.278 57.1376 129.627 57.0103 128.96 56.9205C128.87 56.9055 128.773 56.898 128.675 56.883C128.436 56.8531 128.204 56.8306 127.957 56.8081C127.837 56.8007 127.717 56.7932 127.597 56.7857C127.372 56.7707 127.148 56.7632 126.923 56.7557C126.796 56.7557 126.669 56.7482 126.534 56.7482C126.302 56.7482 126.062 56.7482 125.822 56.7482C125.703 56.7482 125.583 56.7482 125.463 56.7557C125.133 56.7707 124.804 56.7857 124.467 56.8156C124.437 56.8156 124.414 56.8156 124.385 56.8156C124.325 56.8156 124.257 56.8306 124.19 56.8381C123.89 56.8681 123.583 56.898 123.276 56.9429C122.999 56.9804 122.722 57.0253 122.445 57.0777C122.363 57.0927 122.273 57.1002 122.19 57.1227C121.846 57.1826 121.501 57.2575 121.149 57.3323C121.135 57.3323 121.12 57.3323 121.112 57.3398C120.745 57.4222 120.371 57.5121 119.996 57.6094C118.656 56.3738 117.315 55.1457 115.975 53.9101C115.952 53.8876 115.922 53.8652 115.893 53.8427C115.645 53.6255 115.391 53.4158 115.136 53.2137C115.046 53.1388 114.956 53.0714 114.859 53.004C114.657 52.8467 114.455 52.7044 114.253 52.5547C114.163 52.4873 114.073 52.4274 113.975 52.36C113.691 52.1653 113.406 51.978 113.114 51.8058C113.092 51.7908 113.069 51.7759 113.039 51.7684C112.77 51.6111 112.493 51.4613 112.223 51.3191C112.126 51.2666 112.028 51.2217 111.931 51.1768C111.714 51.0719 111.504 50.9671 111.287 50.8772C111.19 50.8323 111.092 50.7949 110.995 50.7499C110.696 50.6226 110.388 50.5028 110.089 50.398C110.066 50.398 110.051 50.383 110.029 50.3755C109.737 50.2781 109.445 50.1883 109.153 50.1059C109.056 50.076 108.958 50.0535 108.861 50.031C108.636 49.9711 108.404 49.9187 108.179 49.8738C108.082 49.8513 107.985 49.8288 107.887 49.8139C107.573 49.7539 107.258 49.7015 106.944 49.6641C106.936 49.6641 106.921 49.6641 106.914 49.6641C106.607 49.6266 106.292 49.6042 105.985 49.5817C105.888 49.5817 105.791 49.5742 105.693 49.5667C105.454 49.5592 105.221 49.5518 104.982 49.5518C104.884 49.5518 104.787 49.5518 104.697 49.5518C104.375 49.5592 104.053 49.5742 103.731 49.6042C103.372 49.6341 103.02 49.6791 102.66 49.7315C97.306 50.5702 92.0341 54.1947 88.0801 60.5C86.3428 60.3053 84.6728 60.2828 83.0778 60.4251C82.6734 60.4626 82.269 60.5075 81.8721 60.5674C81.7448 60.5824 81.6175 60.6123 81.4902 60.6273C81.2206 60.6722 80.9585 60.7172 80.6889 60.7696C80.5467 60.7995 80.4044 60.8295 80.2621 60.8594C80.015 60.9119 79.7753 60.9718 79.5357 61.0317C79.3934 61.0691 79.2511 61.1066 79.1089 61.144C78.8692 61.2114 78.6371 61.2788 78.4049 61.3537C78.2701 61.3986 78.1428 61.4361 78.008 61.481C77.7609 61.5634 77.5213 61.6532 77.2817 61.7506C77.1693 61.7955 77.0645 61.833 76.9522 61.8779C76.6676 61.9902 76.3905 62.1175 76.1209 62.2373C76.061 62.2673 75.9936 62.2898 75.9337 62.3197C75.2448 62.6492 74.5783 63.0161 73.9418 63.4205C73.9193 63.4355 73.9043 63.4505 73.8819 63.458C73.5898 63.6452 73.3053 63.8399 73.0282 64.0421C72.9832 64.0795 72.9383 64.1095 72.8859 64.1469C72.6313 64.3341 72.3842 64.5288 72.1445 64.7235C72.0921 64.761 72.0472 64.8059 72.0023 64.8433C71.7626 65.0455 71.523 65.2552 71.2983 65.4649C71.2609 65.5023 71.2234 65.5398 71.186 65.5697C70.9389 65.8019 70.6992 66.049 70.4671 66.2961C70.4521 66.3111 70.4371 66.3261 70.4222 66.341C69.3962 67.4419 68.5126 68.6775 67.7862 70.0254C61.0765 64.8883 50.4577 63.1509 35.3534 64.716C35.0988 64.7385 34.8666 64.746 34.6045 64.761L34.1477 64.7834C33.7209 64.8059 33.2116 64.8433 32.665 64.9482L1.45278 67.6815C0.681457 67.7489 0.0823739 68.4004 0.0823739 69.1717V71.2685C0.0823739 71.3209 0.0823739 71.3733 0.0898624 71.4183V71.5081C0.366938 73.9719 0.486755 76.5554 0.486755 79.6257V132.607C0.486755 133.76 0.419358 135.565 0.292053 137.954C0.239633 138.86 0.194702 139.676 0.157259 140.268L0.0973509 141.137V141.211V141.226L0 142.881C0 142.949 0 143.016 0.00748853 143.084C0.00748853 143.084 0.00748853 143.099 0.00748853 143.106C-0.0224656 143.525 0.119817 143.915 0.404381 144.192L15.0819 158.869C15.0819 158.869 15.1044 158.892 15.1193 158.907C15.1343 158.922 15.1568 158.944 15.1718 158.959C15.1718 158.959 15.1867 158.974 15.1942 158.974C15.2092 158.997 15.2317 159.012 15.2467 159.034C15.2467 159.034 15.2616 159.049 15.2691 159.057C15.2841 159.072 15.3066 159.094 15.3215 159.109C15.6136 159.394 16.003 159.543 16.4373 159.476C32.2306 157.716 41.3592 156.93 52.5995 156.346C52.6144 156.346 52.6369 156.346 52.6519 156.346C53.0787 156.308 53.4831 156.091 53.7677 155.747C54.0597 155.387 54.1945 154.923 54.1271 154.489L53.85 152.714C53.4681 150.258 53.2809 147.681 53.2809 145.053V139.242C53.3932 139.227 53.4981 139.212 53.6029 139.204C54.3218 139.122 55.0332 139.032 55.7372 138.935C55.812 138.927 55.8794 138.912 55.9543 138.905C62.0425 138.066 67.277 136.801 71.7252 135.078C76.7125 139.661 81.6924 144.252 86.6798 148.835C89.7875 151.733 94.2282 153.178 99.5151 152.714C100.908 152.594 102.361 152.332 103.858 151.935L103.978 152.047L104.001 152.025C104.001 152.025 104.046 152.07 104.068 152.085L104.046 152.115L104.36 152.414L104.39 152.384C104.39 152.384 104.435 152.429 104.458 152.444L104.435 152.474L104.757 152.774L104.787 152.744C104.787 152.744 104.832 152.789 104.854 152.804L104.824 152.834L105.146 153.133L105.176 153.096C105.176 153.096 105.221 153.141 105.244 153.156L105.214 153.193L105.528 153.493L105.566 153.455C105.566 153.455 105.611 153.5 105.633 153.515L105.603 153.553L105.918 153.852L105.955 153.815C105.955 153.815 106 153.852 106.023 153.875L105.985 153.919L106.21 154.129C106.652 154.548 107.108 154.938 107.573 155.305C107.685 155.41 107.805 155.515 107.917 155.627C111.579 158.892 115.87 160.307 120.161 159.933C125.882 159.431 131.596 155.754 135.82 149.022C137.549 149.217 139.219 149.232 140.807 149.097C145.06 148.722 148.767 147.21 151.665 144.843L153.575 146.753C153.575 146.753 153.597 146.775 153.612 146.79C153.627 146.805 153.65 146.828 153.665 146.843C153.665 146.843 153.68 146.858 153.687 146.858C153.702 146.88 153.725 146.895 153.74 146.918C153.74 146.918 153.755 146.933 153.762 146.94C153.777 146.955 153.799 146.978 153.814 146.993C154.107 147.27 154.496 147.427 154.93 147.359C170.724 145.6 179.852 144.813 191.092 144.229C191.107 144.229 191.13 144.229 191.145 144.229C191.572 144.192 191.976 143.975 192.261 143.63C192.553 143.271 192.687 142.806 192.62 142.372L192.343 140.597C191.961 138.141 191.774 135.565 191.774 132.937V127.125C191.886 127.11 191.991 127.096 192.096 127.088C192.815 127.006 193.526 126.916 194.23 126.818C194.305 126.811 194.372 126.796 194.447 126.788C207.028 125.059 215.999 121.494 221.773 115.915C227.299 110.576 229.868 103.619 229.868 94.0112C229.868 93.4196 229.853 92.843 229.838 92.2664ZM44.6466 153.695C44.3396 153.717 44.0925 153.485 44.0925 153.171C44.0925 152.864 44.3471 152.594 44.6541 152.564C46.6835 152.407 48.683 152.272 50.7198 152.137C50.7648 152.512 50.8172 152.886 50.8696 153.253C48.7728 153.388 46.721 153.53 44.6391 153.687L44.6466 153.695ZM59.4889 134.936C56.1565 135.677 52.4272 136.247 48.4059 136.636L50.293 138.523V145.315C50.293 147.112 50.3903 148.88 50.5551 150.617L50.3379 150.4C47.4024 150.572 44.5792 150.759 41.7635 150.976C41.4565 150.999 41.2094 150.767 41.2094 150.452C41.2094 150.145 41.464 149.876 41.771 149.846C44.2423 149.658 46.7135 149.486 49.2671 149.329L47.6046 147.667C44.6017 147.839 41.7186 148.033 38.873 148.258C38.5659 148.281 38.3188 148.048 38.3188 147.734C38.3188 147.427 38.5734 147.157 38.8805 147.127C41.3816 146.933 43.9202 146.76 46.5337 146.603L44.8713 144.941C41.8309 145.113 38.8954 145.315 35.9899 145.54C35.6829 145.562 35.4357 145.33 35.4357 145.016C35.4357 144.709 35.6903 144.439 35.9974 144.409C38.5585 144.214 41.1495 144.035 43.8079 143.877L42.1455 142.215C39.0452 142.395 36.0648 142.589 33.1068 142.821C32.7998 142.844 32.5527 142.612 32.5527 142.297C32.5527 141.99 32.8073 141.721 33.1143 141.691C35.7278 141.488 38.3638 141.309 41.0821 141.152L39.0752 139.145L38.858 137.729C38.5809 135.917 38.4012 134.037 38.3263 132.128C38.3038 131.484 38.2889 130.84 38.2889 130.188V126.534L38.9928 127.238C38.9928 127.238 39.0452 127.215 39.0752 127.215C43.3361 126.826 47.2676 126.242 50.7648 125.463C51.0718 125.388 51.3564 125.59 51.3938 125.89C51.4387 126.197 51.2216 126.496 50.9145 126.564C47.6271 127.29 43.9502 127.852 39.9963 128.241L41.7935 130.039C41.8384 130.024 41.8759 130.001 41.9283 130.001C46.1968 129.612 50.1282 129.028 53.6179 128.249C53.9249 128.174 54.2095 128.376 54.2469 128.676C54.2844 128.983 54.0747 129.282 53.7677 129.35C50.4652 130.083 46.7734 130.645 42.797 131.034L44.6017 132.839C44.6616 132.817 44.7215 132.794 44.7814 132.787C49.0424 132.397 52.9739 131.813 56.471 131.034C56.7781 130.96 57.0551 131.162 57.1001 131.461C57.1375 131.768 56.9278 132.068 56.6208 132.135C53.3034 132.869 49.5891 133.438 45.5902 133.828L47.4099 135.647C47.4773 135.61 47.5522 135.58 47.6346 135.573C51.903 135.183 55.8345 134.599 59.3242 133.82C59.6312 133.753 59.9083 133.94 59.9532 134.247C59.9981 134.554 59.781 134.854 59.4739 134.921L59.4889 134.936ZM38.3038 125.328V124.265C41.7935 123.868 45.0285 123.336 48.009 122.677H48.024C48.2861 122.662 48.5182 122.835 48.5556 123.112C48.5931 123.419 48.3834 123.718 48.0764 123.786C45.1184 124.445 41.8235 124.954 38.3038 125.336V125.328ZM36.6564 121.412C35.93 121.487 35.3683 122.078 35.3159 122.797C35.3159 122.82 35.3159 122.835 35.3159 122.857C35.3159 122.872 35.3159 122.887 35.3159 122.902V130.188C35.3159 130.907 35.3309 131.626 35.3609 132.345C35.4357 134.427 35.623 136.471 35.93 138.441H35.8027C35.8027 138.441 35.7727 138.441 35.7577 138.448L35.2111 138.478C34.8217 138.501 34.2451 138.531 33.4812 138.575C32.1333 138.658 29.8867 138.808 26.8763 139.032C21.7018 139.429 13.3895 140.141 3.13021 141.301L3.18263 140.478C3.22007 139.886 3.27249 139.062 3.32491 138.141C3.4597 135.692 3.5271 133.835 3.5271 132.63V79.6482C3.5271 76.4655 3.39979 73.7847 3.12272 71.2161V70.5646L33.0469 67.9436C33.0993 67.9436 33.1517 67.9286 33.2116 67.9211C33.6085 67.8388 34.0054 67.8088 34.3724 67.7938L34.7992 67.7714C35.0913 67.7564 35.3609 67.7414 35.6829 67.7189C50.278 66.2063 60.3052 67.8313 66.3484 72.6764C66.4308 72.7437 66.5057 72.8111 66.588 72.8785C66.4383 73.3054 66.3035 73.7472 66.1911 74.189C66.1911 74.1965 66.1911 74.2115 66.1837 74.219C65.9515 75.1026 65.7718 76.0237 65.652 76.9673C65.652 77.0122 65.6445 77.0571 65.637 77.1021C65.5846 77.5139 65.5546 77.9333 65.5247 78.3527C65.5247 78.4275 65.5172 78.4949 65.5097 78.5698C65.4648 79.4984 65.4722 80.442 65.5396 81.4155C65.5471 81.5353 65.5621 81.6551 65.5696 81.7749C65.5995 82.1419 65.637 82.5088 65.6894 82.8832C65.7044 83.018 65.7194 83.1528 65.7418 83.2876C65.8092 83.7744 65.8916 84.2611 65.989 84.7479C65.637 85.0175 65.3 85.287 64.963 85.5641C64.8807 85.6315 64.8058 85.6989 64.7234 85.7663C64.4763 85.976 64.2366 86.1857 63.997 86.3953C63.8922 86.4927 63.7873 86.59 63.6825 86.6874C63.4803 86.8746 63.2781 87.0618 63.0909 87.249C62.9786 87.3614 62.8737 87.4662 62.7689 87.5785C62.5966 87.7583 62.4169 87.938 62.2447 88.1177C62.1324 88.2375 62.035 88.3573 61.9302 88.4697C61.7729 88.6494 61.6082 88.8216 61.4584 89.0014C61.3536 89.1212 61.2562 89.2485 61.1589 89.3683C61.0166 89.548 60.8668 89.7277 60.732 89.9C60.6347 90.0273 60.5448 90.1471 60.4549 90.2744C60.3201 90.4541 60.1853 90.6339 60.058 90.8136C59.9682 90.9409 59.8933 91.0607 59.8034 91.188C59.6836 91.3752 59.5563 91.5549 59.4365 91.7422C59.3616 91.862 59.2867 91.9893 59.2118 92.1166C59.0995 92.3038 58.9872 92.4985 58.8823 92.6857C58.8149 92.8055 58.755 92.9328 58.6876 93.0527C58.5828 93.2474 58.478 93.4421 58.3881 93.6368C58.3282 93.7566 58.2758 93.8764 58.2233 93.9962C58.126 94.1984 58.0361 94.4006 57.9538 94.6028C57.9013 94.7151 57.8639 94.8349 57.8115 94.9473C57.7291 95.1569 57.6467 95.3591 57.5718 95.5688C57.5344 95.6811 57.497 95.7934 57.4595 95.8983C57.3846 96.108 57.3172 96.3251 57.2498 96.5348C57.2199 96.6397 57.1899 96.7445 57.16 96.8493C57.1001 97.0665 57.0402 97.2912 56.9877 97.5083C56.9653 97.6057 56.9428 97.7105 56.9203 97.8079C56.8679 98.0325 56.823 98.2572 56.7855 98.4893C56.7706 98.5792 56.7556 98.6765 56.7406 98.7664C56.7032 98.9985 56.6657 99.2307 56.6433 99.4703C56.6358 99.5527 56.6283 99.6426 56.6133 99.7249C56.5908 99.9646 56.5684 100.204 56.5534 100.444C56.5534 100.519 56.5459 100.601 56.5459 100.676C56.5384 100.923 56.5309 101.17 56.5309 101.417C56.5309 101.485 56.5309 101.56 56.5309 101.627C56.5309 101.882 56.5459 102.136 56.5609 102.391C56.5609 102.451 56.5684 102.511 56.5759 102.578C56.5983 102.84 56.6208 103.102 56.6582 103.364C56.6582 103.417 56.6732 103.469 56.6807 103.522C56.7182 103.791 56.7631 104.061 56.8155 104.323C56.823 104.368 56.8305 104.413 56.8455 104.458C56.9054 104.735 56.9653 105.004 57.0402 105.281C57.0476 105.319 57.0551 105.349 57.0701 105.386C57.145 105.671 57.2274 105.948 57.3247 106.225C57.3322 106.247 57.3397 106.277 57.3472 106.3C57.4445 106.584 57.5494 106.869 57.6617 107.154C57.6617 107.169 57.6767 107.184 57.6767 107.198C57.7965 107.491 57.9238 107.783 58.0586 108.067C58.0586 108.067 58.0586 108.082 58.0661 108.09C58.9497 109.924 60.2078 111.654 61.8478 113.219C62.0724 113.421 62.2896 113.624 62.5143 113.833C56.5759 117.765 48.0614 120.258 36.6788 121.412H36.6564ZM99.5076 149.546C95.1718 149.928 91.5099 148.842 88.8964 146.401L79.341 137.609C80.5392 137.722 81.7898 137.737 83.0928 137.624C84.6878 137.482 86.3578 137.175 88.0876 136.673C89.4281 138.575 90.9183 140.141 92.5133 141.376L101.058 149.344C100.526 149.434 100.002 149.501 99.5001 149.546H99.5076ZM103.746 141.661C98.8187 142.095 94.1833 139.609 90.7086 134.674C90.117 133.835 89.1285 133.401 88.0876 133.491C87.8854 133.506 87.6832 133.543 87.4736 133.603C85.9684 134.037 84.4931 134.314 83.0928 134.434C78.3825 134.846 74.3836 133.476 71.8001 130.585C71.7177 130.488 71.6353 130.39 71.5529 130.293C71.4631 130.188 71.3732 130.083 71.2908 129.971C71.216 129.874 71.1411 129.769 71.0737 129.672C70.9838 129.544 70.8865 129.417 70.8041 129.282C70.7517 129.2 70.6992 129.117 70.6543 129.035C70.557 128.878 70.4521 128.713 70.3623 128.548C70.3398 128.503 70.3098 128.451 70.2874 128.406C69.6583 127.238 69.194 125.935 68.917 124.512C68.8795 124.302 68.8496 124.1 68.8121 123.89C68.7972 123.778 68.7747 123.673 68.7597 123.561C68.7372 123.411 68.7298 123.261 68.7073 123.112C68.6848 122.932 68.6699 122.76 68.6549 122.58C68.6474 122.475 68.6399 122.363 68.6324 122.258C68.6174 122.026 68.6025 121.794 68.6025 121.554C68.6025 121.487 68.6025 121.419 68.6025 121.352C68.6025 121.067 68.6025 120.783 68.6025 120.491C68.6025 120.461 68.6025 120.431 68.6025 120.393C68.6399 119.36 68.7447 118.289 68.9394 117.188C68.9394 117.188 68.9394 117.173 68.9394 117.166C68.9694 116.986 68.9993 116.814 69.0293 116.634C69.2764 115.354 68.7447 114.118 67.6889 113.496C66.4757 112.785 65.3899 111.991 64.4388 111.137L64.0644 110.793C64.0644 110.793 64.0569 110.785 64.0494 110.778C61.3161 108.172 59.7959 104.959 59.6462 101.575C59.6462 101.447 59.6312 101.312 59.6312 101.185C59.6312 101.058 59.6312 100.931 59.6312 100.811C59.6312 100.646 59.6387 100.481 59.6462 100.324C59.6537 100.197 59.6611 100.069 59.6761 99.9421C59.6911 99.8073 59.7061 99.6725 59.7211 99.5377C59.7435 99.358 59.766 99.1783 59.7959 98.9985C59.8109 98.9162 59.8259 98.8338 59.8409 98.7514C59.8858 98.5268 59.9232 98.2946 59.9757 98.07C60.6347 95.2767 62.1848 92.5509 64.5137 90.0797C64.5212 90.0722 64.5362 90.0572 64.5437 90.0497C64.7608 89.8251 64.978 89.6004 65.2102 89.3758C65.2626 89.3234 65.3225 89.2709 65.3824 89.211C65.5771 89.0238 65.7718 88.8441 65.974 88.6569C66.0938 88.552 66.2211 88.4472 66.3409 88.3349C66.4907 88.2001 66.6405 88.0728 66.7977 87.938C67.0823 87.7058 67.3743 87.4662 67.6739 87.2415C67.6739 87.2415 67.6814 87.2341 67.6889 87.2266C67.7188 87.2041 67.7488 87.1741 67.7712 87.1517C68.7672 86.3429 69.2614 85.0549 69.0218 83.8567C68.55 81.5128 68.4602 79.2513 68.7223 77.132C68.7447 76.9448 68.7747 76.7576 68.8046 76.5779C68.8795 76.0761 68.9769 75.5894 69.0892 75.1101C69.1866 74.7132 69.2989 74.3238 69.4262 73.9419C69.5161 73.6723 69.6059 73.4027 69.7108 73.1406C70.22 71.8227 70.8865 70.602 71.7252 69.5012C74.3012 66.1164 78.3301 64.0196 83.0703 63.6077C84.4781 63.4879 85.9534 63.5104 87.4586 63.6751C87.6608 63.6976 87.8705 63.6976 88.0726 63.6751C89.0237 63.5928 89.9298 63.0761 90.5289 62.2673C90.5813 62.1924 90.6412 62.1175 90.6936 62.0426C91.405 60.9119 92.1614 59.8859 92.9552 58.9499C93.2547 58.5979 93.5542 58.2684 93.8613 57.9464C94.2357 57.557 94.6101 57.1826 94.9995 56.8381C95.6286 56.269 96.2801 55.7672 96.9466 55.3104C97.6879 54.8012 98.4443 54.3669 99.2231 54.0074C100.676 53.3335 102.189 52.9216 103.731 52.7868C104.136 52.7494 104.532 52.7419 104.937 52.7494C105.027 52.7494 105.117 52.7494 105.206 52.7494C106.03 52.7793 106.846 52.8842 107.655 53.0714C107.685 53.0714 107.708 53.0863 107.738 53.0938C109.872 53.618 111.909 54.7188 113.766 56.3663L114.155 56.7258C115.084 57.6019 115.96 58.6129 116.776 59.7661C117.368 60.6048 118.356 61.0392 119.39 60.9418C119.592 60.9268 119.794 60.8894 120.004 60.8295C120.183 60.7771 120.356 60.7396 120.535 60.6872C120.535 60.6872 120.543 60.6872 120.55 60.6872C121.209 60.515 121.861 60.3652 122.49 60.2529C122.557 60.2379 122.617 60.2304 122.685 60.2229C122.932 60.178 123.186 60.1405 123.426 60.1031C123.748 60.0582 124.063 60.0207 124.377 59.9908H124.385C124.961 59.9384 125.523 59.9159 126.077 59.9234C126.174 59.9234 126.264 59.9309 126.362 59.9384C126.826 59.9458 127.283 59.9683 127.732 60.0132C127.814 60.0207 127.889 60.0357 127.964 60.0432C128.421 60.0956 128.863 60.1705 129.297 60.2604C129.372 60.2753 129.439 60.2978 129.514 60.3128C129.941 60.4101 130.353 60.53 130.757 60.6647C130.84 60.6947 130.922 60.7246 131.004 60.7546C131.379 60.8894 131.738 61.0392 132.083 61.2039C132.195 61.2563 132.3 61.3088 132.405 61.3612C132.712 61.5184 133.004 61.6832 133.288 61.8629C133.423 61.9453 133.558 62.0277 133.685 62.1175C133.932 62.2823 134.165 62.4695 134.389 62.6492C134.532 62.7615 134.674 62.8739 134.809 63.0012C135.123 63.2857 135.43 63.5778 135.715 63.9073C138.56 67.1498 139.519 72.0848 138.418 77.7985C138.171 79.079 138.703 80.3147 139.758 80.9362C144.963 83.9915 147.824 88.4023 147.824 93.3672C147.824 98.3321 144.956 103.252 139.758 107.213C138.703 108.022 138.171 109.348 138.418 110.583C139.519 116.102 138.56 121.202 135.715 124.939C133.139 128.324 129.11 130.42 124.37 130.832C122.969 130.952 121.494 130.93 119.996 130.765C119.779 130.698 119.547 130.675 119.315 130.705C119.165 130.727 119.023 130.78 118.895 130.84C118.042 131.049 117.263 131.596 116.761 132.39C113.279 137.939 108.651 141.226 103.724 141.661H103.746ZM117.383 138.388C117.27 138.501 117.136 138.568 116.993 138.575C116.844 138.59 116.701 138.545 116.589 138.433C116.432 138.283 116.394 138.044 116.477 137.834C117.51 136.666 118.491 135.37 119.405 133.918C119.772 133.955 120.139 133.985 120.498 134.015C119.083 136.561 117.473 138.283 117.383 138.381V138.388ZM140.807 145.929C139.399 146.049 137.931 146.027 136.426 145.862C136.389 145.862 136.359 145.862 136.321 145.862C136.254 145.742 136.171 145.637 136.067 145.54L135.041 144.589C134.352 145.727 133.753 146.663 133.229 147.449C133.221 147.464 133.206 147.479 133.191 147.502C133.139 147.592 133.079 147.674 133.026 147.756C131.409 150.16 130.652 150.894 130.608 150.939C130.503 151.036 130.375 151.096 130.248 151.104C130.091 151.119 129.934 151.066 129.821 150.939C129.619 150.722 129.649 150.362 129.881 150.138C129.896 150.123 131.244 148.797 134.232 143.832L132.779 142.477C130.42 146.768 128.488 148.745 128.406 148.827C128.301 148.932 128.166 148.999 128.031 149.007C127.882 149.022 127.732 148.97 127.62 148.857C127.41 148.648 127.425 148.288 127.657 148.056C127.679 148.033 129.634 146.027 131.97 141.713L130.525 140.365C128.346 144.521 126.294 146.641 126.204 146.738C126.099 146.85 125.957 146.91 125.822 146.918C125.673 146.933 125.523 146.88 125.41 146.775C125.201 146.566 125.216 146.206 125.44 145.974C125.463 145.952 127.552 143.78 129.701 139.601L128.264 138.261C126.264 142.29 124.092 144.551 123.995 144.649C123.89 144.761 123.748 144.821 123.613 144.836C123.463 144.851 123.314 144.798 123.201 144.694C122.992 144.484 122.999 144.124 123.224 143.892C123.246 143.87 125.478 141.541 127.425 137.49L125.995 136.157C124.167 140.058 121.883 142.462 121.779 142.559C121.674 142.672 121.531 142.732 121.397 142.747C121.247 142.762 121.097 142.717 120.992 142.604C120.783 142.395 120.79 142.043 121.015 141.803C121.037 141.781 123.404 139.287 125.163 135.37L123.741 134.045C122.078 137.819 119.682 140.358 119.577 140.47C119.472 140.582 119.33 140.65 119.195 140.657C119.045 140.672 118.903 140.627 118.791 140.515C118.581 140.305 118.588 139.953 118.813 139.714C118.836 139.691 120.977 137.415 122.542 134.075C123.164 134.075 123.785 134.045 124.385 133.992C130.66 133.446 135.737 130.42 138.807 125.815C138.807 125.822 138.807 125.83 138.807 125.837C138.755 126.744 138.71 127.56 138.673 128.151L138.613 129.02V129.095V129.11L138.5 130.742C138.5 130.81 138.5 130.877 138.508 130.945C138.508 130.945 138.508 130.96 138.508 130.967C138.478 131.386 138.62 131.776 138.905 132.053L149.501 142.649C147.127 144.469 144.154 145.615 140.814 145.907L140.807 145.929ZM183.147 141.578C182.84 141.601 182.593 141.369 182.593 141.054C182.593 140.747 182.848 140.478 183.155 140.448C185.184 140.29 187.183 140.156 189.22 140.021C189.265 140.395 189.318 140.77 189.37 141.137C187.273 141.271 185.221 141.414 183.14 141.571L183.147 141.578ZM197.989 122.82C194.657 123.561 190.928 124.13 186.906 124.519L188.793 126.407V133.199C188.793 134.996 188.891 136.763 189.056 138.501L188.838 138.283C185.903 138.456 183.08 138.643 180.264 138.86C179.957 138.882 179.71 138.65 179.71 138.336C179.71 138.029 179.964 137.759 180.271 137.729C182.743 137.542 185.214 137.37 187.767 137.213L186.105 135.55C183.102 135.722 180.219 135.917 177.373 136.142C177.066 136.164 176.819 135.932 176.819 135.617C176.819 135.31 177.074 135.041 177.381 135.011C179.882 134.816 182.421 134.644 185.034 134.487L183.372 132.824C180.331 132.996 177.396 133.199 174.49 133.423C174.183 133.446 173.936 133.214 173.936 132.899C173.936 132.592 174.191 132.323 174.498 132.293C177.059 132.098 179.65 131.918 182.308 131.761L180.646 130.098C177.546 130.278 174.565 130.473 171.607 130.705C171.3 130.727 171.053 130.495 171.053 130.181C171.053 129.874 171.308 129.604 171.615 129.574C174.228 129.372 176.864 129.192 179.583 129.035L177.576 127.028L177.358 125.613C177.081 123.801 176.902 121.921 176.827 120.011C176.804 119.367 176.789 118.723 176.789 118.072V114.417L177.493 115.121C177.493 115.121 177.546 115.099 177.576 115.099C181.837 114.709 185.776 114.125 189.265 113.347C189.572 113.272 189.857 113.474 189.894 113.773C189.939 114.08 189.722 114.38 189.415 114.447C186.128 115.174 182.451 115.735 178.497 116.125L180.294 117.922C180.339 117.907 180.376 117.885 180.429 117.885C184.697 117.495 188.629 116.911 192.118 116.132C192.425 116.057 192.71 116.26 192.747 116.559C192.785 116.866 192.575 117.166 192.268 117.233C188.966 117.967 185.274 118.529 181.297 118.918L183.102 120.723C183.162 120.7 183.222 120.678 183.282 120.67C187.543 120.281 191.482 119.697 194.971 118.918C195.278 118.843 195.556 119.045 195.6 119.345C195.638 119.652 195.428 119.951 195.121 120.019C191.804 120.753 188.089 121.322 184.091 121.711L185.91 123.531C185.978 123.494 186.053 123.464 186.135 123.456C190.403 123.067 194.335 122.483 197.825 121.704C198.132 121.636 198.409 121.824 198.454 122.131C198.491 122.438 198.281 122.737 197.974 122.805L197.989 122.82ZM176.797 113.212V112.141C180.286 111.744 183.521 111.212 186.502 110.553H186.517C186.779 110.538 187.011 110.711 187.049 110.988C187.094 111.295 186.876 111.594 186.569 111.662C183.611 112.321 180.316 112.83 176.797 113.212ZM204.714 98.7589C198.843 104.428 189.175 107.872 175.157 109.295C174.43 109.37 173.869 109.962 173.816 110.681C173.816 110.703 173.816 110.718 173.816 110.741C173.816 110.756 173.816 110.771 173.816 110.785V118.072C173.816 118.791 173.831 119.51 173.861 120.229C173.936 122.31 174.123 124.355 174.43 126.324H174.303C174.303 126.324 174.273 126.324 174.258 126.332L173.712 126.362C173.322 126.384 172.745 126.414 171.982 126.459C170.634 126.541 168.387 126.691 165.377 126.916C160.202 127.313 151.89 128.024 141.631 129.185L141.683 128.361C141.72 127.762 141.773 126.946 141.825 126.025C141.96 123.576 142.028 121.719 142.028 120.513V115.87C142.065 115.076 142.072 114.275 142.028 113.451V109.333C154.009 99.8447 154.009 85.8412 142.028 78.45V74.3089C142.072 73.4851 142.065 72.6838 142.028 71.905V67.5467C142.028 64.3641 141.9 61.6832 141.623 59.1146V58.4631L171.547 55.8421C171.6 55.8421 171.652 55.8272 171.712 55.8197C172.109 55.7373 172.506 55.7073 172.873 55.6924L173.3 55.6699C173.592 55.6549 173.861 55.6474 174.183 55.6175C188.778 54.1048 198.806 55.7298 204.849 60.5749C205.133 60.7995 205.403 61.0392 205.673 61.2788C205.74 61.4061 205.822 61.5334 205.927 61.6383C205.927 61.6383 205.935 61.6457 205.942 61.6532L206.481 62.1924C209.499 65.3451 211.214 69.5162 211.746 75.0951C211.746 75.0951 211.746 75.1026 211.746 75.1101C211.783 75.492 211.813 75.8814 211.836 76.2708C211.851 76.4955 211.858 76.7276 211.873 76.9598C211.881 77.1545 211.896 77.3492 211.903 77.5514C211.918 77.9932 211.925 78.4425 211.925 78.8993C211.925 78.9517 211.925 78.9967 211.925 79.0491C211.925 87.7807 209.641 94.0561 204.744 98.7889L204.714 98.7589Z" fill="black"></path><path d="M92.5733 64.0573C90.4166 63.623 88.3648 64.2894 86.3803 65.6224L72.2869 8.79193C71.7852 6.76254 72.6763 4.68821 74.3537 4.27634C74.4211 4.26137 74.481 4.24639 74.5484 4.23141C76.2409 3.87945 77.9857 5.24985 78.4874 7.27176L92.5659 64.0573H92.5733Z" fill="#FDE9CC"></path><path d="M245.354 35.3084C237.716 33.3839 234.998 33.3914 229.142 27.393C236.001 24.0007 239.783 22.1361 243.557 17.7927C245.017 16.1078 243.999 13.2921 241.91 13.4419C232.197 14.1458 209.754 7.98277 195.75 6.88944C177.688 5.47411 162.164 5.7437 152.489 6.19301C156.031 13.1199 158.36 22.4881 159.431 34.1552C159.626 36.2445 158.907 38.3113 157.469 39.8315C156.084 41.2993 154.151 42.093 152.182 42.0182C150.587 41.9582 149.007 41.9433 147.427 41.9433C147.771 44.8039 150.183 46.8932 152.991 46.5562C164.628 45.1708 181.882 42.6996 192.088 42.5798C205.635 42.415 217.415 43.733 229.389 43.6507C235.2 43.6057 241.168 42.0032 245.497 40.3108C247.803 39.4047 247.698 35.9 245.362 35.3159L245.354 35.3084Z" fill="black"></path><path d="M95.067 63.4655C94.6776 63.2333 94.2582 63.0536 93.8239 62.9038L90.0122 47.5374C90.8659 47.3352 91.7196 47.133 92.5808 46.9233C111.489 42.3703 131.034 37.6525 152.309 38.4613C153.268 38.4987 154.174 38.1168 154.87 37.3829C155.604 36.6116 155.971 35.5557 155.866 34.4923C154.623 20.9905 151.688 10.7911 147.142 4.17875C146.176 2.77091 143.188 2.03703 141.75 1.68507C141.451 1.61018 141.189 1.55027 140.979 1.49037C138.77 0.876306 136.157 0.479414 133.258 0.254758C116.11 -1.08569 89.2109 3.58716 79.4833 5.69892C78.4574 3.58716 76.3456 2.33657 74.2489 2.77839C74.159 2.79337 74.0691 2.81584 73.9942 2.8383C72.9309 3.1004 72.0173 3.78935 71.4107 4.79281C70.6544 6.03591 70.4447 7.63845 70.8266 9.1736L84.7403 65.2852C84.3209 65.7495 83.969 66.2512 83.7293 66.7829C83.3923 67.5392 83.7293 68.4229 84.4782 68.7673C84.6804 68.8572 84.8901 68.9021 85.0922 68.9021C85.6614 68.9021 86.208 68.5726 86.4552 68.0185C86.8745 67.0974 88.0053 66.2437 89.4056 65.8094C90.9183 65.3376 92.461 65.4275 93.5243 66.064C94.2357 66.4908 95.1568 66.2587 95.5762 65.5473C96.003 64.8359 95.7709 63.9148 95.0595 63.4954L95.067 63.4655ZM87.3538 63.3456L73.7396 8.43224C73.5524 7.67589 73.6423 6.8896 73.9793 6.32047C74.1141 6.1033 74.3462 5.81874 74.7206 5.72888L74.8554 5.69892C74.9303 5.68394 75.0127 5.67646 75.0876 5.67646C75.9038 5.67646 76.7575 6.51517 77.0346 7.63845L90.6263 62.4545C89.5479 62.5369 88.4546 62.8289 87.3538 63.3531V63.3456Z" fill="black"></path><path d="M102.683 15.3293C102.233 14.9324 101.642 14.5954 100.915 14.3258C100.189 14.0562 99.5376 13.9738 98.9685 14.0637C98.3244 14.1686 97.6954 14.4606 97.1188 14.9474C96.34 15.6063 95.6061 16.5125 94.9097 17.6058C94.2132 18.6991 93.7115 19.77 93.397 20.8034C93.1574 21.6047 93.075 22.376 93.1499 23.1024C93.2772 24.2481 93.7564 25.1917 94.5877 25.9181C94.9321 26.2251 95.8158 26.8317 97.2236 27.7453C98.2421 28.4043 98.7738 28.906 98.8112 29.2355C98.8486 29.6024 98.5491 29.8346 97.8976 29.9469C96.984 30.1041 95.8607 29.7522 94.5278 28.891C94.1533 28.6439 93.6516 28.5765 93.0226 28.6963C92.5508 28.7862 92.1389 28.9584 91.8019 29.213C91.5323 29.4152 91.4125 29.6473 91.4425 29.8945C91.4724 30.179 91.7196 30.5759 92.1764 31.0777C93.0525 32.0287 93.9586 32.6877 94.9022 33.0621C95.8457 33.4365 96.8193 33.5189 97.8227 33.3242C98.8936 33.1145 99.8072 32.6652 100.564 31.9838C101.32 31.3023 101.911 30.3812 102.353 29.228C102.503 28.8311 102.563 28.4567 102.518 28.0897C102.436 27.3259 101.799 26.5246 100.601 25.7009C98.8636 24.5177 97.8676 23.7913 97.6055 23.5142C97.3434 23.2372 97.1862 22.8702 97.1338 22.4059C97.0289 21.4699 97.3809 20.3765 98.1747 19.1334C98.9235 17.9652 99.4552 17.4336 99.7772 17.5609C99.8371 17.5683 99.8746 17.6432 99.8895 17.778C99.9195 18.0251 99.8521 18.5419 99.7098 19.3281C99.5226 20.3241 99.4253 20.9157 99.4028 21.073C99.3803 21.2302 99.3803 21.3875 99.4028 21.5448C99.5001 22.4658 100.219 23.0949 101.559 23.4543C101.739 23.5068 101.889 23.5217 102.001 23.4993C102.248 23.4618 102.451 23.2447 102.6 22.8552C102.907 22.0315 103.147 21.2003 103.312 20.3765C103.477 19.5453 103.574 18.7216 103.604 17.8904C103.641 16.7596 103.334 15.9059 102.69 15.3442L102.683 15.3293Z" fill="#FBD576"></path><path d="M117.038 13.4199C117.008 13.1503 116.814 12.9031 116.462 12.671C115.421 12.0045 114.567 11.7125 113.893 11.7948C113.549 11.8323 113.324 12.1019 113.227 12.5961C112.98 13.7044 112.717 14.9325 112.44 16.2955C112.163 17.6584 111.879 19.1486 111.579 20.7661C110.329 21.0357 109.37 21.2603 108.711 21.4251C108.928 20.3243 109.153 19.2534 109.385 18.2125C109.617 17.1641 109.849 16.1457 110.096 15.1572C110.164 14.9176 110.194 14.7154 110.179 14.5656C110.149 14.3185 109.939 14.0714 109.55 13.8317C109.258 13.652 108.823 13.4723 108.269 13.2701C107.625 13.0379 107.168 12.9256 106.899 12.9556C106.577 13.0005 106.352 13.2701 106.232 13.7718C106.015 14.648 105.768 15.8386 105.476 17.3438C105.191 18.849 104.862 20.6688 104.503 22.803C103.784 23.125 103.432 23.3871 103.454 23.5968C103.462 23.6941 103.499 23.8139 103.551 23.9637C103.814 24.5853 104.001 24.9971 104.121 25.1918C103.881 26.7345 103.709 27.9476 103.596 28.8313C103.492 29.7149 103.447 30.2691 103.469 30.4862C103.514 30.8681 103.716 31.1602 104.083 31.3549C104.989 31.8416 105.746 32.0438 106.36 31.954C106.644 31.909 106.824 31.6619 106.891 31.2051C107.019 30.4413 107.168 29.5726 107.341 28.6141C107.513 27.6556 107.708 26.5922 107.917 25.439C109.243 25.0046 110.246 24.6901 110.928 24.4879C110.606 26.5098 110.404 28 110.306 28.9361C110.231 29.6625 110.411 30.1642 110.845 30.4413C111.28 30.7184 111.901 30.9131 112.717 31.0479C112.897 31.0628 113.032 31.0703 113.122 31.0554C113.369 31.0254 113.541 30.7932 113.624 30.3514C113.893 28.8088 114.163 27.3036 114.44 25.8508C114.717 24.398 114.986 22.9902 115.271 21.6273C115.556 20.2644 115.833 18.9464 116.117 17.6808C116.402 16.4078 116.686 15.1871 116.978 14.0114C117.031 13.7718 117.046 13.5771 117.031 13.4273L117.038 13.4199Z" fill="#FBD576"></path><path d="M127.283 12.0945C126.878 11.7575 126.302 11.4804 125.553 11.2558C124.804 11.0386 124.145 10.9488 123.591 10.9937C122.595 11.0761 121.749 11.4655 121.067 12.1469C120.333 12.8958 119.682 13.7644 119.113 14.7754C118.543 15.7789 118.057 16.9171 117.652 18.1752C117.263 19.3958 116.993 20.579 116.859 21.7248C116.724 22.8705 116.709 23.9713 116.829 25.0347C116.926 25.9183 117.113 26.7046 117.405 27.3861C117.765 28.2398 118.334 28.8763 119.098 29.2957C120.153 29.8798 121.352 30.1119 122.692 29.9846C123.516 29.9097 124.272 29.5952 124.961 29.0485C125.65 28.5019 126.272 27.7156 126.811 26.6971C127.253 25.8659 127.627 24.9149 127.934 23.8665C128.241 22.8181 128.481 21.6574 128.653 20.3918C128.803 19.2835 128.885 18.2576 128.9 17.3215C128.915 16.3854 128.863 15.5317 128.743 14.7679C128.563 13.6446 128.076 12.7535 127.29 12.0945H127.283ZM125.193 18.1377C125.111 19.0588 124.954 20.0623 124.714 21.1332C124.347 22.7806 123.89 24.166 123.329 25.2743C122.767 26.3751 122.235 26.9592 121.711 27.0042C121.172 27.0566 120.842 26.5099 120.715 25.3567C120.633 24.6078 120.64 23.8066 120.715 22.9379C120.797 22.0692 120.97 21.1481 121.224 20.1671C121.606 18.6994 122.138 17.329 122.819 16.0784C123.546 14.738 124.13 14.1164 124.564 14.2138C124.879 14.2812 125.088 14.738 125.178 15.5842C125.261 16.363 125.268 17.2092 125.178 18.1377H125.193Z" fill="#FBD576"></path><path d="M140.522 10.9111C139.848 10.2072 138.778 9.87768 137.31 9.93758C136.142 9.99 135.003 10.2072 133.88 10.5891C132.757 10.971 131.663 11.5252 130.585 12.2366C130.241 12.4687 130.083 12.7233 130.113 12.9929C130.151 13.3224 130.503 14.0113 131.184 15.0672C130.787 17.0292 130.45 18.7815 130.166 20.3242C129.881 21.8668 129.649 23.2073 129.469 24.338C129.29 25.4688 129.162 26.3899 129.095 27.1013C129.02 27.8427 129.215 28.3594 129.671 28.6514C130.503 29.1681 131.244 29.4078 131.903 29.3628C132.195 29.3404 132.367 29.1232 132.442 28.6889C132.577 27.94 132.719 27.1387 132.884 26.2925C133.049 25.4463 133.101 23.9786 133.431 23.5967C133.693 23.2971 134.936 22.9976 135.677 22.6232C136.419 22.2487 137.153 21.8369 137.886 21.3651C139.347 20.4365 140.447 19.4855 141.196 18.5194C142.207 17.2164 142.664 16.0108 142.544 14.9025C142.394 13.4871 141.721 12.1467 140.545 10.9036L140.522 10.9111ZM138.096 16.6922C137.632 17.2539 137.093 17.7706 136.464 18.2274C135.835 18.6842 135.123 19.0811 134.329 19.4256C134.569 18.3921 134.786 17.471 134.981 16.6623C135.176 15.8535 135.288 14.8575 135.52 14.5655C135.887 14.1012 137.22 13.8466 137.999 13.8166C138.635 13.7867 139.002 13.9365 139.092 14.236C139.264 14.865 138.927 15.7038 138.111 16.6997L138.096 16.6922Z" fill="#FBD576"></path><path d="M175.202 29.5428C175.03 29.0785 174.648 28.8913 174.064 28.9587C172.843 29.0935 171.78 29.2582 170.911 29.4754C171.398 28.0601 171.884 26.6822 172.371 25.3492C172.858 24.0163 173.337 22.7208 173.824 21.4702C174.303 20.2196 174.79 19.0064 175.269 17.8307C175.367 17.5911 175.419 17.3964 175.426 17.2466C175.426 17.007 175.284 16.7674 174.977 16.5203C174.745 16.3255 174.356 16.1084 173.816 15.8687C173.27 15.6291 172.858 15.5168 172.558 15.5243C172.229 15.5393 171.974 15.7564 171.794 16.1833C171.405 17.0969 170.978 18.1528 170.536 19.3584C170.095 20.5641 169.615 21.9195 169.114 23.4022C168.619 24.8475 168.185 26.158 167.818 27.3337C167.451 28.5019 167.159 29.5353 166.934 30.4265C166.77 31.0929 166.86 31.6696 167.219 32.0889C167.698 32.6506 168.095 33.025 168.312 33.2197C168.597 33.4968 168.896 33.6315 169.203 33.6166C169.421 33.6091 169.698 33.5492 170.035 33.4443C171.098 33.1373 172.034 32.8752 172.843 32.6506C173.652 32.4259 174.333 32.2462 174.887 32.1039C175.217 32.0215 175.426 31.9317 175.516 31.8268C175.599 31.722 175.621 31.4973 175.576 31.1528C175.501 30.5538 175.381 30.0146 175.209 29.5578L175.202 29.5428Z" fill="#FBD576"></path><path d="M188.951 19.4406C188.928 18.3623 188.584 17.4711 187.925 16.7897C187.588 16.4377 187.079 16.1232 186.397 15.8536C185.716 15.584 185.109 15.4492 184.577 15.4492C183.626 15.4492 182.78 15.7413 182.046 16.3329C181.26 16.9769 180.526 17.7557 179.86 18.6618C179.193 19.5679 178.579 20.6013 178.032 21.7695C177.501 22.8928 177.104 23.9936 176.819 25.072C176.542 26.1428 176.385 27.1912 176.355 28.2097C176.332 29.0559 176.407 29.8122 176.587 30.4862C176.819 31.3249 177.269 31.9764 177.935 32.4407C178.849 33.0847 179.949 33.3992 181.237 33.3917C182.024 33.3917 182.78 33.1521 183.499 32.6878C184.218 32.2235 184.907 31.5346 185.558 30.606C186.083 29.8497 186.562 28.981 186.989 28.0075C187.416 27.034 187.797 25.9556 188.119 24.765C188.404 23.724 188.621 22.758 188.756 21.8744C188.891 20.9907 188.951 20.1745 188.936 19.4406H188.951ZM185.169 22.3536C184.974 23.2223 184.69 24.1584 184.323 25.1544C183.761 26.6895 183.147 27.9626 182.481 28.966C181.807 29.9695 181.222 30.4712 180.728 30.4787C180.212 30.4787 179.972 29.9395 180.009 28.8387C180.032 28.1273 180.137 27.3635 180.331 26.5472C180.526 25.731 180.803 24.8698 181.17 23.9637C181.717 22.6083 182.398 21.3502 183.207 20.2119C184.068 18.9988 184.697 18.4596 185.102 18.5869C185.394 18.6768 185.528 19.1261 185.506 19.9349C185.483 20.6762 185.379 21.485 185.184 22.3536H185.169Z" fill="#FBD576"></path><path d="M198.079 28.4643C197.772 28.337 197.473 28.2771 197.173 28.2621C196.424 28.2321 195.773 28.5167 195.219 29.1008C194.238 30.1342 193.504 30.6434 193.024 30.6285C192.53 30.6135 192.298 30.1043 192.328 29.1008C192.351 28.4418 192.455 27.7154 192.643 26.9291C192.837 26.1428 193.114 25.2817 193.481 24.3681C193.751 23.7016 194.073 23.0351 194.432 22.3761C194.792 21.7171 195.189 21.0656 195.63 20.4216C196.567 19.0587 197.226 18.4596 197.607 18.6243C197.825 18.7217 197.929 18.9688 197.915 19.3507C197.915 19.5155 197.877 19.7926 197.825 20.1894C197.765 20.5789 197.735 20.8859 197.727 21.0806C197.72 22.3162 198.386 23.1474 199.637 23.4994C199.764 23.5443 199.884 23.5668 199.989 23.5668C200.266 23.5818 200.491 23.3796 200.67 22.9677C201.12 21.9268 201.382 20.7511 201.464 19.4556C201.531 18.3997 201.254 17.561 200.655 16.9694C199.854 16.1681 198.776 15.6589 197.42 15.4792C196.432 15.3519 195.496 15.6364 194.612 16.3478C193.796 16.9993 193.032 17.8006 192.336 18.7442C191.632 19.6877 190.988 20.7736 190.403 22.0092C189.819 23.2448 189.37 24.4205 189.063 25.5512C188.756 26.682 188.584 27.7604 188.554 28.7863C188.531 29.5726 188.606 30.2615 188.771 30.8531C188.988 31.6394 189.475 32.2759 190.231 32.7477C191.055 33.2719 191.954 33.5939 192.905 33.7137C194.125 33.871 195.181 33.5939 196.065 32.875C197.016 32.1037 197.757 31.25 198.259 30.3139C198.514 29.8272 198.641 29.4603 198.648 29.2056C198.656 28.8761 198.461 28.629 198.064 28.4643H198.079Z" fill="#FBD576"></path><path d="M213.228 18.6093C213.341 17.9428 213.191 17.486 212.772 17.2464C211.798 16.7222 210.593 16.3477 209.17 16.1456C208.368 16.0332 207.724 16.3328 207.245 17.0367C206.429 18.2498 205.643 19.448 204.894 20.6387C204.145 21.8294 203.426 23.0125 202.745 24.1808C202.063 25.349 201.419 26.5097 200.805 27.6554C200.191 28.8012 199.614 29.9394 199.075 31.0552C198.903 31.4147 198.806 31.7067 198.798 31.9239C198.798 32.1785 198.888 32.4256 199.083 32.6503C199.33 32.9498 199.764 33.2793 200.378 33.6238C200.58 33.7286 200.73 33.781 200.842 33.781C201.045 33.7885 201.239 33.6238 201.434 33.2793C202.205 31.849 202.782 30.8231 203.149 30.194C204.242 30.0143 205.223 29.8645 206.084 29.7522C206.946 29.6324 207.687 29.55 208.316 29.4901C208.196 31.0627 208.129 32.0961 208.114 32.5904C208.099 33.2344 208.264 33.6762 208.608 33.9233C208.96 34.1705 209.582 34.3202 210.48 34.3951C210.974 34.4326 211.244 34.1854 211.296 33.6612C211.446 32.1261 211.596 30.6583 211.753 29.2655C211.911 27.8726 212.068 26.5471 212.225 25.2891C212.382 24.0385 212.547 22.8478 212.712 21.7395C212.877 20.6237 213.049 19.5828 213.214 18.6093H213.228ZM208.997 22.8253C208.863 23.8812 208.728 24.982 208.608 26.1278C207.874 26.1278 206.796 26.1952 205.381 26.33C206.144 25.0569 206.863 23.8737 207.537 22.7879C208.211 21.702 208.84 20.7061 209.424 19.8C209.275 20.766 209.132 21.7694 208.997 22.8253Z" fill="#FBD576"></path><path d="M221.054 33.0322C220.979 32.4181 220.859 31.8639 220.687 31.3772C220.515 30.8904 220.133 30.6508 219.556 30.6358C218.343 30.6134 217.287 30.6358 216.419 30.7407C216.905 29.3852 217.385 28.0673 217.871 26.7942C218.358 25.5212 218.837 24.2855 219.317 23.0874C219.796 21.8892 220.275 20.736 220.754 19.6277C220.852 19.403 220.904 19.2083 220.912 19.066C220.912 18.8264 220.769 18.5643 220.47 18.2723C220.238 18.0476 219.856 17.778 219.309 17.4635C218.77 17.149 218.351 16.9842 218.059 16.9543C217.729 16.9243 217.474 17.1115 217.302 17.5159C216.913 18.3771 216.493 19.388 216.044 20.5338C215.595 21.6795 215.131 22.9825 214.629 24.4054C214.142 25.7907 213.7 27.0488 213.333 28.1796C212.974 29.3029 212.674 30.2988 212.45 31.1675C212.285 31.8115 212.375 32.4106 212.727 32.8749C213.206 33.5039 213.603 33.9308 213.82 34.1554C214.105 34.4774 214.404 34.6497 214.711 34.6721C214.928 34.6946 215.205 34.6721 215.535 34.6122C216.591 34.44 217.527 34.3052 218.328 34.1854C219.129 34.0656 219.811 33.9757 220.365 33.9083C220.695 33.8709 220.904 33.8035 220.987 33.7136C221.069 33.6237 221.091 33.3991 221.047 33.0471L221.054 33.0322Z" fill="#FBD576"></path></g><defs><clipPath id="clip0_3410_2442"><rect width="247.167" height="160" fill="white"></rect></clipPath></defs></svg>