<svg class="Divider_divider__snBNS" width="1534" height="24" preserveAspectRatio="none" viewBox="0 0 1512 24" fill="none" xmlns="http://www.w3.org/2000/svg"><g clip-path="url(#clip0_3164_4073)"><path d="M0 0H1512V24H0V0Z" fill="#30897C"></path><g clip-path="url(#clip1_3164_4073)"><path d="M452.903 -32.1813C454.166 -34.7584 455.214 -37.4267 456.275 -40.0937C458.411 -45.5084 460.48 -51.1798 464.242 -55.7171C465.882 -57.6909 467.588 -59.1392 469.926 -60.1375C472.183 -61.0955 474.051 -62.6742 476.2 -63.8552C485.619 -69.0254 497.107 -70.467 507.681 -69.2927C525.86 -67.2773 542.131 -57.0661 555.217 -44.783C562.446 -37.9911 568.317 -29.8973 574.028 -21.7846C584.629 -6.73906 595.122 9.16511 598.279 27.2969C601.437 45.4301 595.337 66.4332 579.308 75.4809C563.668 84.307 544.24 79.6152 526.357 81.1899C512.787 82.3843 499.579 87.4268 488.683 95.5797C480.567 101.642 473.594 109.444 464.417 113.716C450.242 120.309 431.956 116.572 421.516 104.946C413.441 95.9667 409.733 83.0279 399.656 76.3825C396.646 74.3926 393.113 73.0222 390.775 70.2705C387.174 66.0408 387.389 59.8092 388.37 54.3421C390.896 40.2249 397.291 26.8173 406.656 15.9597C421.274 -0.991104 443.081 -12.065 452.903 -32.1813Z" fill="black"></path><path d="M273.25 71.3024C272.095 77.9492 272.108 84.7598 270.657 91.3568C269.999 94.3866 269.004 97.4151 267.258 100.003C265.35 102.806 262.448 104.239 260.419 106.851C258.283 109.607 254.104 112.059 251.188 114.054C248.071 116.192 244.739 117.951 241.286 119.494C233.332 123.063 223.067 121.991 214.949 118.782C206.509 115.443 200.488 107.582 197.357 99.065C195.662 94.4498 194.677 89.5551 192.438 85.1776C185.724 72.0588 168.884 65.6257 164.398 51.5892C163.062 47.4119 163.014 42.7752 164.598 38.6853C166.738 33.1618 171.52 29.1632 174.946 24.3303C182.363 13.8677 183.856 -1.04488 194.387 -8.36613C203.158 -14.4647 214.921 -12.9303 225.378 -15.1096C241.044 -18.3786 253.553 -30.002 268.36 -36.0791C284.133 -42.5552 303.548 -41.9707 316.971 -31.4477C330.393 -20.9246 335.163 0.453251 324.831 14.0262C317.952 23.066 306.491 27.0846 297.18 33.6037C284.671 42.3694 275.857 56.2501 273.25 71.3024Z" fill="black"></path><path d="M1293.6 76.0802C1292.46 82.7256 1292.47 89.5363 1291.02 96.1334C1290.35 99.1632 1289.37 102.192 1287.61 104.781C1285.72 107.582 1282.81 109.016 1280.79 111.628C1278.64 114.383 1274.46 116.837 1271.55 118.832C1268.44 120.968 1265.09 122.729 1261.65 124.272C1253.69 127.841 1243.42 126.767 1235.3 123.559C1226.87 120.22 1220.85 112.359 1217.72 103.842C1216.02 99.2263 1215.03 94.333 1212.8 89.9556C1206.08 76.8367 1189.25 70.4022 1184.76 56.367C1183.42 52.1898 1183.37 47.553 1184.96 43.4618C1187.1 37.9396 1191.88 33.9411 1195.31 29.1082C1202.72 18.6443 1204.21 3.73172 1214.75 -3.58953C1223.52 -9.68676 1235.28 -8.15377 1245.74 -10.3331C1261.4 -13.6007 1273.91 -25.2254 1288.71 -31.3012C1304.5 -37.7786 1323.9 -37.1929 1337.32 -26.6712C1350.75 -16.1481 1355.53 5.23111 1345.2 18.8028C1338.32 27.8425 1326.86 31.8612 1317.55 38.3817C1305.02 47.1459 1296.22 61.0266 1293.6 76.0802Z" fill="black"></path><path d="M1575.91 2.11536C1579.14 8.03121 1583.39 13.3572 1586.36 19.4249C1587.73 22.2115 1588.83 25.1969 1589.07 28.3168C1589.34 31.6919 1587.96 34.6223 1588 37.9302C1588.04 41.4182 1586.29 45.9421 1585.26 49.3132C1584.14 52.9274 1582.62 56.3805 1580.89 59.7354C1576.87 67.4853 1568.18 73.0343 1559.82 75.5697C1551.14 78.2072 1541.54 75.8021 1533.78 71.0807C1529.59 68.5238 1525.78 65.302 1521.3 63.2718C1507.88 57.1786 1490.69 62.6228 1478.45 54.4255C1474.8 51.9869 1471.88 48.3861 1470.58 44.1981C1468.82 38.5429 1470.07 32.4362 1469.75 26.5217C1469.04 13.7146 1460.92 1.10898 1464.62 -11.1755C1467.68 -21.407 1477.84 -27.5257 1484.66 -35.7418C1494.89 -48.0491 1497.45 -64.9354 1505.25 -78.9034C1513.58 -93.7971 1529.12 -105.414 1546.17 -105.531C1563.24 -105.649 1580.27 -91.8812 1580.64 -74.8256C1580.88 -63.4642 1574.4 -53.187 1571.18 -42.2918C1566.84 -27.6413 1568.58 -11.2883 1575.91 2.11938V2.11536Z" fill="black"></path><path d="M7.6701 62.4306C-6.55587 65.705 -15.73 77.7867 -23.2205 89.3389C-30.2569 100.19 -35.1033 112.539 -44.9733 121.453C-52.5566 128.303 -63.3496 132.492 -73.1485 129.592C-79.8114 127.619 -87.8084 123.024 -92.8872 118.281C-98.4295 113.103 -104.504 105.399 -108.732 99.1041C-120.22 82.0028 -126.57 77.3015 -124.78 56.7768C-124.311 51.397 -114.103 30.6399 -112.293 25.5503C-108.594 15.1523 -96.2664 2.99541 -85.5794 0.246414C-75.2243 -2.4139 -62.663 -0.112307 -52.0164 -1.09447C-37.3994 -2.4421 -29.0315 -6.03223 -15.7702 -12.331C-2.51028 -18.6284 18.2832 -25.7132 32.5885 -22.4133C50.4811 -18.2844 57.1225 -4.4871 64.5096 12.3293C67.4238 18.9667 69.5171 31.0846 66.8796 37.8362C64.7742 43.2213 59.858 46.9403 54.9862 50.0548C47.282 54.9831 38.9074 59.2168 29.8596 60.5483C22.5048 61.6312 14.9134 60.7632 7.6674 62.4306H7.6701Z" fill="black"></path><path d="M1161.33 -0.128494C1150.17 7.11617 1136.55 5.97676 1124.77 11.3108C1104.91 20.2955 1103.62 38.2083 1088.15 52.1602C1074.15 64.7805 1045.51 74.2139 1026.38 71.3413C1010.96 69.0236 990.152 61.1246 986.511 43.8728C984.133 32.639 995.124 20.7725 992.934 9.51047C990.743 -1.7529 987.304 -9.67343 976.689 -14.2524C967.15 -18.3638 941.528 -13.8601 931.343 -15.1929C917.289 -17.0337 897.082 -38.3 892.043 -55.9092C887.703 -71.0958 895.55 -88.7212 905.976 -99.8958C916.402 -111.073 935.938 -112.883 951.551 -111.306C960.432 -110.408 972.108 -107.905 981.002 -107.092C1020.99 -103.431 1032.69 -128.915 1058.92 -133.534C1076.65 -136.657 1086.29 -133.885 1103.61 -127.715C1128.61 -118.808 1157.24 -93.0945 1171 -70.2198C1184.76 -47.3438 1182.85 -14.1153 1161.33 -0.128494Z" fill="black"></path><path d="M809.439 66.9209C806.671 72.4645 804.871 78.4664 801.834 83.8879C800.45 86.3789 798.771 88.7826 796.54 90.5951C794.122 92.5567 791.179 93.0484 788.707 94.8072C786.087 96.6654 781.747 97.7121 778.657 98.6956C775.352 99.749 771.939 100.41 768.499 100.855C760.532 101.88 751.785 98.2092 745.497 93.2272C738.954 88.0436 735.743 79.5252 735.246 71.1936C734.99 66.6804 735.42 62.1108 734.614 57.6622C732.195 44.3297 719.082 34.1896 718.854 20.6408C718.8 16.61 719.982 12.5134 722.468 9.33581C725.813 5.04168 731.094 2.79383 735.393 -0.551716C744.704 -7.78966 749.985 -20.5216 761.19 -24.1681C770.542 -27.2073 780.484 -22.7291 790.266 -21.8705C804.938 -20.5847 819.032 -27.4935 833.677 -28.9069C849.29 -30.4158 866.219 -24.7445 875.248 -11.9118C884.264 0.919497 882.786 21.0103 870.089 30.2112C861.624 36.3407 850.459 36.8311 840.53 40.0974C827.188 44.4882 815.74 54.365 809.439 66.9223V66.9209Z" fill="black"></path></g></g><defs><clipPath id="clip0_3164_4073"><path d="M0 0H1512V24H0V0Z" fill="white"></path></clipPath><clipPath id="clip1_3164_4073"><rect width="3744.6" height="1353" fill="white" transform="translate(-1123 -995)"></rect></clipPath></defs></svg>