<svg xmlns="http://www.w3.org/2000/svg" width="100%" viewBox="0 0 1024 467" fill="none"><g opacity="0.1"><line x1="9.75098" y1="-549.056" x2="9.75091" y2="1014.66" stroke="#60BB8F" stroke-width="1.5"></line><line x1="33.751" y1="-549.056" x2="33.7509" y2="1014.66" stroke="#60BB8F" stroke-width="1.5"></line><line x1="57.7512" y1="-549.056" x2="57.7512" y2="1014.66" stroke="#60BB8F" stroke-width="1.5"></line><line x1="81.7512" y1="-549.056" x2="81.7512" y2="1014.66" stroke="#60BB8F" stroke-width="1.5"></line><line x1="105.751" y1="-549.056" x2="105.751" y2="1014.66" stroke="#60BB8F" stroke-width="1.5"></line><line x1="129.751" y1="-549.056" x2="129.751" y2="1014.66" stroke="#60BB8F" stroke-width="1.5"></line><line x1="153.751" y1="-549.056" x2="153.751" y2="1014.66" stroke="#60BB8F" stroke-width="1.5"></line><line x1="177.751" y1="-549.056" x2="177.751" y2="1014.66" stroke="#60BB8F" stroke-width="1.5"></line><line x1="201.751" y1="-549.056" x2="201.751" y2="1014.66" stroke="#60BB8F" stroke-width="1.5"></line><line x1="225.751" y1="-549.056" x2="225.751" y2="1014.66" stroke="#60BB8F" stroke-width="1.5"></line><line x1="249.752" y1="-549.056" x2="249.752" y2="1014.66" stroke="#60BB8F" stroke-width="1.5"></line><line x1="273.752" y1="-549.056" x2="273.752" y2="1014.66" stroke="#60BB8F" stroke-width="1.5"></line><line x1="297.752" y1="-549.056" x2="297.752" y2="1014.66" stroke="#60BB8F" stroke-width="1.5"></line><line x1="321.752" y1="-549.056" x2="321.752" y2="1014.66" stroke="#60BB8F" stroke-width="1.5"></line><line x1="345.752" y1="-549.056" x2="345.752" y2="1014.66" stroke="#60BB8F" stroke-width="1.5"></line><line x1="369.752" y1="-549.056" x2="369.752" y2="1014.66" stroke="#60BB8F" stroke-width="1.5"></line><line x1="393.752" y1="-549.056" x2="393.752" y2="1014.66" stroke="#60BB8F" stroke-width="1.5"></line><line x1="417.752" y1="-549.056" x2="417.752" y2="1014.66" stroke="#60BB8F" stroke-width="1.5"></line><line x1="441.752" y1="-549.056" x2="441.752" y2="1014.66" stroke="#60BB8F" stroke-width="1.5"></line><line x1="465.752" y1="-549.056" x2="465.752" y2="1014.66" stroke="#60BB8F" stroke-width="1.5"></line><line x1="489.752" y1="-549.056" x2="489.752" y2="1014.66" stroke="#60BB8F" stroke-width="1.5"></line><line x1="513.752" y1="-549.056" x2="513.752" y2="1014.66" stroke="#60BB8F" stroke-width="1.5"></line><line x1="537.752" y1="-549.056" x2="537.752" y2="1014.66" stroke="#60BB8F" stroke-width="1.5"></line><line x1="561.752" y1="-549.056" x2="561.752" y2="1014.66" stroke="#60BB8F" stroke-width="1.5"></line><line x1="585.752" y1="-549.056" x2="585.752" y2="1014.66" stroke="#60BB8F" stroke-width="1.5"></line><line x1="609.752" y1="-549.056" x2="609.752" y2="1014.66" stroke="#60BB8F" stroke-width="1.5"></line><line x1="633.753" y1="-549.056" x2="633.753" y2="1014.66" stroke="#60BB8F" stroke-width="1.5"></line><line x1="657.753" y1="-549.056" x2="657.753" y2="1014.66" stroke="#60BB8F" stroke-width="1.5"></line><line x1="681.753" y1="-549.056" x2="681.753" y2="1014.66" stroke="#60BB8F" stroke-width="1.5"></line><line x1="705.753" y1="-549.056" x2="705.753" y2="1014.66" stroke="#60BB8F" stroke-width="1.5"></line><line x1="729.753" y1="-549.056" x2="729.753" y2="1014.66" stroke="#60BB8F" stroke-width="1.5"></line><line x1="753.753" y1="-549.056" x2="753.753" y2="1014.66" stroke="#60BB8F" stroke-width="1.5"></line><line x1="777.753" y1="-549.056" x2="777.753" y2="1014.66" stroke="#60BB8F" stroke-width="1.5"></line><line x1="801.753" y1="-549.056" x2="801.753" y2="1014.66" stroke="#60BB8F" stroke-width="1.5"></line><line x1="825.753" y1="-549.056" x2="825.753" y2="1014.66" stroke="#60BB8F" stroke-width="1.5"></line><line x1="849.754" y1="-549.056" x2="849.754" y2="1014.66" stroke="#60BB8F" stroke-width="1.5"></line><line x1="873.754" y1="-549.056" x2="873.754" y2="1014.66" stroke="#60BB8F" stroke-width="1.5"></line><line x1="897.754" y1="-549.056" x2="897.754" y2="1014.66" stroke="#60BB8F" stroke-width="1.5"></line><line x1="921.754" y1="-549.056" x2="921.754" y2="1014.66" stroke="#60BB8F" stroke-width="1.5"></line><line x1="945.754" y1="-549.056" x2="945.754" y2="1014.66" stroke="#60BB8F" stroke-width="1.5"></line><line x1="969.754" y1="-549.056" x2="969.754" y2="1014.66" stroke="#60BB8F" stroke-width="1.5"></line><line x1="993.754" y1="-549.056" x2="993.754" y2="1014.66" stroke="#60BB8F" stroke-width="1.5"></line><line x1="1017.75" y1="-549.056" x2="1017.75" y2="1014.66" stroke="#60BB8F" stroke-width="1.5"></line><line x1="1294" y1="18.752" x2="-269.715" y2="18.7518" stroke="#60BB8F" stroke-width="1.5"></line><line x1="1294" y1="42.752" x2="-269.715" y2="42.7518" stroke="#60BB8F" stroke-width="1.5"></line><line x1="1294" y1="66.752" x2="-269.715" y2="66.7518" stroke="#60BB8F" stroke-width="1.5"></line><line x1="1294" y1="90.752" x2="-269.715" y2="90.7518" stroke="#60BB8F" stroke-width="1.5"></line><line x1="1294" y1="114.752" x2="-269.715" y2="114.752" stroke="#60BB8F" stroke-width="1.5"></line><line x1="1294" y1="138.752" x2="-269.715" y2="138.752" stroke="#60BB8F" stroke-width="1.5"></line><line x1="1294" y1="162.752" x2="-269.715" y2="162.752" stroke="#60BB8F" stroke-width="1.5"></line><line x1="1294" y1="186.752" x2="-269.715" y2="186.752" stroke="#60BB8F" stroke-width="1.5"></line><line x1="1294" y1="210.752" x2="-269.715" y2="210.752" stroke="#60BB8F" stroke-width="1.5"></line><line x1="1294" y1="234.752" x2="-269.715" y2="234.752" stroke="#60BB8F" stroke-width="1.5"></line><line x1="1294" y1="258.752" x2="-269.715" y2="258.752" stroke="#60BB8F" stroke-width="1.5"></line><line x1="1294" y1="282.752" x2="-269.715" y2="282.752" stroke="#60BB8F" stroke-width="1.5"></line><line x1="1294" y1="306.752" x2="-269.715" y2="306.752" stroke="#60BB8F" stroke-width="1.5"></line><line x1="1294" y1="330.752" x2="-269.715" y2="330.752" stroke="#60BB8F" stroke-width="1.5"></line><line x1="1294" y1="354.752" x2="-269.715" y2="354.752" stroke="#60BB8F" stroke-width="1.5"></line><line x1="1294" y1="378.753" x2="-269.715" y2="378.753" stroke="#60BB8F" stroke-width="1.5"></line><line x1="1294" y1="402.753" x2="-269.715" y2="402.753" stroke="#60BB8F" stroke-width="1.5"></line><line x1="1294" y1="426.753" x2="-269.715" y2="426.753" stroke="#60BB8F" stroke-width="1.5"></line><line x1="1294" y1="450.753" x2="-269.715" y2="450.753" stroke="#60BB8F" stroke-width="1.5"></line></g></svg>