<svg class="badge-animation size-12 sm:size-[72px] svelte-kh30fs" viewBox="0 0 67 72" fill="none" xmlns="http://www.w3.org/2000/svg"><path d="M9.50284 35.5755C13.7895 19.5773 40.3369 7.02043 40.3369 7.02043C40.3369 7.02043 43.9141 12.5471 46.4707 17.1144C47.2274 18.4689 47.8929 19.7213 48.3456 20.7356C49.1205 20.1538 50.5171 19.4151 51.8911 18.7609C53.7489 17.874 55.5433 17.1254 55.5433 17.1254C55.5433 17.1254 68.3297 36.2619 64.5606 50.3282C60.4292 65.7467 44.9353 74.5102 29.6716 70.4203C14.2357 66.2843 5.37468 50.982 9.50284 35.5755Z" fill="#CD4C3A" class="svelte-kh30fs"></path><path d="M23.4243 40.6816C21.4731 40.1588 21.0358 38.468 21.3878 37.1543C21.8641 35.377 24.9268 31.8288 30.7223 33.3817C32.2292 33.7855 33.6576 35.1 32.4607 37.3261L31.7648 38.6097C31.7648 38.6097 31.4342 39.2251 32.0331 39.3856L32.7479 39.5771C33.0763 39.6651 33.2812 39.5958 33.5614 39.0911L34.4071 37.5577C34.682 37.0723 35.7258 34.7224 38.2372 35.3953C39.6861 35.7836 39.9772 36.9383 39.7805 37.6724C39.5268 38.619 39.2422 38.522 39.009 38.5423C37.6536 38.6554 36.6813 40.5068 36.6813 40.5068L34.9847 43.5929C34.334 44.7851 34.4633 45.4616 35.1588 45.6479C35.8735 45.8395 36.6319 45.173 36.9959 44.5873C37.285 44.1264 37.512 43.8974 38.053 44.0423C38.362 44.1251 38.7857 44.3214 38.589 45.0555C38.4388 45.6158 37.4079 46.9132 36.798 47.4123C35.5225 48.5406 33.7202 49.5485 31.7304 49.0153C28.7167 48.2078 30.2587 45.0804 31.0592 43.6384L31.2993 43.2058C31.4491 42.9561 31.5912 42.5801 31.0117 42.4248L30.3162 42.2384C30.0651 42.1711 29.8074 42.2056 29.5027 42.7244L29.0328 43.551C28.3227 44.8101 26.5723 47.6333 23.0757 46.6963C21.5689 46.2926 20.6168 45.2092 21.0154 43.7217C21.3984 42.2921 22.5404 41.8941 22.7142 41.9407C23.0426 42.0287 23.0574 42.5917 23.9074 42.8195C24.7768 43.0524 25.6676 42.5871 26.1827 41.6692C26.1827 41.6692 28.5648 37.3381 28.6345 37.2326C28.8436 36.9159 28.835 36.5616 28.3134 36.4218C27.2122 36.1268 25.9644 36.7656 25.7107 37.7122C25.6331 38.002 25.7462 38.1979 25.9587 38.2549C26.1519 38.3066 26.2202 38.2835 26.2975 38.3042C26.568 38.3767 26.7208 38.8111 26.5965 39.2747C26.2859 40.4338 25.0471 41.1164 23.4243 40.6816ZM39.2987 50.3393C36.6907 49.6405 35.8913 46.983 37.1145 44.3499C38.3377 41.7167 40.9138 39.9845 43.7343 40.7402C46.4775 41.4753 47.1469 44.0772 45.9237 46.7103C44.7005 49.3434 42.2158 51.1209 39.2987 50.3393ZM40.5197 45.2416C40.0084 46.2227 39.9158 47.1089 40.592 47.2901C41.2102 47.4558 42.0561 46.7714 42.5675 45.7903C43.0788 44.8092 43.1714 43.923 42.4759 43.7366C41.877 43.5762 41.0504 44.2657 40.5197 45.2416ZM48.5353 52.8142C44.2659 51.6702 46.145 47.8256 46.46 47.2681L47.5006 45.3936C47.7407 44.961 47.6017 44.8616 47.54 44.783C47.4782 44.7043 47.0046 44.3082 47.4735 43.2536C47.9269 42.257 48.53 42.1701 48.9177 42.1912C49.3686 42.2085 49.4194 41.7873 49.5111 41.522C49.9753 40.1763 50.6529 39.1155 52.2563 39.5452C54.42 40.1249 52.8371 41.937 52.6021 42.3502C52.5272 42.4751 52.0421 43.0491 52.3706 43.1371C52.641 43.2096 54.2321 43.2218 53.5744 44.8262C52.9115 46.45 51.8349 46.1408 51.6803 46.0994C51.4485 46.0373 51.2426 45.8786 51.0301 45.8216C50.8369 45.7699 50.6423 45.8006 50.4874 46.0696L49.6172 47.6172C48.9768 48.7707 49.5505 49.5663 50.5357 49.8303C51.6755 50.1357 52.38 49.2064 52.6381 48.8614C52.9607 48.4302 53.1363 48.0839 53.7545 48.2495C54.1216 48.3479 54.7087 48.6294 54.0283 49.8551C53.2575 51.2636 51.0467 53.4871 48.5353 52.8142Z" fill="#FBD576" class="svelte-kh30fs"></path></svg>