<svg xmlns="http://www.w3.org/2000/svg" width="100%" class="h-auto w-full transition-all max-lg:max-w-[100px] lg:w-[135px] xl:w-[200px]" viewBox="0 0 250 120" fill="none"><g id="POP_Base"><path id="Vector" d="M39.9891 87.61V79.6935C54.5528 78.2209 64.3406 74.7793 70.7519 69.7918C65.797 66.2607 63.0876 61.4767 63.0876 56.1312C63.0876 50.143 66.4723 44.2687 72.6069 39.5905C73.1846 39.1511 73.4694 38.427 73.331 37.7598C72.4035 33.0978 72.7452 28.6718 74.2667 24.8803C73.8924 24.5223 73.4938 24.1806 73.0788 23.847C66.6187 18.6643 55.8383 16.3211 38.5734 18.111C38.2724 18.1354 38.0039 18.1517 37.711 18.1599C37.5564 18.1599 37.3937 18.1761 37.2228 18.1843C36.7753 18.2087 36.2709 18.2494 35.7421 18.3551L3.36833 21.1865L1.74924 21.3248V23.6843C2.08282 26.6865 2.18859 29.6155 2.18859 32.6747V90.238C2.18859 91.792 2.08282 94.1515 1.96892 96.1367C1.91196 97.1293 1.86315 98.0161 1.81433 98.6589C1.79806 98.9843 1.77365 99.2365 1.76551 99.4155L1.74924 99.6189V99.6678V99.684L1.6272 101.49L3.40901 101.287C14.2301 100.066 23.1229 99.2854 29.3145 98.8135C32.4062 98.5775 34.8227 98.4148 36.4662 98.3172C37.2879 98.2683 37.9144 98.2277 38.3375 98.2114C38.549 98.2032 38.7036 98.1951 38.8094 98.187H38.9314H38.964H38.9721L40.9329 98.0893L40.6319 96.1529C40.2007 93.3948 39.9891 90.4983 39.9891 87.5856V87.61ZM39.9891 41.836C43.2843 41.7872 44.7569 42.6171 45.4892 43.5121C46.4004 44.6349 46.5468 46.2946 46.5468 48.4426C46.5468 50.5905 46.4167 52.291 45.5217 53.5684C44.8139 54.5772 43.3412 55.6756 39.9891 56.2045V41.836Z" fill="#CD4C3A"></path><path id="Vector_2" d="M112.718 101.799C106.779 102.32 101.238 99.3993 97.1293 93.5656C96.8038 93.11 96.275 92.8741 95.7054 92.9229C95.5915 92.931 95.4858 92.9554 95.3719 92.988C93.6307 93.4843 91.914 93.8097 90.2786 93.9562C84.6077 94.4525 79.7586 92.7602 76.6262 89.1965C73.2009 85.2993 72.0293 79.4413 73.331 72.7127C73.4612 72.0211 73.1765 71.3458 72.6069 71.0123C66.4723 67.4079 63.0876 62.1276 63.0876 56.1394C63.0876 50.1512 66.4723 44.2769 72.6069 39.5986C73.1846 39.1592 73.4694 38.4351 73.331 37.768C72.0293 31.259 73.2009 25.1976 76.6262 20.6983C79.7586 16.5814 84.6077 14.043 90.2786 13.5467C91.9221 13.4002 93.6389 13.4328 95.38 13.6199C95.4939 13.6362 95.5997 13.6362 95.7136 13.6199C96.275 13.5711 96.812 13.2456 97.1374 12.733C101.246 6.19159 106.779 2.29437 112.726 1.7818C118.666 1.26108 124.198 4.18196 128.315 10.0074C128.641 10.4631 129.169 10.699 129.739 10.6502C129.853 10.6421 129.959 10.6176 130.073 10.5851C131.814 10.0888 133.53 9.76335 135.166 9.6169C140.837 9.1206 145.686 10.8129 148.818 14.3765C152.244 18.2738 153.415 24.1318 152.113 30.8604C151.983 31.552 152.268 32.2272 152.837 32.569C158.98 36.1733 162.365 41.4536 162.365 47.4418C162.365 53.43 158.98 59.3043 152.837 63.9826C152.26 64.422 151.975 65.1461 152.113 65.8133C153.407 72.314 152.244 78.3755 148.818 82.8747C145.686 86.9835 140.837 89.522 135.174 90.0183C133.539 90.1647 131.822 90.1322 130.089 89.9451C129.975 89.9288 129.869 89.9288 129.755 89.9451C129.194 89.9939 128.657 90.3193 128.331 90.8319C124.223 97.3815 118.682 101.271 112.743 101.791L112.718 101.799Z" fill="#FBD576"></path><path id="Vector_3" d="M223.549 54.6342C230.074 48.3369 231.848 40.3146 231.848 32.0076C231.848 23.7006 230.066 15.9143 223.557 10.6828C217.097 5.50005 206.316 3.15684 189.051 4.9468C188.75 4.9712 188.482 4.98748 188.189 4.99561C188.034 4.99561 187.872 5.01188 187.701 5.02002C187.253 5.04443 186.749 5.08511 186.22 5.19088L153.846 8.02226L152.227 8.16057V10.5201C152.561 13.5223 152.667 16.4513 152.667 19.5105V32.4226C152.724 32.4632 152.764 32.5202 152.829 32.5609C158.972 36.1652 162.357 41.4455 162.357 47.4337C162.357 53.4219 158.972 59.2962 152.829 63.9745C152.764 64.0233 152.724 64.0884 152.667 64.1372V77.0656C152.667 78.6196 152.561 80.9791 152.447 82.9643C152.39 83.9569 152.341 84.8437 152.292 85.4865C152.276 85.8119 152.252 86.0642 152.244 86.2432L152.227 86.4466V86.4954V86.5117L152.105 88.3179L153.887 88.1145C164.708 86.8941 173.601 86.113 179.793 85.6411C182.884 85.4051 185.301 85.2424 186.944 85.1448C187.766 85.096 188.392 85.0553 188.816 85.039C189.027 85.0309 189.182 85.0227 189.287 85.0146H189.409L189.442 85.0065L191.403 84.9088L191.102 82.9724C190.679 80.2143 190.459 77.3178 190.459 74.4051V66.4886C206.902 64.8288 217.268 60.655 223.541 54.5936L223.549 54.6342ZM190.459 28.6637C193.754 28.6148 195.227 29.4447 195.959 30.3397C196.87 31.4625 197.017 33.1223 197.017 35.2702C197.017 37.4181 196.887 39.1186 195.992 40.396C195.284 41.4049 193.811 42.5032 190.459 43.0321V28.6637Z" fill="#CD4C3A"></path><path id="Vector_4" d="M108.113 108.642C108.658 108.593 109.228 108.52 109.805 108.422L100.522 99.7654C98.7891 98.4229 97.17 96.7225 95.7136 94.6559C93.8341 95.1929 92.0198 95.5346 90.2868 95.6892C88.863 95.8112 87.5042 95.7949 86.2106 95.6729L96.5923 105.225C99.4318 107.877 103.41 109.057 108.121 108.642H108.113Z" fill="#7EC7BC"></path><path id="Vector_5" d="M152.984 104.712C153.545 104.663 154.099 104.582 154.644 104.493C154.823 104.46 155.002 104.427 155.173 104.395C155.547 104.322 155.905 104.232 156.271 104.143C156.458 104.094 156.653 104.045 156.84 103.996C157.28 103.866 157.711 103.72 158.134 103.557C158.427 103.443 158.72 103.321 159.005 103.191C159.151 103.126 159.298 103.061 159.436 102.995C160.502 102.491 161.503 101.881 162.422 101.181L150.909 89.6685C150.608 89.3674 150.454 88.9362 150.478 88.4887C150.478 88.4887 150.478 88.4725 150.478 88.4643C150.478 88.3911 150.462 88.3179 150.47 88.2446L150.592 86.471V86.4547V86.3733L150.657 85.4295C150.698 84.7868 150.755 83.8999 150.803 82.9155C150.803 82.9073 150.803 82.8992 150.803 82.8911C147.468 87.8866 141.951 91.1737 135.133 91.7757C134.482 91.8327 133.807 91.8571 133.132 91.8652C132.383 93.4518 131.529 94.8186 130.789 95.8519C130.683 95.9984 130.585 96.1286 130.496 96.2587C130.496 96.2669 130.479 96.275 130.479 96.2831C130.39 96.4052 130.3 96.5272 130.211 96.633C130.203 96.6493 130.195 96.6574 130.178 96.6737C130.097 96.7795 130.016 96.8852 129.942 96.9747C129.934 96.9829 129.926 96.9991 129.918 97.0073C129.845 97.0968 129.772 97.1863 129.706 97.2676C129.698 97.2839 129.682 97.292 129.674 97.3083C129.609 97.3815 129.552 97.4548 129.503 97.5198C129.495 97.528 129.487 97.5443 129.479 97.5524C129.43 97.6093 129.381 97.6663 129.34 97.7151C129.332 97.7232 129.324 97.7314 129.316 97.7395C129.275 97.7802 129.243 97.8209 129.21 97.8534C129.194 97.8697 129.186 97.8778 129.178 97.886C129.129 97.9348 129.096 97.9755 129.096 97.9755C128.852 98.2277 128.844 98.6182 129.072 98.846C129.194 98.9599 129.348 99.0088 129.511 99.0006C129.658 98.9844 129.812 98.9193 129.926 98.7972C130.04 98.6752 132.644 95.917 134.45 91.8164L135.996 93.2565C134.084 97.5117 131.513 100.221 131.488 100.245C131.244 100.498 131.236 100.888 131.464 101.116C131.586 101.23 131.74 101.287 131.903 101.271C132.05 101.254 132.204 101.189 132.318 101.067C132.424 100.953 134.914 98.3416 136.899 94.1108L138.453 95.559C136.329 99.9607 133.913 102.491 133.888 102.515C133.644 102.768 133.628 103.158 133.864 103.386C133.986 103.508 134.149 103.557 134.312 103.541C134.458 103.524 134.613 103.459 134.726 103.337C134.832 103.231 137.184 100.774 139.364 96.3971L140.926 97.8534C138.599 102.393 136.321 104.753 136.297 104.777C136.053 105.03 136.036 105.42 136.264 105.648C136.386 105.77 136.549 105.819 136.712 105.802C136.858 105.786 137.005 105.721 137.127 105.607C137.224 105.51 139.454 103.207 141.821 98.6833L143.391 100.148C140.853 104.834 138.729 107.015 138.705 107.039C138.461 107.291 138.445 107.682 138.664 107.91C138.786 108.032 138.949 108.081 139.112 108.072C139.258 108.056 139.405 107.991 139.519 107.877C139.608 107.788 141.707 105.64 144.27 100.978L145.849 102.45C142.602 107.836 141.138 109.285 141.121 109.301C140.869 109.545 140.837 109.927 141.056 110.172C141.178 110.302 141.349 110.359 141.52 110.351C141.658 110.334 141.797 110.277 141.911 110.172C141.959 110.131 142.781 109.334 144.539 106.714C144.596 106.616 144.661 106.535 144.718 106.437C144.726 106.421 144.742 106.405 144.758 106.38C145.328 105.526 145.971 104.509 146.727 103.272L147.842 104.305C147.956 104.411 148.045 104.533 148.119 104.655C148.159 104.655 148.192 104.655 148.232 104.655C149.86 104.834 151.462 104.859 152.992 104.728L152.984 104.712Z" fill="#7EC7BC"></path><path id="Vector_6" d="M215.632 78.8718C215.583 78.5382 215.282 78.3267 214.949 78.408C211.157 79.2542 206.886 79.8888 202.248 80.3119C202.159 80.3119 202.077 80.3444 202.004 80.3933L200.027 78.4162C204.372 77.9931 208.407 77.3829 212.012 76.5774C212.345 76.5042 212.581 76.1787 212.532 75.8452C212.492 75.5116 212.182 75.3 211.849 75.3814C208.057 76.2276 203.778 76.8622 199.148 77.2853C199.075 77.2853 199.01 77.3178 198.953 77.3422L196.992 75.3814C201.313 74.9583 205.332 74.3481 208.912 73.5508C209.245 73.4775 209.481 73.144 209.432 72.8185C209.392 72.4849 209.083 72.2734 208.749 72.3548C204.958 73.2009 200.686 73.8355 196.049 74.2586C196 74.2586 195.951 74.283 195.902 74.2993L193.949 72.3466C198.245 71.9235 202.24 71.3133 205.812 70.5241C206.145 70.4509 206.381 70.1254 206.333 69.7919C206.292 69.4583 205.983 69.2467 205.649 69.3281C201.858 70.1743 197.578 70.8089 192.949 71.232C192.916 71.232 192.892 71.2482 192.859 71.2564L192.094 70.4916V74.462C192.094 75.1699 192.111 75.8696 192.135 76.5693C192.216 78.6521 192.412 80.6862 192.713 82.6551L192.949 84.1928L195.129 86.3733C192.184 86.5523 189.312 86.7395 186.472 86.9591C186.139 86.9917 185.87 87.2846 185.862 87.6182C185.862 87.9599 186.131 88.2121 186.464 88.1877C189.678 87.9355 192.924 87.7239 196.284 87.5287L198.091 89.3349C195.202 89.5057 192.395 89.701 189.605 89.9126C189.271 89.9451 189.003 90.238 188.994 90.5716C188.994 90.9133 189.263 91.1655 189.597 91.1411C192.762 90.897 195.943 90.6855 199.246 90.4902L201.052 92.2964C198.213 92.4673 195.455 92.6544 192.737 92.866C192.404 92.8985 192.135 93.1914 192.127 93.525C192.127 93.8667 192.395 94.1189 192.729 94.0945C195.821 93.8586 198.953 93.647 202.216 93.4518L204.022 95.258C201.248 95.4289 198.563 95.6079 195.878 95.8194C195.544 95.8519 195.276 96.1448 195.267 96.4784C195.267 96.8201 195.536 97.0724 195.87 97.048C198.929 96.812 201.996 96.6086 205.185 96.4215L205.421 96.6574C205.234 94.7698 205.137 92.8497 205.137 90.897V83.5175L203.086 81.4672C207.455 81.0442 211.515 80.4258 215.128 79.6203C215.461 79.5471 215.697 79.2135 215.648 78.8881L215.632 78.8718Z" fill="#7EC7BC"></path><path id="Vector_7" d="M198.994 98.7565C198.66 98.7891 198.392 99.082 198.384 99.4156C198.384 99.7573 198.652 100.009 198.986 99.9851C201.247 99.8142 203.477 99.6596 205.755 99.5132C205.698 99.1145 205.641 98.7077 205.592 98.3009C203.379 98.4392 201.207 98.5938 199.002 98.7647L198.994 98.7565Z" fill="#7EC7BC"></path><path id="Vector_8" d="M203.233 66.7489C203.192 66.456 202.94 66.2689 202.655 66.277H202.639C199.401 67.0012 195.886 67.5707 192.094 68.0019V69.1654C195.918 68.7504 199.498 68.1972 202.712 67.4812C203.046 67.408 203.282 67.0744 203.233 66.7489Z" fill="#7EC7BC"></path><path id="Vector_9" d="M55.2769 112.678C55.22 112.279 55.163 111.872 55.1142 111.465C52.9012 111.604 50.7288 111.758 48.5239 111.929C48.1903 111.962 47.9218 112.254 47.9137 112.588C47.9137 112.93 48.1822 113.182 48.5158 113.158C50.7776 112.987 53.0069 112.832 55.285 112.686L55.2769 112.678Z" fill="#7EC7BC"></path><path id="Vector_10" d="M64.4709 91.5723C60.6794 92.4185 56.408 93.0531 51.7703 93.4761C51.6809 93.4761 51.5995 93.5087 51.5263 93.5575L49.5492 91.5804C53.8939 91.1573 57.9294 90.5471 61.5337 89.7417C61.8673 89.6684 62.1032 89.343 62.0544 89.0094C62.0138 88.6758 61.7046 88.4643 61.371 88.5456C57.5796 89.3918 53.2999 90.0264 48.6705 90.4495C48.5973 90.4495 48.5322 90.482 48.4752 90.5065L46.5144 88.5456C50.8347 88.1226 54.8539 87.5124 58.4339 86.715C58.7674 86.6418 59.0034 86.3082 58.9546 85.9828C58.9139 85.6492 58.6047 85.4376 58.2711 85.519C54.4797 86.3652 50.2082 86.9998 45.5706 87.4229C45.5218 87.4229 45.473 87.4473 45.4242 87.4635L43.4715 85.5109C47.7674 85.0878 51.7622 84.4776 55.334 83.6884C55.6676 83.6151 55.9035 83.2897 55.8547 82.9561C55.814 82.6225 55.5048 82.411 55.1713 82.4924C51.3798 83.3385 47.1002 83.9731 42.4707 84.3962C42.4382 84.3962 42.4056 84.4125 42.3812 84.4206L41.6164 83.6558V87.6263C41.6164 88.3341 41.6327 89.0338 41.6571 89.7335C41.7385 91.8164 41.9338 93.8504 42.2348 95.8194L42.4707 97.3571L44.6512 99.5376C41.7059 99.7166 38.8339 99.9037 35.9944 100.123C35.6608 100.156 35.3923 100.449 35.3842 100.782C35.3842 101.124 35.6526 101.376 35.9862 101.352C39.2 101.1 42.4463 100.888 45.8066 100.693L47.6128 102.499C44.7244 102.67 41.9175 102.865 39.1268 103.077C38.7932 103.109 38.5247 103.402 38.5166 103.736C38.5166 104.078 38.7851 104.33 39.1186 104.305C42.2836 104.061 45.4648 103.85 48.7681 103.654L50.5743 105.461C47.7348 105.632 44.9767 105.819 42.2592 106.03C41.9256 106.063 41.6571 106.356 41.649 106.689C41.649 107.031 41.9175 107.283 42.2511 107.259C45.3428 107.023 48.4752 106.811 51.7378 106.616L53.544 108.422C50.7696 108.593 48.0847 108.772 45.3997 108.984C45.0662 109.016 44.7977 109.309 44.7895 109.643C44.7895 109.984 45.058 110.237 45.3916 110.212C48.4508 109.976 51.5181 109.773 54.7075 109.586L54.9434 109.822C54.7563 107.934 54.6587 106.014 54.6587 104.061V96.6818L52.6084 94.6315C56.9775 94.2084 61.0374 93.5901 64.6499 92.7846C64.9834 92.7114 65.2194 92.3778 65.1706 92.0523C65.1218 91.7187 64.8207 91.5072 64.4871 91.5886L64.4709 91.5723Z" fill="#7EC7BC"></path><path id="Vector_11" d="M52.7547 79.9132C52.714 79.6203 52.4618 79.4332 52.177 79.4413H52.1608C48.9226 80.1654 45.4078 80.7349 41.6163 81.1662V82.3215C45.4403 81.9065 49.0202 81.3533 52.234 80.6373C52.5676 80.5641 52.8035 80.2305 52.7547 79.9051V79.9132Z" fill="#7EC7BC"></path><path id="Vector_12" d="M130.512 89.9939C128.958 93.289 126.712 95.6811 126.688 95.7055C126.444 95.9577 126.436 96.3482 126.672 96.576C126.794 96.6899 126.948 96.7388 127.111 96.7306C127.266 96.7144 127.412 96.6493 127.534 96.5272C127.648 96.4052 130.121 93.7691 131.773 90.0915C131.358 90.0753 130.935 90.0427 130.52 90.002L130.512 89.9939Z" fill="#7EC7BC"></path><path id="Vector_13" d="M190.437 27.0383C189.55 27.0545 188.834 27.7787 188.834 28.6656V43.035C188.834 43.5069 189.046 43.9626 189.404 44.2718C189.696 44.524 190.079 44.6624 190.461 44.6624C190.543 44.6624 190.632 44.6624 190.714 44.6461C193.96 44.1335 196.116 43.0513 197.321 41.3344C198.541 39.6013 198.639 37.4777 198.639 35.2726C198.639 33.0676 198.533 30.9358 197.215 29.3165C195.929 27.7299 193.708 26.9895 190.429 27.0383H190.437Z" fill="black"></path><path id="Vector_14" d="M39.9654 40.2034C39.0785 40.2197 38.3624 40.9439 38.3624 41.8308V56.2002C38.3624 56.6721 38.574 57.1278 38.932 57.437C39.2249 57.6892 39.6073 57.8275 39.9898 57.8275C40.0711 57.8275 40.1606 57.8275 40.242 57.8112C43.4885 57.2986 45.6448 56.2165 46.849 54.4996C48.0695 52.7665 48.1671 50.6428 48.1671 48.4378C48.1671 46.2327 48.0614 44.1009 46.7432 42.4817C45.4576 40.8951 43.2363 40.1546 39.9572 40.2034H39.9654Z" fill="black"></path><path id="Vector_15" d="M249.717 46.4117C249.433 37.6729 246.943 31.2205 242.159 26.7535L241.996 26.5907C241.996 26.5907 241.931 26.5257 241.915 26.5094C241.882 26.4768 241.85 26.4443 241.833 26.428L241.752 26.3466C241.752 26.3466 241.687 26.2816 241.663 26.2571L240.613 25.2075C240.613 25.2075 240.548 25.1424 240.532 25.1261L239.393 23.987C239.393 23.987 239.327 23.9219 239.311 23.9056L238.172 22.7665C238.172 22.7665 238.107 22.7014 238.091 22.6851L236.952 21.546C236.952 21.546 236.887 21.4809 236.87 21.4646C236.838 21.4321 236.805 21.3995 236.789 21.3833L236.708 21.3019C236.708 21.3019 236.643 21.2368 236.618 21.2124L235.569 20.1628C235.569 20.1628 235.503 20.0977 235.487 20.0814L234.348 18.9423C234.348 18.9423 234.283 18.8772 234.267 18.8609L233.209 17.8031C233.209 17.8031 233.144 17.738 233.128 17.7217C233.095 17.6892 233.063 17.6567 233.046 17.6404L232.965 17.559C232.965 17.559 232.9 17.4939 232.875 17.4695L231.907 16.5012C231.907 16.5012 231.842 16.4362 231.826 16.4199C231.793 16.3873 231.761 16.3548 231.744 16.3385L230.687 15.2807C230.687 15.2807 230.622 15.2156 230.605 15.1994L230.443 15.0366C230.443 15.0366 230.378 14.9715 230.353 14.9471L229.222 13.8161C229.222 13.8161 229.157 13.751 229.133 13.7266L228.165 12.7584C228.165 12.7584 228.099 12.6933 228.083 12.677C228.051 12.6444 228.018 12.6119 228.002 12.5956L226.781 11.3751C226.781 11.3751 226.716 11.31 226.7 11.2938C226.497 11.0741 226.277 10.8625 226.065 10.6591C226.049 10.6428 226.033 10.6347 226.033 10.6265C226.017 10.6103 226 10.6021 225.992 10.5859C225.911 10.5126 225.821 10.4557 225.724 10.4069C225.358 10.0651 224.975 9.73965 224.585 9.42232C217.319 3.58831 205.643 1.60295 188.923 3.33607C188.647 3.36048 188.395 3.36862 188.11 3.38489L187.614 3.4093C187.15 3.43371 186.597 3.47439 186.003 3.58831L152.091 6.5582C151.253 6.63143 150.602 7.33932 150.602 8.1774V10.4557C150.602 10.5126 150.602 10.5696 150.61 10.6184V10.7161C150.724 11.7006 150.805 12.7095 150.87 13.7429C150.284 13.2059 149.699 12.6607 149.105 12.1237C149.007 12.0342 148.909 11.9528 148.804 11.8633C148.796 11.8552 148.787 11.8471 148.779 11.8389C148.527 11.6192 148.275 11.4077 148.006 11.2043C148.006 11.2043 147.998 11.1961 147.99 11.188C147.176 10.5615 146.298 10.0244 145.354 9.56064C145.329 9.54437 145.297 9.53623 145.273 9.51996C144.996 9.38977 144.719 9.26772 144.435 9.15381C144.378 9.1294 144.312 9.10499 144.247 9.08058C143.987 8.9748 143.727 8.8853 143.458 8.78766C143.393 8.76325 143.32 8.73884 143.255 8.71442C142.97 8.62492 142.677 8.53542 142.384 8.45405C142.335 8.43778 142.295 8.42964 142.246 8.41337C141.562 8.23436 140.855 8.09604 140.122 7.9984C140.025 7.98212 139.927 7.97399 139.829 7.96585C139.569 7.9333 139.301 7.90889 139.032 7.88448C138.91 7.87634 138.78 7.86821 138.658 7.86007C138.406 7.8438 138.153 7.83566 137.901 7.82752C137.771 7.82752 137.633 7.82752 137.502 7.81939C137.234 7.81939 136.965 7.81939 136.697 7.81939C136.575 7.81939 136.461 7.81939 136.339 7.81939C135.948 7.83566 135.558 7.86007 135.159 7.89262C134.761 7.92517 134.362 7.97399 133.955 8.03094C133.67 8.07163 133.386 8.12045 133.101 8.16927C132.995 8.18554 132.889 8.20181 132.775 8.22622C132.409 8.29132 132.035 8.37268 131.661 8.45405C131.644 8.45405 131.62 8.45405 131.604 8.46219C131.205 8.55169 130.798 8.64933 130.4 8.75511C128.943 7.41255 127.487 6.07814 126.03 4.73558C125.583 4.33688 125.127 3.97887 124.672 3.62899C124.558 3.54762 124.452 3.46626 124.338 3.38489C123.874 3.05128 123.41 2.73395 122.939 2.45731C122.459 2.17252 121.978 1.92028 121.482 1.68432C121.368 1.62736 121.246 1.57041 121.124 1.52159C120.636 1.30189 120.14 1.09848 119.643 0.91947C119.139 0.748599 118.635 0.610275 118.13 0.480088C118.008 0.447541 117.878 0.423131 117.756 0.390584C117.251 0.276671 116.739 0.17903 116.226 0.122073C115.714 0.0569799 115.201 0.0325698 114.68 0.0162964C114.55 0.0162964 114.42 0.0162964 114.29 0.0162964C113.777 0.0162964 113.256 0.0244331 112.744 0.0732533C107.699 0.512635 102.663 3.23029 98.4892 8.14486C98.4648 8.1774 98.4404 8.20995 98.4159 8.23436C97.4721 9.34909 96.5772 10.5777 95.7391 11.9121C93.8515 11.7006 92.0371 11.6762 90.3041 11.8308C82.8025 12.4899 76.8712 16.4036 73.6899 22.2702C66.3998 16.6965 54.8627 14.8007 38.46 16.5012C38.1834 16.5257 37.9311 16.5338 37.6464 16.5501L37.1501 16.5745C36.6863 16.5989 36.133 16.6396 35.5391 16.7535L1.60284 19.7152C0.764807 19.7885 0.113907 20.4964 0.113907 21.3344V23.6127C0.113907 23.6697 0.113907 23.7266 0.122044 23.7755V23.8731C0.423084 26.5501 0.553264 29.3572 0.553264 32.6933V90.2604C0.553264 91.5135 0.480038 93.4744 0.341722 96.07C0.284768 97.0545 0.235951 97.9414 0.19527 98.5842L0.13018 99.5281V99.6095V99.6257L0 101.408C0 101.481 0 101.554 0.00813624 101.627C0.00813624 101.627 0.00813624 101.644 0.00813624 101.652C-0.0244087 102.107 0.13018 102.531 0.439357 102.832L16.3864 118.78C16.3864 118.78 16.4108 118.804 16.4271 118.82C16.4433 118.836 16.4677 118.861 16.484 118.877C16.484 118.877 16.5003 118.893 16.5084 118.893C16.5247 118.918 16.5491 118.934 16.5654 118.959C16.5654 118.959 16.5817 118.975 16.5898 118.983C16.6061 118.999 16.6305 119.024 16.6467 119.04C16.9641 119.341 17.3871 119.512 17.859 119.439C35.0184 117.526 44.9364 116.672 57.1489 116.037C57.1652 116.037 57.1896 116.037 57.2059 116.037C57.6697 115.997 58.109 115.761 58.4182 115.387C58.7355 114.996 58.882 114.491 58.8087 114.02L58.5077 112.091C58.0927 109.422 57.8893 106.623 57.8893 103.767V97.4532C58.0114 97.437 58.1253 97.4207 58.2392 97.4126C59.0203 97.3231 59.7932 97.2254 60.558 97.1196C60.6394 97.1115 60.7126 97.0952 60.794 97.0871C67.4087 96.1758 73.096 94.8007 77.9289 92.9292C83.3476 97.9089 88.7582 102.897 94.177 107.876C97.5535 111.025 102.378 112.596 108.122 112.091C109.636 111.961 111.214 111.676 112.842 111.245L112.972 111.367L113.045 111.44L113.387 111.766L113.46 111.839L113.81 112.164L113.883 112.238L114.225 112.563L114.298 112.636L114.64 112.962L114.713 113.035L115.055 113.36L115.128 113.434L115.372 113.662C115.852 114.117 116.348 114.54 116.853 114.939C116.975 115.053 117.105 115.167 117.227 115.289C121.206 118.836 125.868 120.374 130.53 119.967C136.746 119.422 142.954 115.427 147.543 108.112C149.422 108.324 151.236 108.34 152.961 108.194C157.583 107.787 161.61 106.143 164.759 103.572L166.834 105.647C166.834 105.647 166.858 105.671 166.874 105.688C166.891 105.704 166.915 105.728 166.931 105.745C166.931 105.745 166.947 105.761 166.956 105.761C166.972 105.785 166.996 105.801 167.013 105.826C167.013 105.826 167.029 105.842 167.037 105.85C167.053 105.867 167.078 105.891 167.094 105.907C167.411 106.208 167.834 106.379 168.306 106.306C185.466 104.394 195.384 103.539 207.596 102.905C207.612 102.905 207.637 102.905 207.653 102.905C208.117 102.864 208.556 102.628 208.865 102.254C209.183 101.863 209.329 101.359 209.256 100.887L208.955 98.9585C208.54 96.2897 208.337 93.4907 208.337 90.6347V84.3206C208.459 84.3043 208.572 84.2881 208.686 84.2799C209.467 84.1904 210.24 84.0928 211.005 83.987C211.087 83.9789 211.16 83.9626 211.241 83.9545C224.91 82.0749 234.657 78.2018 240.93 72.14C246.935 66.3385 249.726 58.7795 249.726 48.3401C249.726 47.6973 249.709 47.0708 249.693 46.4443L249.717 46.4117ZM150.895 14.1253C150.895 14.1253 150.895 14.1253 150.895 14.1172C150.895 13.9951 150.887 13.865 150.878 13.7429C150.878 13.8731 150.895 13.9951 150.903 14.1253H150.895ZM48.5083 113.157C48.1747 113.181 47.9062 112.929 47.9062 112.587C47.9062 112.254 48.1828 111.961 48.5164 111.928C50.7213 111.758 52.8937 111.611 55.1067 111.465C55.1556 111.871 55.2125 112.278 55.2695 112.677C52.9913 112.823 50.762 112.978 48.5001 113.149L48.5083 113.157ZM64.6343 92.7746C61.0137 93.5802 56.9618 94.1986 52.5926 94.6217L54.643 96.6721V104.052C54.643 106.005 54.7488 107.925 54.9278 109.813L54.6918 109.577C51.5024 109.764 48.435 109.967 45.3758 110.203C45.0422 110.228 44.7737 109.976 44.7737 109.634C44.7737 109.3 45.0504 109.007 45.3839 108.975C48.0689 108.763 50.7539 108.584 53.5283 108.413L51.7221 106.607C48.4594 106.794 45.327 107.006 42.2352 107.25C41.9016 107.274 41.6331 107.022 41.6331 106.68C41.6331 106.347 41.9098 106.054 42.2434 106.021C44.9609 105.81 47.719 105.622 50.5586 105.452L48.7523 103.645C45.449 103.832 42.2596 104.052 39.1028 104.296C38.7692 104.321 38.5007 104.068 38.5007 103.727C38.5007 103.393 38.7773 103.1 39.1109 103.068C41.8935 102.856 44.7086 102.661 47.597 102.49L45.7908 100.684C42.4223 100.879 39.1841 101.09 35.9703 101.343C35.6367 101.367 35.3682 101.115 35.3682 100.773C35.3682 100.439 35.6449 100.146 35.9785 100.114C38.818 99.8943 41.682 99.699 44.6354 99.52L42.4549 97.3393L42.2189 95.8015C41.9179 93.8324 41.7226 91.7901 41.6413 89.7152C41.6169 89.0155 41.6006 88.3157 41.6006 87.6078V83.6371L42.3654 84.402C42.3654 84.402 42.4224 84.3776 42.4549 84.3776C47.0844 83.9545 51.3641 83.3198 55.1556 82.4736C55.4892 82.3922 55.7983 82.6119 55.839 82.9374C55.8797 83.271 55.6519 83.5965 55.3183 83.6697C51.7465 84.4589 47.7516 85.0692 43.4557 85.4923L45.4084 87.4451C45.4572 87.4288 45.506 87.4044 45.5548 87.4044C50.1925 86.9813 54.464 86.3467 58.2555 85.5004C58.5891 85.4191 58.8982 85.6388 58.9389 85.9642C58.9796 86.2978 58.7518 86.6233 58.4182 86.6965C54.8383 87.4939 50.819 88.1042 46.4986 88.5273L48.4594 90.4882C48.5245 90.4638 48.5896 90.4394 48.6547 90.4313C53.2842 90.0082 57.5639 89.3735 61.3554 88.5273C61.689 88.4459 61.99 88.6656 62.0388 88.9911C62.0795 89.3247 61.8517 89.6501 61.5181 89.7234C57.9138 90.5208 53.8782 91.1392 49.5334 91.5623L51.5105 93.5395C51.5838 93.4988 51.6651 93.4663 51.7546 93.4581C56.3923 93.035 60.6638 92.4004 64.4553 91.5541C64.7889 91.4809 65.0899 91.6843 65.1387 92.0179C65.1794 92.3515 64.9516 92.677 64.618 92.7502L64.6343 92.7746ZM41.6169 82.3353V81.1798C45.4084 80.7486 48.9232 80.1709 52.1614 79.4549H52.1777C52.4625 79.4386 52.7147 79.6257 52.7554 79.9268C52.7961 80.2604 52.5682 80.5859 52.2347 80.6591C49.0208 81.3751 45.4409 81.9284 41.6169 82.3434V82.3353ZM39.8269 78.0798C39.0377 78.1611 38.4275 78.8039 38.3705 79.5851C38.3705 79.6095 38.3705 79.6257 38.3705 79.6502C38.3705 79.6664 38.3705 79.6827 38.3705 79.699V87.616C38.3705 88.3971 38.3868 89.1782 38.4193 89.9593C38.5007 92.2213 38.7041 94.4427 39.0377 96.5826H38.8994C38.8994 96.5826 38.8668 96.5826 38.8505 96.5908L38.2566 96.6233C37.8335 96.6477 37.207 96.6803 36.3771 96.7291C34.9126 96.8186 32.4717 96.9813 29.201 97.2254C23.5788 97.6567 14.5476 98.4296 3.40095 99.6908L3.4579 98.7958C3.49858 98.1449 3.55554 97.258 3.61249 96.2572C3.75894 93.5965 3.83217 91.5786 3.83217 90.2685V32.6933C3.83217 29.2352 3.69385 26.3222 3.39281 23.5313V22.8235L35.9052 19.9756C35.9622 19.9756 36.0191 19.9593 36.0842 19.9512C36.5154 19.8617 36.9467 19.8292 37.3453 19.8129L37.8091 19.7885C38.1264 19.7722 38.4193 19.7641 38.7692 19.7315C54.6267 18.0879 65.5211 19.8536 72.0871 25.118C72.1766 25.1912 72.2579 25.2645 72.3474 25.3377C71.5338 27.7136 71.1026 30.3092 71.1351 33.0838C71.1514 34.7437 71.3304 36.4687 71.6884 38.2344C71.2816 38.5436 70.8911 38.8609 70.5087 39.1782C70.3866 39.2759 70.2727 39.3816 70.1588 39.4793C69.9066 39.699 69.6462 39.9187 69.4021 40.1383C69.2638 40.2604 69.1336 40.3906 69.0034 40.5126C68.7838 40.7161 68.5722 40.9276 68.3607 41.131C68.2305 41.2612 68.1003 41.3995 67.9701 41.5297C67.7749 41.7331 67.5796 41.9447 67.3925 42.1481C67.2704 42.2864 67.1484 42.4166 67.0263 42.5549C66.8392 42.7665 66.6602 42.9862 66.4812 43.1977C66.3754 43.3279 66.2615 43.4581 66.1558 43.5964C65.9686 43.8324 65.7896 44.0684 65.6188 44.3125C65.5374 44.4264 65.4479 44.5403 65.3665 44.6542C65.1225 44.996 64.8865 45.3458 64.6668 45.6957C64.6668 45.6957 64.6587 45.712 64.6506 45.7201C64.4227 46.0781 64.2112 46.4362 64.0078 46.8023C63.9427 46.9244 63.8776 47.0383 63.8207 47.1603C63.6905 47.4044 63.5603 47.6485 63.4383 47.8926C63.365 48.0309 63.2999 48.1774 63.2349 48.3239C63.1291 48.5517 63.0314 48.7714 62.9338 48.9992C62.8687 49.1538 62.8118 49.3003 62.7467 49.4549C62.6572 49.6746 62.5758 49.8942 62.4945 50.1139C62.4375 50.2685 62.3887 50.4231 62.3399 50.5777C62.2666 50.8056 62.2015 51.0252 62.1365 51.2531C62.0958 51.3995 62.047 51.5541 62.0063 51.7006C61.9412 51.9447 61.8842 52.1807 61.8354 52.4248C61.8029 52.555 61.7703 52.6851 61.7459 52.8153C61.6808 53.1408 61.6239 53.4744 61.5751 53.7999C61.5751 53.8487 61.5588 53.8975 61.5506 53.9463C61.5018 54.3043 61.4693 54.6705 61.4367 55.0285C61.4286 55.1587 61.4286 55.297 61.4205 55.4272C61.4123 55.6632 61.3961 55.8991 61.3961 56.1432C61.3961 56.2978 61.3961 56.4443 61.3961 56.5989C61.3961 56.8186 61.4042 57.0301 61.4205 57.2498C61.4286 57.4044 61.4449 57.5672 61.453 57.7218C61.4693 57.9333 61.4937 58.1449 61.5181 58.3483C61.5344 58.5029 61.5588 58.6656 61.5832 58.8202C61.6157 59.0318 61.6564 59.2433 61.689 59.4467C61.7215 59.6013 61.7459 59.7478 61.7785 59.9024C61.8273 60.1221 61.8842 60.3418 61.9412 60.5615C61.9737 60.6998 62.0063 60.8381 62.047 60.9764C62.1283 61.2612 62.2178 61.5379 62.3155 61.8145C62.348 61.904 62.3805 61.9935 62.4131 62.0912C62.527 62.4085 62.6572 62.7258 62.7955 63.0432C62.8524 63.1733 62.9175 63.3035 62.9745 63.4337C63.0721 63.6453 63.1698 63.8568 63.2755 64.0602C63.3488 64.2067 63.4301 64.345 63.5115 64.4915C63.6173 64.6786 63.723 64.8739 63.8369 65.0611C63.9264 65.2075 64.0159 65.354 64.1054 65.4923C64.2193 65.6713 64.3414 65.8585 64.4634 66.0375C64.5611 66.1758 64.6587 66.3222 64.7645 66.4606C64.8946 66.6396 65.033 66.8186 65.1713 66.9976C65.277 67.1359 65.3828 67.2661 65.4967 67.4044C65.6513 67.5916 65.814 67.7706 65.9768 67.9577C66.0825 68.0798 66.1883 68.2018 66.2941 68.3157C66.5138 68.5436 66.7416 68.7714 66.9694 68.9992C67.0345 69.0643 67.0996 69.1375 67.1728 69.2026C67.4087 69.4223 67.6528 69.642 67.8888 69.8617C61.4367 74.1335 52.1858 76.843 39.8188 78.096L39.8269 78.0798ZM108.114 108.641C103.403 109.056 99.4248 107.876 96.5853 105.224L86.2116 95.6794C87.5053 95.8015 88.864 95.8096 90.2797 95.6794C92.0127 95.5248 93.8271 95.1912 95.7066 94.6461C97.163 96.7128 98.7821 98.4134 100.515 99.7559L109.799 108.413C109.221 108.511 108.651 108.584 108.106 108.633L108.114 108.641ZM112.719 100.081C107.366 100.553 102.329 97.8519 98.5543 92.4899C97.9115 91.5785 96.8375 91.1066 95.7066 91.2043C95.4869 91.2205 95.2672 91.2612 95.0394 91.3263C93.404 91.7982 91.8012 92.0993 90.2797 92.2295C85.162 92.677 80.8173 91.188 78.0184 88.0472C77.9208 87.9414 77.8313 87.8275 77.7418 87.7218C77.6523 87.6078 77.5546 87.5021 77.4651 87.38C77.3838 87.2742 77.3024 87.1522 77.221 87.0464C77.1234 86.9081 77.0258 86.7698 76.9281 86.6314C76.8712 86.5419 76.8142 86.4524 76.7573 86.3548C76.6515 86.1839 76.5457 86.013 76.4481 85.834C76.4156 85.7771 76.3911 85.7283 76.3667 85.6713C75.6833 84.402 75.187 82.9943 74.8859 81.4646V81.4484C74.8453 81.2287 74.8127 81.009 74.772 80.7812C74.7558 80.6591 74.7314 80.5452 74.7151 80.4231C74.6907 80.2604 74.6825 80.0977 74.6581 79.9268C74.6337 79.7397 74.6175 79.5444 74.6012 79.3491C74.593 79.2352 74.5849 79.1131 74.5768 78.9992C74.5605 78.747 74.5442 78.4947 74.5442 78.2344C74.5442 78.1611 74.5442 78.0879 74.5442 78.0065C74.5442 77.6973 74.5442 77.3882 74.5442 77.079C74.5442 77.0464 74.5442 77.0057 74.5442 76.9732C74.5605 76.6152 74.5768 76.2571 74.6012 75.891C74.6663 75.1099 74.7639 74.3125 74.9022 73.4907C74.9022 73.4907 74.9022 73.4744 74.9022 73.4663C74.9348 73.271 74.9673 73.0838 74.9999 72.8886C75.2683 71.4972 74.6907 70.1546 73.5435 69.4793C72.2254 68.7063 71.0538 67.8438 70.0123 66.9244L69.5893 66.5338C66.6114 63.7022 64.9597 60.2034 64.797 56.5257C64.797 56.3873 64.7807 56.2409 64.7807 56.1025C64.7807 55.9642 64.7807 55.8259 64.7807 55.6957C64.7807 55.5167 64.7889 55.3458 64.797 55.1668C64.797 55.0285 64.8133 54.8902 64.8296 54.7437C64.8458 54.5973 64.8621 54.4508 64.8784 54.3043C64.9028 54.1091 64.9272 53.9138 64.9597 53.7185C64.976 53.629 64.9923 53.5395 65.0086 53.45C65.0492 53.2059 65.0981 52.9618 65.155 52.7177C65.155 52.7177 65.155 52.7095 65.155 52.7014C65.871 49.6746 67.5552 46.7047 70.0774 44.0277C70.0937 44.0114 70.11 43.9951 70.1262 43.9789C70.3541 43.7348 70.59 43.4907 70.8341 43.2547C70.8992 43.1896 70.9643 43.1245 71.0375 43.0676C71.2409 42.8723 71.4443 42.677 71.664 42.4817C71.8023 42.3515 71.9488 42.2295 72.0952 42.1074C72.2498 41.9772 72.4044 41.8389 72.559 41.7087C72.8763 41.4484 73.2017 41.188 73.5272 40.9357C74.6744 40.057 75.2521 38.6168 74.9836 37.2742C73.7876 31.2693 74.829 25.7283 77.9208 21.668C80.7196 17.9903 85.0969 15.712 90.2472 15.2645C91.7768 15.1343 93.3796 15.1587 95.015 15.3377C95.2347 15.3621 95.4625 15.3621 95.6822 15.3377C96.8131 15.2401 97.879 14.581 98.5299 13.5558C102.313 7.5346 107.341 3.95446 112.695 3.49067C113.134 3.44998 113.566 3.44185 113.997 3.44998C114.094 3.44998 114.2 3.44998 114.298 3.44998C115.193 3.48253 116.08 3.59644 116.95 3.79986C116.983 3.79986 117.015 3.81613 117.048 3.82427C119.367 4.39384 121.58 5.58993 123.589 7.38001C123.589 7.38001 123.589 7.38001 123.598 7.38001L124.004 7.75429C125.013 8.70629 125.973 9.81288 126.852 11.0659C127.495 11.9772 128.569 12.4492 129.692 12.3434C129.911 12.3271 130.131 12.2864 130.359 12.2213C130.554 12.1644 130.741 12.1237 130.936 12.0667C130.936 12.0667 130.936 12.0667 130.953 12.0667C131.669 11.8796 132.368 11.725 133.052 11.5948C133.133 11.5785 133.215 11.5704 133.304 11.5541C133.564 11.5134 133.825 11.4646 134.077 11.4321C134.427 11.3833 134.777 11.3426 135.127 11.31C135.753 11.2531 136.372 11.2287 136.974 11.2368C137.079 11.2368 137.177 11.2449 137.275 11.2531C137.779 11.2612 138.284 11.2856 138.764 11.3344C138.853 11.3426 138.934 11.3589 139.016 11.367C139.512 11.4239 140 11.5053 140.472 11.603C140.545 11.6192 140.627 11.6436 140.7 11.6599C141.164 11.7657 141.619 11.8959 142.059 12.0423C142.148 12.0749 142.238 12.1074 142.319 12.14C142.726 12.2864 143.116 12.4492 143.499 12.6282C143.613 12.6851 143.727 12.7421 143.841 12.799C144.174 12.9699 144.491 13.1489 144.801 13.3442C144.947 13.4337 145.094 13.5232 145.232 13.6209C145.5 13.7999 145.753 14.0033 145.997 14.2067C146.151 14.3287 146.306 14.4508 146.452 14.5891C146.794 14.8983 147.128 15.2238 147.437 15.5737C150.529 19.0968 151.57 24.4589 150.374 30.6672C150.105 32.0586 150.683 33.4012 151.83 34.0765C157.485 37.3963 160.593 42.1888 160.593 47.5834C160.593 52.9781 157.477 58.3239 151.83 62.6282C150.683 63.5069 150.105 64.9471 150.374 66.2897C151.57 72.2864 150.529 77.8275 147.437 81.8877C144.638 85.5655 140.261 87.8438 135.11 88.2913C133.589 88.4215 131.986 88.3971 130.359 88.2181C130.123 88.1449 129.871 88.1204 129.618 88.153C129.456 88.1774 129.301 88.2344 129.155 88.2995C128.227 88.5273 127.381 89.1213 126.836 89.9838C123.052 96.013 118.024 99.5851 112.671 100.057L112.719 100.081ZM127.536 96.5257C127.422 96.6477 127.267 96.7209 127.112 96.7291C126.95 96.7453 126.795 96.6965 126.673 96.5745C126.502 96.4117 126.462 96.1514 126.551 95.9235C127.674 94.6542 128.74 93.2466 129.732 91.6681C130.131 91.7087 130.53 91.7413 130.92 91.7738C129.382 94.5403 127.633 96.4117 127.536 96.5175V96.5257ZM162.424 101.18C159.845 103.157 156.614 104.402 152.986 104.719C151.456 104.849 149.861 104.825 148.226 104.646C148.185 104.646 148.153 104.646 148.112 104.646C148.039 104.516 147.949 104.402 147.835 104.296L146.721 103.263C145.972 104.5 145.321 105.517 144.752 106.371C144.744 106.387 144.727 106.404 144.711 106.428C144.654 106.526 144.589 106.615 144.532 106.705C142.775 109.317 141.945 110.114 141.904 110.163C141.79 110.269 141.652 110.334 141.514 110.342C141.343 110.358 141.172 110.301 141.05 110.163C140.83 109.927 140.863 109.536 141.115 109.292C141.131 109.276 142.596 107.836 145.842 102.441L144.264 100.968C141.701 105.631 139.602 107.779 139.512 107.868C139.398 107.982 139.252 108.055 139.105 108.063C138.943 108.08 138.78 108.023 138.658 107.901C138.43 107.673 138.446 107.282 138.698 107.03C138.723 107.006 140.846 104.825 143.385 100.138L141.815 98.6737C139.447 103.19 137.218 105.492 137.12 105.598C137.006 105.72 136.852 105.785 136.705 105.793C136.542 105.81 136.38 105.753 136.258 105.639C136.03 105.411 136.046 105.02 136.29 104.768C136.315 104.744 138.585 102.384 140.92 97.8438L139.358 96.3873C137.185 100.765 134.826 103.222 134.72 103.328C134.606 103.45 134.451 103.515 134.305 103.531C134.142 103.548 133.979 103.491 133.857 103.377C133.63 103.149 133.638 102.758 133.882 102.506C133.906 102.482 136.331 99.9512 138.446 95.5493L136.892 94.1009C134.907 98.3401 132.425 100.952 132.312 101.058C132.198 101.18 132.043 101.245 131.897 101.261C131.734 101.277 131.571 101.229 131.457 101.107C131.229 100.879 131.238 100.496 131.482 100.236C131.506 100.212 134.077 97.5021 135.989 93.2466L134.443 91.8064C132.637 95.9073 130.033 98.6656 129.919 98.7877C129.806 98.9097 129.651 98.9829 129.505 98.9911C129.342 99.0074 129.187 98.9585 129.065 98.8365C128.837 98.6087 128.845 98.2262 129.09 97.9659C129.114 97.9414 131.441 95.4679 133.141 91.8389C133.817 91.8389 134.492 91.8064 135.143 91.7494C141.961 91.1554 147.477 87.8682 150.813 82.8641C150.813 82.8723 150.813 82.8804 150.813 82.8886C150.756 83.8731 150.708 84.76 150.667 85.4028L150.602 86.3467V86.428V86.4443L150.48 88.2181C150.48 88.2913 150.48 88.3646 150.488 88.4378C150.488 88.4378 150.488 88.4541 150.488 88.4622C150.455 88.9178 150.61 89.341 150.919 89.642L164.466 103.19L162.424 101.147V101.18ZM198.988 99.9919C198.654 100.016 198.386 99.7641 198.386 99.4223C198.386 99.0887 198.663 98.7958 198.996 98.7632C201.201 98.5924 203.373 98.4459 205.586 98.2995C205.635 98.7063 205.692 99.1131 205.749 99.5118C203.471 99.6583 201.242 99.8129 198.98 99.9838L198.988 99.9919ZM215.114 79.6095C211.493 80.415 207.442 81.0334 203.072 81.4565L205.123 83.5069V90.8869C205.123 92.8397 205.228 94.76 205.407 96.6477L205.172 96.4117C201.982 96.5989 198.915 96.8023 195.856 97.0383C195.522 97.0627 195.253 96.8104 195.253 96.4687C195.253 96.1351 195.53 95.8422 195.864 95.8096C198.549 95.5981 201.234 95.4191 204.008 95.2482L202.202 93.4418C198.939 93.629 195.807 93.8405 192.715 94.0846C192.381 94.1091 192.113 93.8568 192.113 93.5151C192.113 93.1815 192.39 92.8886 192.723 92.856C195.441 92.6445 198.199 92.4573 201.038 92.2864L199.232 90.4801C195.929 90.6672 192.739 90.8869 189.583 91.131C189.249 91.1554 188.98 90.9032 188.98 90.5615C188.98 90.2279 189.257 89.9349 189.591 89.9024C192.373 89.6827 195.188 89.4956 198.077 89.3247L196.27 87.5183C192.902 87.7136 189.664 87.9252 186.45 88.1774C186.116 88.2018 185.848 87.9496 185.848 87.6078C185.848 87.2742 186.125 86.9813 186.458 86.9488C189.298 86.7291 192.162 86.5338 195.115 86.3548L192.935 84.1742L192.699 82.6363C192.398 80.6672 192.202 78.6249 192.121 76.5501C192.097 75.8503 192.08 75.1506 192.08 74.4427V70.472L192.845 71.2368C192.878 71.2368 192.902 71.2124 192.935 71.2124C197.564 70.7893 201.844 70.1546 205.635 69.3084C205.969 69.227 206.278 69.4467 206.319 69.7722C206.359 70.1058 206.132 70.4313 205.798 70.5045C202.226 71.2938 198.231 71.904 193.935 72.3271L195.888 74.2799C195.937 74.2637 195.986 74.2392 196.035 74.2392C200.672 73.8161 204.944 73.1815 208.735 72.3353C209.069 72.2539 209.378 72.4736 209.419 72.7991C209.459 73.1327 209.232 73.4581 208.898 73.5314C205.318 74.3288 201.299 74.939 196.978 75.3621L198.939 77.3231C199.004 77.2986 199.069 77.2742 199.134 77.2661C203.764 76.843 208.044 76.2083 211.835 75.3621C212.169 75.2807 212.47 75.5004 212.519 75.8259C212.559 76.1595 212.331 76.485 211.998 76.5582C208.393 77.3556 204.358 77.974 200.013 78.3971L201.99 80.3743C202.063 80.3336 202.145 80.3011 202.234 80.293C206.872 79.8698 211.144 79.2352 214.935 78.389C215.269 78.3157 215.57 78.5192 215.618 78.8528C215.659 79.1864 215.431 79.5118 215.098 79.5851L215.114 79.6095ZM192.088 69.1701V68.0147C195.88 67.5834 199.395 67.0057 202.633 66.2897H202.649C202.934 66.2734 203.186 66.4606 203.227 66.7616C203.268 67.0952 203.04 67.4207 202.706 67.4939C199.492 68.21 195.912 68.7632 192.088 69.1782V69.1701ZM222.42 53.4663C216.042 59.6257 205.538 63.3686 190.307 64.9146C189.517 64.996 188.907 65.6388 188.85 66.4199C188.85 66.4443 188.85 66.4606 188.85 66.485C188.85 66.5012 188.85 66.5175 188.85 66.5338V74.4508C188.85 75.2319 188.867 76.013 188.899 76.7942C188.98 79.0562 189.184 81.2775 189.517 83.4174H189.379C189.379 83.4174 189.347 83.4174 189.33 83.4256L188.736 83.4581C188.313 83.4825 187.687 83.5151 186.857 83.5639C185.392 83.6534 182.951 83.8161 179.681 84.0602C174.059 84.4915 165.027 85.2645 153.881 86.5257L153.938 85.6306C153.978 84.9797 154.035 84.0928 154.092 83.092C154.239 80.4313 154.312 78.4134 154.312 77.1034V72.0586C154.353 71.1961 154.361 70.3174 154.312 69.4223V64.9471C167.33 54.6379 167.33 39.4223 154.312 31.3914V26.8999C154.361 26.0049 154.353 25.1261 154.312 24.2799V19.5444C154.312 16.0863 154.174 13.1733 153.873 10.3824V9.67456L186.385 6.82671C186.442 6.82671 186.499 6.81044 186.564 6.8023C186.995 6.7128 187.426 6.68025 187.825 6.66398L188.289 6.63957C188.606 6.62329 188.899 6.61516 189.249 6.58261C205.106 4.939 216.001 6.70466 222.567 11.9691C222.876 12.2132 223.169 12.4736 223.462 12.734C223.535 12.8723 223.625 13.0106 223.738 13.1245C223.738 13.1245 223.747 13.1327 223.755 13.1408L224.341 13.7266C227.619 17.1522 229.483 21.6843 230.06 27.7462C230.06 27.7462 230.06 27.7543 230.06 27.7624C230.101 28.1774 230.134 28.6005 230.158 29.0236C230.174 29.2677 230.182 29.52 230.199 29.7722C230.207 29.9838 230.223 30.1953 230.231 30.415C230.247 30.8951 230.256 31.3833 230.256 31.8796C230.256 31.9366 230.256 31.9854 230.256 32.0423C230.256 41.5297 227.774 48.3483 222.453 53.4907L222.42 53.4663Z" fill="black"></path></g><g id="face_skew" class="logo-face-skew"><path id="Vector_13" fill-rule="evenodd" clip-rule="evenodd" d="M143.538 54.5773C141.642 52.348 139.128 51.0543 136.077 50.7289C134.962 50.615 133.888 51.4367 133.669 52.5839C133.457 53.723 134.181 54.7481 135.296 54.862C135.516 54.8864 135.727 54.919 135.931 54.9597C133.539 58.027 125.451 66.8791 111.148 68.1321C96.7225 69.3932 88.7328 61.973 86.3489 59.3044C86.5605 59.2311 86.772 59.1579 86.9998 59.0928C88.1145 58.7755 88.8467 57.6283 88.627 56.5299C88.4155 55.4234 87.3415 54.7888 86.2187 55.098C83.1596 55.9604 80.6536 57.6934 78.7579 60.2563C78.0501 61.2082 78.1965 62.5019 79.0833 63.1365C79.4576 63.405 79.9132 63.5189 80.3607 63.4782C80.9628 63.4294 81.5649 63.1039 81.9635 62.5588C82.1995 62.2415 82.4517 61.9486 82.7121 61.672C84.9088 64.3081 94.0457 73.7704 111.14 72.2734C128.234 70.7763 137.379 59.7112 139.567 56.6927C139.828 56.9205 140.08 57.1727 140.316 57.4493C140.723 57.9294 141.317 58.1409 141.919 58.0839C142.366 58.0433 142.822 57.8561 143.196 57.5225C144.083 56.7333 144.229 55.4153 143.522 54.5854L143.538 54.5773Z" fill="black"></path><path id="Vector_14" fill-rule="evenodd" clip-rule="evenodd" d="M122.921 45.6356C125.533 45.4078 127.664 41.4781 127.664 36.9218C127.664 32.3656 125.533 28.8101 122.921 29.0379C120.309 29.2657 118.177 33.1548 118.177 37.7517C118.177 42.3486 120.309 45.8634 122.921 45.6356Z" fill="black"></path><path id="Vector_15" fill-rule="evenodd" clip-rule="evenodd" d="M99.261 47.7103C101.873 47.4825 104.004 43.5528 104.004 38.9965C104.004 34.4403 101.873 30.8848 99.261 31.1126C96.6492 31.3404 94.5176 35.2295 94.5176 39.8264C94.5176 44.4233 96.6492 47.9381 99.261 47.7103Z" fill="black"></path></g><g id="face_straight" class="logo-face-straight"><path id="Vector_16" d="M146.168 51.3101C144.492 48.9016 142.132 47.3638 139.138 46.7617C138.048 46.542 136.909 47.2743 136.591 48.3971C136.274 49.52 136.909 50.6184 137.999 50.8381C138.17 50.8707 138.341 50.9195 138.503 50.9602C138.389 50.9927 138.275 51.0334 138.137 51.0741C136.705 51.4891 134.541 52.1237 132.686 54.7437C131.742 56.0782 131.596 57.8031 131.449 59.463C131.335 60.8219 131.189 62.5143 130.57 63.0839C130.221 63.3605 128.634 63.3605 127.788 63.3605C125.99 63.3605 123.948 63.3605 122.206 64.402C120.701 65.297 119.798 66.9162 118.919 68.4866C118.268 69.6502 117.455 71.0985 116.771 71.3426C116.088 71.5867 114.705 70.9114 113.598 70.3743C112.101 69.6502 110.563 68.8853 108.879 69.1294C106.935 69.3979 105.242 70.7161 103.753 71.8715C103.046 72.4167 101.76 73.45 101.321 73.4419C100.523 73.3686 99.5714 72.0586 98.8147 71.0171C97.879 69.7315 96.9189 68.4053 95.4788 67.9171C92.6637 66.9488 90.5645 67.8276 89.1732 68.4053C89.0431 68.4622 88.9292 68.5029 88.8152 68.5517C88.9292 68.4053 89.0431 68.2669 89.1732 68.1205C89.9625 67.2336 89.9462 65.9236 89.1407 65.1994C88.3352 64.4752 87.0334 64.6054 86.2361 65.4923C84.0637 67.9252 82.8595 70.7161 82.6561 73.7918C82.5829 74.939 83.4372 75.8503 84.5681 75.8259C84.6169 75.8259 84.6576 75.8259 84.7064 75.8259C85.7804 75.7283 86.6835 74.817 86.7568 73.7185C86.773 73.4581 86.8056 73.1978 86.8381 72.9374C88.262 73.149 89.515 72.6282 90.4506 72.2376C91.6222 71.7494 92.4684 71.3996 93.8597 71.8715C94.2177 72.0098 94.9744 73.0513 95.43 73.6697C96.626 75.3215 98.115 77.3719 100.605 77.5916C100.849 77.616 101.085 77.616 101.321 77.5916C103.07 77.437 104.657 76.2002 106.08 75.0936C107.122 74.28 108.302 73.3605 109.083 73.2547C109.538 73.1734 110.718 73.7511 111.564 74.1579C113.322 75.0123 115.518 76.0782 117.821 75.2645C120.132 74.4508 121.417 72.1481 122.45 70.3093C122.947 69.4224 123.63 68.21 124.053 67.9577C124.761 67.5428 126.177 67.5346 127.438 67.5346C129.391 67.5346 131.596 67.5346 133.19 66.0619C135.135 64.2718 135.363 61.6111 135.542 59.4793C135.615 58.6738 135.729 57.3231 135.957 56.9813C136.876 55.6795 137.747 55.4272 138.959 55.0774C139.927 54.7926 141.221 54.4101 142.287 53.3198C142.441 53.507 142.596 53.7023 142.734 53.9057C143.133 54.4752 143.784 54.7437 144.451 54.6868C144.841 54.6542 145.232 54.5078 145.582 54.2474C146.526 53.5314 146.794 52.2295 146.168 51.3263V51.3101Z" fill="black"></path><g id="eyes"><path id="eye_2" fill-rule="evenodd" clip-rule="evenodd" d="M122.548 46.1921C125.071 45.297 126.584 42.5306 125.925 40.057C125.258 37.5834 122.654 36.2734 120.132 37.1685C117.609 38.0635 116.088 40.8056 116.755 43.3035C117.422 45.8015 120.026 47.0871 122.548 46.1921Z" fill="black"></path></g><g id="eyes_2"><path id="Vector_17" d="M85.6342 48.7958C84.5276 48.8935 83.6163 48.0879 83.5837 46.9651C83.5512 45.8259 84.4462 44.7926 85.5772 44.6624C87.6602 44.4183 89.5968 43.3768 91.0288 41.725C92.4609 40.0733 93.2176 38.0147 93.1606 35.9154C93.1281 34.7763 94.0231 33.7429 95.1541 33.6127C95.1704 33.6127 95.1948 33.6127 95.2111 33.6127C96.3177 33.5151 97.229 34.3206 97.2615 35.4435C97.351 38.6412 96.1956 41.7901 94.0069 44.3044C91.8181 46.8267 88.8645 48.4134 85.6911 48.7795C85.6749 48.7795 85.6505 48.7795 85.6342 48.7795V48.7958Z" fill="black"></path></g><g id="eyes_3"><path id="Vector_18" d="M129.107 30.6103C128.374 30.6754 127.658 30.3418 127.292 29.6664C126.316 27.9008 124.68 26.6803 122.687 26.2409C120.693 25.8015 118.586 26.1921 116.747 27.3393C115.746 27.9659 114.501 27.6892 113.973 26.7291C113.444 25.7689 113.818 24.4833 114.819 23.8568C117.626 22.1074 120.848 21.5135 123.891 22.1807C126.934 22.856 129.432 24.7112 130.921 27.4044C131.45 28.3646 131.076 29.6501 130.075 30.2767C129.766 30.472 129.44 30.5777 129.115 30.6021L129.107 30.6103Z" fill="black"></path></g><path id="Vector_19" d="M94.2422 54.8251C94.0062 54.8495 93.7621 54.8251 93.518 54.76C92.4603 54.4508 91.9151 53.3035 92.3138 52.197C93.1437 49.8943 94.7874 47.974 96.9355 46.8023C99.0835 45.6306 101.492 45.3377 103.705 45.9724C104.771 46.2816 105.308 47.4288 104.909 48.5354C104.511 49.642 103.323 50.2848 102.265 49.9756C101.077 49.6339 99.7914 49.7885 98.636 50.415C97.4806 51.0415 96.6018 52.0749 96.1543 53.3117C95.8451 54.166 95.064 54.7519 94.2341 54.8251H94.2422Z" fill="black"></path></g></svg>
