<svg xmlns="http://www.w3.org/2000/svg" width="32" height="24" viewBox="0 0 32 24" fill="none"><path d="M31.3274 2.47923C32.6646 4.81537 31.8584 7.79044 29.5238 9.13628C29.1752 9.31167 22.6704 12.0156 22.6704 12.0156C22.6704 12.0156 29.176 14.7196 29.5246 14.895C31.8649 16.2363 32.6723 19.2167 31.328 21.5518C29.9836 23.887 26.9966 24.6926 24.6561 23.3513C22.3158 22.01 21.5084 19.0298 22.8525 16.6947C23.1071 16.26 23.4296 15.8684 23.8075 15.5347L17.3901 14.2475L4.72183 19.5427L0 18.9561L13.1811 12.014L0 5.07479L4.72183 4.48818L17.3903 9.78512L23.8073 8.49636C23.4294 8.16262 23.1069 7.77102 22.8523 7.33641C21.491 5.01097 22.2766 2.0248 24.6072 0.666482C26.9378 -0.691841 29.9305 0.0921573 31.292 2.4174C31.304 2.43801 31.3159 2.45862 31.3276 2.47923H31.3274ZM24.9171 17.8736C24.2451 19.0413 24.649 20.5314 25.8194 21.2018C26.9897 21.8723 28.4832 21.4692 29.1552 20.3015C29.8272 19.1338 29.4231 17.6437 28.2529 16.9733C27.0806 16.3177 25.5983 16.7178 24.9171 17.8736ZM17.7028 12.0103C17.7028 12.6847 18.2508 13.2317 18.9267 13.2317C19.6027 13.2317 20.1507 12.6849 20.1507 12.0103C20.1507 11.3357 19.6027 10.7889 18.9267 10.7889C18.2508 10.7889 17.7028 11.3357 17.7028 12.0103ZM25.8188 2.82941C24.6506 3.49312 24.2427 4.97629 24.908 6.14199C24.911 6.14714 24.9139 6.15249 24.9171 6.15764C25.5983 7.31342 27.0808 7.71335 28.2529 7.05738C29.4281 6.39526 29.8427 4.90812 29.1792 3.73569C28.5157 2.56326 27.0252 2.14946 25.8499 2.81158C25.8396 2.81732 25.8291 2.82327 25.819 2.82941H25.8188Z" fill="black"></path></svg>