<svg xmlns="http://www.w3.org/2000/svg" width="32" height="32" viewBox="0 0 32 32" fill="none"><path d="M29.0744 11.2693C28.6901 11.0122 28.498 10.5494 28.59 10.0974C28.9905 8.07578 28.6414 6.26793 27.6103 5.01218C26.6766 3.87551 25.2124 3.24763 23.4939 3.24763C22.9824 3.24763 22.4493 3.30176 21.9053 3.41001C21.8322 3.42355 21.7564 3.43166 21.6834 3.43166C21.3072 3.43166 20.9499 3.24493 20.7334 2.92558C19.4668 1.03924 17.7862 0 16 0C14.2138 0 12.5332 1.03924 11.272 2.92558C11.0582 3.24493 10.6982 3.43166 10.3221 3.43166C10.249 3.43166 10.1732 3.42355 10.1001 3.41001C9.55616 3.30176 9.0203 3.24763 8.5088 3.24763C6.79026 3.24763 5.32612 3.87551 4.39242 5.01218C3.35859 6.27064 3.01218 8.07578 3.41272 10.1001C3.50203 10.5521 3.30988 11.0149 2.92828 11.272C1.03924 12.5332 0 14.2138 0 16C0 17.7862 1.03924 19.4668 2.92558 20.728C3.30988 20.9851 3.49932 21.4479 3.41001 21.8999C3.00947 23.9215 3.35859 25.7267 4.39242 26.9851C5.32612 28.1218 6.79026 28.7497 8.5088 28.7497C9.0203 28.7497 9.55345 28.6955 10.1001 28.5873C10.1732 28.5737 10.249 28.5656 10.3221 28.5656C10.6982 28.5656 11.0582 28.7524 11.272 29.0717C12.5359 30.958 14.2165 32 16.0027 32C17.7889 32 19.4696 30.9608 20.7334 29.0744C20.9472 28.7524 21.3072 28.5683 21.6834 28.5683C21.7564 28.5683 21.8322 28.5765 21.9053 28.59C22.4493 28.6982 22.9824 28.7524 23.4939 28.7524C25.2124 28.7524 26.6739 28.1245 27.6103 26.9878C28.6441 25.7321 28.9905 23.9269 28.5927 21.9026C28.5034 21.4506 28.6955 20.9878 29.0771 20.7307C30.9635 19.4668 32.0027 17.7889 32.0027 16C32.0027 14.2111 30.9635 12.5332 29.0744 11.2693Z" fill="#FBD576"></path><path d="M26.8363 18.4032C26.203 17.6103 25.364 17.1069 24.3437 16.912C23.973 16.8417 23.613 17.0825 23.5399 17.456C23.4696 17.8268 23.7104 18.1867 24.0839 18.2598C24.157 18.2733 24.2274 18.2923 24.2977 18.3085C23.4966 19.2557 20.7984 21.954 16.0217 21.954C11.2449 21.954 8.53588 19.2611 7.74291 18.3085C7.81328 18.2896 7.88635 18.2733 7.95942 18.2571C8.33019 18.1867 8.57376 17.8268 8.5034 17.4533C8.43303 17.0825 8.07309 16.839 7.69961 16.9093C6.67931 17.1069 5.84034 17.6076 5.20705 18.4005C4.9716 18.6955 5.02031 19.1285 5.31531 19.364C5.44251 19.4641 5.59136 19.5128 5.74291 19.5128C5.94318 19.5128 6.14345 19.4235 6.27877 19.2557C6.35726 19.1583 6.44115 19.069 6.52776 18.9851C7.26118 19.9215 10.314 23.3234 16.0217 23.3234C21.7294 23.3234 24.7822 19.9215 25.5156 18.9851C25.6022 19.069 25.6861 19.1583 25.7646 19.2557C25.8999 19.4262 26.1002 19.5128 26.3004 19.5128C26.4493 19.5128 26.6008 19.4641 26.728 19.364C27.023 19.1285 27.0717 18.6955 26.8363 18.4005V18.4032Z" fill="black"></path><path fillrule="evenodd" cliprule="evenodd" d="M19.9513 14.8443C20.8227 14.8443 21.5345 13.6048 21.5345 12.0947C21.5345 10.5845 20.8227 9.345 19.9513 9.345C19.0798 9.345 18.3681 10.571 18.3681 12.0947C18.3681 13.6183 19.0798 14.8443 19.9513 14.8443Z" fill="black"></path><path fillrule="evenodd" cliprule="evenodd" d="M12.0487 14.8444C12.9202 14.8444 13.632 13.6048 13.632 12.0947C13.632 10.5845 12.9202 9.34503 12.0487 9.34503C11.1773 9.34503 10.4655 10.571 10.4655 12.0947C10.4655 13.6184 11.1773 14.8444 12.0487 14.8444Z" fill="black"></path></svg>