<svg width="337" height="186" viewBox="0 0 337 186" fill="none" xmlns="http://www.w3.org/2000/svg">
<path d="M336.799 117.945C319.269 104.54 319.284 81.8899 336.839 68.5369L336.855 68.5249L320.547 64.4688C300.831 59.5637 288.498 43.6801 291.516 27.0941L291.769 25.6866L260.44 27.3431C245.618 28.1154 231.399 22.432 223.129 12.3863L213.629 0.872588L186.589 11.4592C175.161 15.93 161.826 15.9151 150.392 11.4058L123.378 0.748047L113.865 12.2358C105.565 22.2639 91.344 27.9137 76.527 27.0927L45.1953 25.3562L45.4532 26.7719C48.4508 43.3641 36.076 59.2226 16.3604 64.0717L0.0423919 68.0865C17.572 81.4914 17.5423 104.139 0 117.509L16.3082 121.565C36.0243 126.47 48.3577 142.353 45.3392 158.939L45.0861 160.347L76.4158 158.69C91.2372 157.918 105.456 163.602 113.726 173.647L123.227 185.161L150.252 174.572C161.68 170.101 175.015 170.116 186.449 174.625L213.463 185.283L222.976 173.796C231.276 163.767 245.497 158.118 260.314 158.939L291.646 160.675L291.388 159.259C288.39 142.667 300.765 126.809 320.481 121.96L336.799 117.945Z" fill="white"/>
</svg>
